<?xml version="1.0" encoding="UTF-8" standalone="no"?>
<!DOCTYPE svg PUBLIC "-//W3C//DTD SVG 1.1//EN"
 "http://www.w3.org/Graphics/SVG/1.1/DTD/svg11.dtd">
<!-- Generated by graphviz version 2.40.1 (20161225.0304)
 -->
<!-- Title: Plugin architecture (security_slicing) Pages: 1 -->
<svg width="719pt" height="540pt"
 viewBox="0.00 0.00 719.01 540.00" xmlns="http://www.w3.org/2000/svg" xmlns:xlink="http://www.w3.org/1999/xlink">
<g id="graph0" class="graph" transform="scale(.9854 .9854) rotate(0) translate(4 544)">
<title>Plugin architecture (security_slicing)</title>
<polygon fill="#ffffff" stroke="transparent" points="-4,4 -4,-544 725.657,-544 725.657,4 -4,4"/>
<!-- Security_slicing -->
<g id="node1" class="node">
<title>Security_slicing</title>
<g id="a_node1"><a xlink:href="Security_slicing.html" xlink:title="Security_slicing">
<ellipse fill="#00ced1" stroke="#00ced1" cx="152.347" cy="-486" rx="67.6881" ry="18"/>
<text text-anchor="middle" x="152.347" y="-482.3" font-family="Times,serif" font-size="14.00" fill="#000000">Security_slicing</text>
</a>
</g>
</g>
<!-- Security_slicing_parameters -->
<g id="node2" class="node">
<title>Security_slicing_parameters</title>
<g id="a_node2"><a xlink:href="Security_slicing_parameters.html" xlink:title="Security_slicing_parameters">
<ellipse fill="#00ced1" stroke="#00ced1" cx="470.347" cy="-54" rx="111.2805" ry="18"/>
<text text-anchor="middle" x="470.347" y="-50.3" font-family="Times,serif" font-size="14.00" fill="#000000">Security_slicing_parameters</text>
</a>
</g>
</g>
<!-- Components -->
<g id="node3" class="node">
<title>Components</title>
<g id="a_node3"><a xlink:href="Components.html" xlink:title="Components">
<ellipse fill="#00ced1" stroke="#00ced1" cx="565.347" cy="-270" rx="55.7903" ry="18"/>
<text text-anchor="middle" x="565.347" y="-266.3" font-family="Times,serif" font-size="14.00" fill="#000000">Components</text>
</a>
</g>
</g>
<!-- Components&#45;&gt;Security_slicing_parameters -->
<g id="edge1" class="edge">
<title>Components&#45;&gt;Security_slicing_parameters</title>
<path fill="none" stroke="#000000" d="M557.4107,-251.9555C540.7858,-214.1556 502.2118,-126.4506 482.4667,-81.5564"/>
<polygon fill="#000000" stroke="#000000" points="485.5573,-79.8897 478.3274,-72.1451 479.1496,-82.708 485.5573,-79.8897"/>
</g>
<!-- Register_gui -->
<g id="node4" class="node">
<title>Register_gui</title>
<g id="a_node4"><a xlink:href="Register_gui.html" xlink:title="Register_gui">
<ellipse fill="#00ced1" stroke="#00ced1" cx="470.347" cy="-486" rx="55.7903" ry="18"/>
<text text-anchor="middle" x="470.347" y="-482.3" font-family="Times,serif" font-size="14.00" fill="#000000">Register_gui</text>
</a>
</g>
</g>
<!-- Register_gui&#45;&gt;Security_slicing_parameters -->
<g id="edge3" class="edge">
<title>Register_gui&#45;&gt;Security_slicing_parameters</title>
<path fill="none" stroke="#000000" d="M470.347,-467.9875C470.347,-400.7447 470.347,-164.0792 470.347,-82.1585"/>
<polygon fill="#000000" stroke="#000000" points="473.8471,-82.0894 470.347,-72.0894 466.8471,-82.0894 473.8471,-82.0894"/>
</g>
<!-- Register_gui&#45;&gt;Components -->
<g id="edge2" class="edge">
<title>Register_gui&#45;&gt;Components</title>
<path fill="none" stroke="#000000" d="M478.2832,-467.9555C494.9496,-430.0613 533.6747,-342.0128 553.3746,-297.2213"/>
<polygon fill="#000000" stroke="#000000" points="556.6779,-298.4041 557.5001,-287.8413 550.2703,-295.5859 556.6779,-298.4041"/>
</g>
</g>
</svg>
