<?xml version="1.0" encoding="UTF-8" standalone="no"?>
<!DOCTYPE svg PUBLIC "-//W3C//DTD SVG 1.1//EN"
 "http://www.w3.org/Graphics/SVG/1.1/DTD/svg11.dtd">
<!-- Generated by graphviz version 2.40.1 (20161225.0304)
 -->
<!-- Title: Plugin architecture (sparecode) Pages: 1 -->
<svg width="719pt" height="540pt"
 viewBox="0.00 0.00 718.90 540.00" xmlns="http://www.w3.org/2000/svg" xmlns:xlink="http://www.w3.org/1999/xlink">
<g id="graph0" class="graph" transform="scale(.9854 .9854) rotate(0) translate(4 544)">
<title>Plugin architecture (sparecode)</title>
<polygon fill="#ffffff" stroke="transparent" points="-4,4 -4,-544 725.548,-544 725.548,4 -4,4"/>
<!-- Sparecode -->
<g id="node1" class="node">
<title>Sparecode</title>
<g id="a_node1"><a xlink:href="Sparecode.html" xlink:title="Sparecode">
<ellipse fill="#00ced1" stroke="#00ced1" cx="114.7214" cy="-501" rx="47.3916" ry="18"/>
<text text-anchor="middle" x="114.7214" y="-497.3" font-family="Times,serif" font-size="14.00" fill="#000000">Sparecode</text>
</a>
</g>
</g>
<!-- Sparecode_params -->
<g id="node2" class="node">
<title>Sparecode_params</title>
<g id="a_node2"><a xlink:href="Sparecode_params.html" xlink:title="Sparecode_params">
<ellipse fill="#00ced1" stroke="#00ced1" cx="452.7214" cy="-39" rx="77.1866" ry="18"/>
<text text-anchor="middle" x="452.7214" y="-35.3" font-family="Times,serif" font-size="14.00" fill="#000000">Sparecode_params</text>
</a>
</g>
</g>
<!-- Globs -->
<g id="node3" class="node">
<title>Globs</title>
<g id="a_node3"><a xlink:href="Globs.html" xlink:title="Globs">
<ellipse fill="#00ced1" stroke="#00ced1" cx="324.7214" cy="-193" rx="31.6951" ry="18"/>
<text text-anchor="middle" x="324.7214" y="-189.3" font-family="Times,serif" font-size="14.00" fill="#000000">Globs</text>
</a>
</g>
</g>
<!-- Globs&#45;&gt;Sparecode_params -->
<g id="edge1" class="edge">
<title>Globs&#45;&gt;Sparecode_params</title>
<path fill="none" stroke="#000000" d="M338.4196,-176.5193C360.6798,-149.7375 404.8724,-96.5683 431.3104,-64.76"/>
<polygon fill="#000000" stroke="#000000" points="434.244,-66.7062 437.9444,-56.7785 428.8607,-62.2317 434.244,-66.7062"/>
</g>
<!-- Spare_marks -->
<g id="node4" class="node">
<title>Spare_marks</title>
<g id="a_node4"><a xlink:href="Spare_marks.html" xlink:title="Spare_marks">
<ellipse fill="#00ced1" stroke="#00ced1" cx="583.7214" cy="-193" rx="57.3905" ry="18"/>
<text text-anchor="middle" x="583.7214" y="-189.3" font-family="Times,serif" font-size="14.00" fill="#000000">Spare_marks</text>
</a>
</g>
</g>
<!-- Spare_marks&#45;&gt;Sparecode_params -->
<g id="edge2" class="edge">
<title>Spare_marks&#45;&gt;Sparecode_params</title>
<path fill="none" stroke="#000000" d="M568.694,-175.3342C545.6208,-148.21 501.3457,-96.1615 474.677,-64.8104"/>
<polygon fill="#000000" stroke="#000000" points="477.1223,-62.2833 467.977,-56.9341 471.7904,-66.8188 477.1223,-62.2833"/>
</g>
<!-- Transform -->
<g id="node5" class="node">
<title>Transform</title>
<g id="a_node5"><a xlink:href="Transform.html" xlink:title="Transform">
<ellipse fill="#00ced1" stroke="#00ced1" cx="600.7214" cy="-347" rx="48.1917" ry="18"/>
<text text-anchor="middle" x="600.7214" y="-343.3" font-family="Times,serif" font-size="14.00" fill="#000000">Transform</text>
</a>
</g>
</g>
<!-- Transform&#45;&gt;Sparecode_params -->
<g id="edge3" class="edge">
<title>Transform&#45;&gt;Sparecode_params</title>
<path fill="none" stroke="#000000" d="M613.9239,-329.5213C636.4396,-297.4111 677.2794,-227.5121 649.7214,-175 619.3042,-117.0399 551.7473,-78.92 504.2632,-58.1663"/>
<polygon fill="#000000" stroke="#000000" points="505.623,-54.9413 495.051,-54.2464 502.8822,-61.3825 505.623,-54.9413"/>
</g>
<!-- Transform&#45;&gt;Spare_marks -->
<g id="edge4" class="edge">
<title>Transform&#45;&gt;Spare_marks</title>
<path fill="none" stroke="#000000" d="M598.7045,-328.7294C595.7778,-302.2167 590.3263,-252.8331 586.8683,-221.507"/>
<polygon fill="#000000" stroke="#000000" points="590.3118,-220.8024 585.7356,-211.2468 583.3541,-221.5705 590.3118,-220.8024"/>
</g>
<!-- Register -->
<g id="node6" class="node">
<title>Register</title>
<g id="a_node6"><a xlink:href="Register.html" xlink:title="Register">
<ellipse fill="#00ced1" stroke="#00ced1" cx="370.7214" cy="-501" rx="40.0939" ry="18"/>
<text text-anchor="middle" x="370.7214" y="-497.3" font-family="Times,serif" font-size="14.00" fill="#000000">Register</text>
</a>
</g>
</g>
<!-- Register&#45;&gt;Sparecode_params -->
<g id="edge6" class="edge">
<title>Register&#45;&gt;Sparecode_params</title>
<path fill="none" stroke="#000000" d="M357.9068,-483.5955C322.7317,-433.536 230.7194,-285.6852 283.7214,-175 309.4282,-121.3158 367.8075,-82.0818 408.7192,-59.9172"/>
<polygon fill="#000000" stroke="#000000" points="410.4737,-62.9488 417.6802,-55.1824 407.2034,-56.7596 410.4737,-62.9488"/>
</g>
<!-- Register&#45;&gt;Globs -->
<g id="edge8" class="edge">
<title>Register&#45;&gt;Globs</title>
<path fill="none" stroke="#000000" d="M367.9816,-482.6556C360.2475,-430.8707 338.2075,-283.2985 328.9245,-221.1429"/>
<polygon fill="#000000" stroke="#000000" points="332.3856,-220.6216 327.4468,-211.2483 325.4624,-221.6556 332.3856,-220.6216"/>
</g>
<!-- Register&#45;&gt;Spare_marks -->
<g id="edge7" class="edge">
<title>Register&#45;&gt;Spare_marks</title>
<path fill="none" stroke="#000000" d="M382.7835,-483.5581C418.4326,-432.0092 523.4493,-280.154 565.7563,-218.9777"/>
<polygon fill="#000000" stroke="#000000" points="568.7183,-220.848 571.5276,-210.6324 562.9609,-216.8664 568.7183,-220.848"/>
</g>
<!-- Register&#45;&gt;Transform -->
<g id="edge5" class="edge">
<title>Register&#45;&gt;Transform</title>
<path fill="none" stroke="#000000" d="M393.1935,-485.9534C434.2685,-458.451 521.5749,-399.9937 568.7986,-368.3744"/>
<polygon fill="#000000" stroke="#000000" points="570.7675,-371.2682 577.1296,-362.7962 566.8729,-365.4516 570.7675,-371.2682"/>
</g>
</g>
</svg>
