<?xml version="1.0" encoding="UTF-8" standalone="no"?>
<!DOCTYPE svg PUBLIC "-//W3C//DTD SVG 1.1//EN"
 "http://www.w3.org/Graphics/SVG/1.1/DTD/svg11.dtd">
<!-- Generated by graphviz version 2.40.1 (20161225.0304)
 -->
<!-- Title: Plugin architecture (report) Pages: 1 -->
<svg width="719pt" height="540pt"
 viewBox="0.00 0.00 719.43 540.00" xmlns="http://www.w3.org/2000/svg" xmlns:xlink="http://www.w3.org/1999/xlink">
<g id="graph0" class="graph" transform="scale(.9854 .9854) rotate(0) translate(4 544)">
<title>Plugin architecture (report)</title>
<polygon fill="#ffffff" stroke="transparent" points="-4,4 -4,-544 726.0929,-544 726.0929,4 -4,4"/>
<!-- Report -->
<g id="node1" class="node">
<title>Report</title>
<g id="a_node1"><a xlink:href="Report.html" xlink:title="Report">
<ellipse fill="#00ced1" stroke="#00ced1" cx="192.4648" cy="-501" rx="34.394" ry="18"/>
<text text-anchor="middle" x="192.4648" y="-497.3" font-family="Times,serif" font-size="14.00" fill="#000000">Report</text>
</a>
</g>
</g>
<!-- Report_parameters -->
<g id="node2" class="node">
<title>Report_parameters</title>
<g id="a_node2"><a xlink:href="Report_parameters.html" xlink:title="Report_parameters">
<ellipse fill="#00ced1" stroke="#00ced1" cx="438.4648" cy="-39" rx="77.9862" ry="18"/>
<text text-anchor="middle" x="438.4648" y="-35.3" font-family="Times,serif" font-size="14.00" fill="#000000">Report_parameters</text>
</a>
</g>
</g>
<!-- Scan -->
<g id="node3" class="node">
<title>Scan</title>
<g id="a_node3"><a xlink:href="Scan.html" xlink:title="Scan">
<ellipse fill="#00ced1" stroke="#00ced1" cx="438.4648" cy="-193" rx="27.8951" ry="18"/>
<text text-anchor="middle" x="438.4648" y="-189.3" font-family="Times,serif" font-size="14.00" fill="#000000">Scan</text>
</a>
</g>
</g>
<!-- Scan&#45;&gt;Report_parameters -->
<g id="edge1" class="edge">
<title>Scan&#45;&gt;Report_parameters</title>
<path fill="none" stroke="#000000" d="M438.4648,-174.7294C438.4648,-148.2167 438.4648,-98.8331 438.4648,-67.507"/>
<polygon fill="#000000" stroke="#000000" points="441.9649,-67.2468 438.4648,-57.2468 434.9649,-67.2468 441.9649,-67.2468"/>
</g>
<!-- Dump -->
<g id="node4" class="node">
<title>Dump</title>
<g id="a_node4"><a xlink:href="Dump.html" xlink:title="Dump">
<ellipse fill="#00ced1" stroke="#00ced1" cx="87.4648" cy="-347" rx="33.2948" ry="18"/>
<text text-anchor="middle" x="87.4648" y="-343.3" font-family="Times,serif" font-size="14.00" fill="#000000">Dump</text>
</a>
</g>
</g>
<!-- Dump&#45;&gt;Report_parameters -->
<g id="edge2" class="edge">
<title>Dump&#45;&gt;Report_parameters</title>
<path fill="none" stroke="#000000" d="M105.3535,-331.3028C162.5414,-281.1208 341.2232,-124.3288 410.5656,-63.4813"/>
<polygon fill="#000000" stroke="#000000" points="413.2565,-65.7766 418.4645,-56.5501 408.6395,-60.515 413.2565,-65.7766"/>
</g>
<!-- Dump&#45;&gt;Scan -->
<g id="edge3" class="edge">
<title>Dump&#45;&gt;Scan</title>
<path fill="none" stroke="#000000" d="M113.2746,-335.676C175.8971,-308.2006 335.8469,-238.0232 405.3677,-207.5212"/>
<polygon fill="#000000" stroke="#000000" points="407.1952,-210.5415 414.9463,-203.3186 404.3827,-204.1314 407.1952,-210.5415"/>
</g>
<!-- Csv -->
<g id="node5" class="node">
<title>Csv</title>
<g id="a_node5"><a xlink:href="Csv.html" xlink:title="Csv">
<ellipse fill="#00ced1" stroke="#00ced1" cx="293.4648" cy="-347" rx="27" ry="18"/>
<text text-anchor="middle" x="293.4648" y="-343.3" font-family="Times,serif" font-size="14.00" fill="#000000">Csv</text>
</a>
</g>
</g>
<!-- Csv&#45;&gt;Report_parameters -->
<g id="edge4" class="edge">
<title>Csv&#45;&gt;Report_parameters</title>
<path fill="none" stroke="#000000" d="M301.6761,-329.5581C325.7879,-278.3412 396.5154,-128.1062 425.6732,-66.1711"/>
<polygon fill="#000000" stroke="#000000" points="428.8896,-67.5561 429.9824,-57.0178 422.5563,-64.5745 428.8896,-67.5561"/>
</g>
<!-- Csv&#45;&gt;Scan -->
<g id="edge5" class="edge">
<title>Csv&#45;&gt;Scan</title>
<path fill="none" stroke="#000000" d="M307.898,-331.6709C333.3882,-304.5986 386.515,-248.1743 416.5504,-216.2745"/>
<polygon fill="#000000" stroke="#000000" points="419.3512,-218.4056 423.6582,-208.7256 414.2548,-213.607 419.3512,-218.4056"/>
</g>
<!-- Classify -->
<g id="node6" class="node">
<title>Classify</title>
<g id="a_node6"><a xlink:href="Classify.html" xlink:title="Classify">
<ellipse fill="#00ced1" stroke="#00ced1" cx="617.4648" cy="-347" rx="39.7935" ry="18"/>
<text text-anchor="middle" x="617.4648" y="-343.3" font-family="Times,serif" font-size="14.00" fill="#000000">Classify</text>
</a>
</g>
</g>
<!-- Classify&#45;&gt;Report_parameters -->
<g id="edge6" class="edge">
<title>Classify&#45;&gt;Report_parameters</title>
<path fill="none" stroke="#000000" d="M607.3281,-329.5581C577.5012,-278.2359 489.891,-127.4875 454.0343,-65.79"/>
<polygon fill="#000000" stroke="#000000" points="456.987,-63.905 448.9361,-57.0178 450.9349,-67.4224 456.987,-63.905"/>
</g>
<!-- Classify&#45;&gt;Scan -->
<g id="edge7" class="edge">
<title>Classify&#45;&gt;Scan</title>
<path fill="none" stroke="#000000" d="M598.647,-330.8104C566.1016,-302.8105 499.321,-245.3567 463.1144,-214.2069"/>
<polygon fill="#000000" stroke="#000000" points="465.3154,-211.4835 455.4521,-207.6148 460.7501,-216.7899 465.3154,-211.4835"/>
</g>
<!-- Register -->
<g id="node7" class="node">
<title>Register</title>
<g id="a_node7"><a xlink:href="Register.html" xlink:title="Register">
<ellipse fill="#00ced1" stroke="#00ced1" cx="438.4648" cy="-501" rx="40.0939" ry="18"/>
<text text-anchor="middle" x="438.4648" y="-497.3" font-family="Times,serif" font-size="14.00" fill="#000000">Register</text>
</a>
</g>
</g>
<!-- Register&#45;&gt;Report_parameters -->
<g id="edge9" class="edge">
<title>Register&#45;&gt;Report_parameters</title>
<path fill="none" stroke="#000000" d="M474.3038,-492.5126C546.1714,-473.4035 698.4069,-421.3092 666.4648,-329 626.5068,-213.5258 519.4664,-109.0935 467.5293,-63.3846"/>
<polygon fill="#000000" stroke="#000000" points="469.5272,-60.4835 459.6856,-56.5601 464.9324,-65.7645 469.5272,-60.4835"/>
</g>
<!-- Register&#45;&gt;Scan -->
<g id="edge10" class="edge">
<title>Register&#45;&gt;Scan</title>
<path fill="none" stroke="#000000" d="M438.4648,-482.6556C438.4648,-430.9777 438.4648,-283.9079 438.4648,-221.5293"/>
<polygon fill="#000000" stroke="#000000" points="441.9649,-221.2483 438.4648,-211.2483 434.9649,-221.2483 441.9649,-221.2483"/>
</g>
<!-- Register&#45;&gt;Dump -->
<g id="edge8" class="edge">
<title>Register&#45;&gt;Dump</title>
<path fill="none" stroke="#000000" d="M409.4423,-488.2665C345.4394,-460.1854 192.3568,-393.021 122.8606,-362.5298"/>
<polygon fill="#000000" stroke="#000000" points="124.1908,-359.2914 113.6271,-358.4787 121.3783,-365.7016 124.1908,-359.2914"/>
</g>
</g>
</svg>
