<?xml version="1.0" encoding="UTF-8" standalone="no"?>
<!DOCTYPE svg PUBLIC "-//W3C//DTD SVG 1.1//EN"
 "http://www.w3.org/Graphics/SVG/1.1/DTD/svg11.dtd">
<!-- Generated by graphviz version 2.40.1 (20161225.0304)
 -->
<!-- Title: Plugin architecture (loop_analysis) Pages: 1 -->
<svg width="718pt" height="540pt"
 viewBox="0.00 0.00 718.26 540.00" xmlns="http://www.w3.org/2000/svg" xmlns:xlink="http://www.w3.org/1999/xlink">
<g id="graph0" class="graph" transform="scale(.9854 .9854) rotate(0) translate(4 544)">
<title>Plugin architecture (loop_analysis)</title>
<polygon fill="#ffffff" stroke="transparent" points="-4,4 -4,-544 724.9028,-544 724.9028,4 -4,4"/>
<!-- LoopAnalysis -->
<g id="node1" class="node">
<title>LoopAnalysis</title>
<g id="a_node1"><a xlink:href="LoopAnalysis.html" xlink:title="LoopAnalysis">
<ellipse fill="#00ced1" stroke="#00ced1" cx="250.7752" cy="-515" rx="59.5901" ry="18"/>
<text text-anchor="middle" x="250.7752" y="-511.3" font-family="Times,serif" font-size="14.00" fill="#000000">LoopAnalysis</text>
</a>
</g>
</g>
<!-- Options -->
<g id="node2" class="node">
<title>Options</title>
<g id="a_node2"><a xlink:href="Options.html" xlink:title="Options">
<ellipse fill="#00ced1" stroke="#00ced1" cx="631.7752" cy="-221" rx="38.1938" ry="18"/>
<text text-anchor="middle" x="631.7752" y="-217.3" font-family="Times,serif" font-size="14.00" fill="#000000">Options</text>
</a>
</g>
</g>
<!-- Region_analysis_sig -->
<g id="node3" class="node">
<title>Region_analysis_sig</title>
<g id="a_node3"><a xlink:href="Region_analysis_sig.html" xlink:title="Region_analysis_sig">
<ellipse fill="#00ced1" stroke="#00ced1" cx="206.7752" cy="-25" rx="83.3857" ry="18"/>
<text text-anchor="middle" x="206.7752" y="-21.3" font-family="Times,serif" font-size="14.00" fill="#000000">Region_analysis_sig</text>
</a>
</g>
</g>
<!-- Region_analysis -->
<g id="node4" class="node">
<title>Region_analysis</title>
<g id="a_node4"><a xlink:href="Region_analysis.html" xlink:title="Region_analysis">
<ellipse fill="#00ced1" stroke="#00ced1" cx="206.7752" cy="-123" rx="68.7879" ry="18"/>
<text text-anchor="middle" x="206.7752" y="-119.3" font-family="Times,serif" font-size="14.00" fill="#000000">Region_analysis</text>
</a>
</g>
</g>
<!-- Region_analysis&#45;&gt;Region_analysis_sig -->
<g id="edge1" class="edge">
<title>Region_analysis&#45;&gt;Region_analysis_sig</title>
<path fill="none" stroke="#000000" d="M206.7752,-104.5669C206.7752,-90.1034 206.7752,-69.7239 206.7752,-53.2111"/>
<polygon fill="#000000" stroke="#000000" points="210.2753,-53.0193 206.7752,-43.0193 203.2753,-53.0193 210.2753,-53.0193"/>
</g>
<!-- Region_analysis_stmt -->
<g id="node5" class="node">
<title>Region_analysis_stmt</title>
<g id="a_node5"><a xlink:href="Region_analysis_stmt.html" xlink:title="Region_analysis_stmt">
<ellipse fill="#00ced1" stroke="#00ced1" cx="206.7752" cy="-221" rx="89.0842" ry="18"/>
<text text-anchor="middle" x="206.7752" y="-217.3" font-family="Times,serif" font-size="14.00" fill="#000000">Region_analysis_stmt</text>
</a>
</g>
</g>
<!-- Region_analysis_stmt&#45;&gt;Region_analysis -->
<g id="edge2" class="edge">
<title>Region_analysis_stmt&#45;&gt;Region_analysis</title>
<path fill="none" stroke="#000000" d="M206.7752,-202.5669C206.7752,-188.1034 206.7752,-167.7239 206.7752,-151.2111"/>
<polygon fill="#000000" stroke="#000000" points="210.2753,-151.0193 206.7752,-141.0193 203.2753,-151.0193 210.2753,-151.0193"/>
</g>
<!-- Loop_analysis -->
<g id="node6" class="node">
<title>Loop_analysis</title>
<g id="a_node6"><a xlink:href="Loop_analysis.html" xlink:title="Loop_analysis">
<ellipse fill="#00ced1" stroke="#00ced1" cx="415.7752" cy="-319" rx="61.99" ry="18"/>
<text text-anchor="middle" x="415.7752" y="-315.3" font-family="Times,serif" font-size="14.00" fill="#000000">Loop_analysis</text>
</a>
</g>
</g>
<!-- Loop_analysis&#45;&gt;Options -->
<g id="edge3" class="edge">
<title>Loop_analysis&#45;&gt;Options</title>
<path fill="none" stroke="#000000" d="M449.5252,-303.6875C488.96,-285.7958 553.9931,-256.29 594.7744,-237.7874"/>
<polygon fill="#000000" stroke="#000000" points="596.4288,-240.8802 604.0893,-233.5612 593.5366,-234.5056 596.4288,-240.8802"/>
</g>
<!-- Loop_analysis&#45;&gt;Region_analysis -->
<g id="edge4" class="edge">
<title>Loop_analysis&#45;&gt;Region_analysis</title>
<path fill="none" stroke="#000000" d="M400.2288,-301.453C379.3148,-278.1575 340.5982,-236.1072 304.7752,-203 283.0406,-182.9132 257.0347,-161.8074 237.2758,-146.3207"/>
<polygon fill="#000000" stroke="#000000" points="239.2609,-143.4305 229.2208,-140.047 234.9595,-148.9531 239.2609,-143.4305"/>
</g>
<!-- Loop_analysis&#45;&gt;Region_analysis_stmt -->
<g id="edge5" class="edge">
<title>Loop_analysis&#45;&gt;Region_analysis_stmt</title>
<path fill="none" stroke="#000000" d="M383.1189,-303.6875C347.7256,-287.0916 291.0213,-260.5029 251.5012,-241.972"/>
<polygon fill="#000000" stroke="#000000" points="252.8876,-238.7565 242.3476,-237.6799 249.9157,-245.0943 252.8876,-238.7565"/>
</g>
<!-- Slevel_analysis -->
<g id="node7" class="node">
<title>Slevel_analysis</title>
<g id="a_node7"><a xlink:href="Slevel_analysis.html" xlink:title="Slevel_analysis">
<ellipse fill="#00ced1" stroke="#00ced1" cx="306.7752" cy="-417" rx="65.7887" ry="18"/>
<text text-anchor="middle" x="306.7752" y="-413.3" font-family="Times,serif" font-size="14.00" fill="#000000">Slevel_analysis</text>
</a>
</g>
</g>
<!-- Slevel_analysis&#45;&gt;Options -->
<g id="edge8" class="edge">
<title>Slevel_analysis&#45;&gt;Options</title>
<path fill="none" stroke="#000000" d="M346.8509,-402.6068C384.3264,-388.3665 441.1969,-364.7242 486.7752,-337 532.1486,-309.4004 579.1707,-269.286 606.9303,-244.1926"/>
<polygon fill="#000000" stroke="#000000" points="609.5376,-246.5517 614.5677,-237.2271 604.8205,-241.3797 609.5376,-246.5517"/>
</g>
<!-- Slevel_analysis&#45;&gt;Region_analysis -->
<g id="edge7" class="edge">
<title>Slevel_analysis&#45;&gt;Region_analysis</title>
<path fill="none" stroke="#000000" d="M276.4371,-400.8984C230.0651,-374.3376 143.305,-316.4737 108.7752,-239 91.9281,-201.2005 132.5877,-166.1424 166.565,-144.6757"/>
<polygon fill="#000000" stroke="#000000" points="168.7474,-147.4447 175.4679,-139.2541 165.1065,-141.466 168.7474,-147.4447"/>
</g>
<!-- Slevel_analysis&#45;&gt;Region_analysis_stmt -->
<g id="edge6" class="edge">
<title>Slevel_analysis&#45;&gt;Region_analysis_stmt</title>
<path fill="none" stroke="#000000" d="M297.5467,-398.9121C279.9102,-364.3445 241.3327,-288.7328 220.6029,-248.1024"/>
<polygon fill="#000000" stroke="#000000" points="223.6438,-246.3611 215.9814,-239.0442 217.4085,-249.5425 223.6438,-246.3611"/>
</g>
<!-- Slevel_analysis&#45;&gt;Loop_analysis -->
<g id="edge9" class="edge">
<title>Slevel_analysis&#45;&gt;Loop_analysis</title>
<path fill="none" stroke="#000000" d="M326.0113,-399.7052C343.4152,-384.0576 369.2271,-360.8506 388.7105,-343.3334"/>
<polygon fill="#000000" stroke="#000000" points="391.2685,-345.7402 396.3648,-336.4516 386.5883,-340.5348 391.2685,-345.7402"/>
</g>
<!-- Register -->
<g id="node8" class="node">
<title>Register</title>
<g id="a_node8"><a xlink:href="Register.html" xlink:title="Register">
<ellipse fill="#00ced1" stroke="#00ced1" cx="524.7752" cy="-515" rx="40.0939" ry="18"/>
<text text-anchor="middle" x="524.7752" y="-511.3" font-family="Times,serif" font-size="14.00" fill="#000000">Register</text>
</a>
</g>
</g>
<!-- Register&#45;&gt;Options -->
<g id="edge11" class="edge">
<title>Register&#45;&gt;Options</title>
<path fill="none" stroke="#000000" d="M531.3075,-497.0516C549.3651,-447.4353 600.0522,-308.1641 621.7329,-248.5929"/>
<polygon fill="#000000" stroke="#000000" points="625.0614,-249.6811 625.1925,-239.0871 618.4835,-247.2871 625.0614,-249.6811"/>
</g>
<!-- Register&#45;&gt;Loop_analysis -->
<g id="edge12" class="edge">
<title>Register&#45;&gt;Loop_analysis</title>
<path fill="none" stroke="#000000" d="M514.9099,-497.2606C495.7059,-462.7285 453.2077,-386.3098 430.5978,-345.6536"/>
<polygon fill="#000000" stroke="#000000" points="433.6158,-343.8789 425.6967,-336.8405 427.4982,-347.2811 433.6158,-343.8789"/>
</g>
<!-- Register&#45;&gt;Slevel_analysis -->
<g id="edge10" class="edge">
<title>Register&#45;&gt;Slevel_analysis</title>
<path fill="none" stroke="#000000" d="M496.2755,-502.1882C459.0724,-485.4639 393.6006,-456.0316 350.2018,-436.5221"/>
<polygon fill="#000000" stroke="#000000" points="351.5809,-433.3046 341.025,-432.3967 348.7107,-439.6892 351.5809,-433.3046"/>
</g>
</g>
</svg>
