<?xml version="1.0" encoding="UTF-8" standalone="no"?>
<!DOCTYPE svg PUBLIC "-//W3C//DTD SVG 1.1//EN"
 "http://www.w3.org/Graphics/SVG/1.1/DTD/svg11.dtd">
<!-- Generated by graphviz version 2.40.1 (20161225.0304)
 -->
<!-- Title: Plugin architecture (callgraph) Pages: 1 -->
<svg width="720pt" height="535pt"
 viewBox="0.00 0.00 720.00 535.42" xmlns="http://www.w3.org/2000/svg" xmlns:xlink="http://www.w3.org/1999/xlink">
<g id="graph0" class="graph" transform="scale(.977 .977) rotate(0) translate(4 544)">
<title>Plugin architecture (callgraph)</title>
<polygon fill="#ffffff" stroke="transparent" points="-4,4 -4,-544 732.9132,-544 732.9132,4 -4,4"/>
<!-- Callgraph -->
<g id="node1" class="node">
<title>Callgraph</title>
<g id="a_node1"><a xlink:href="Callgraph.html" xlink:title="Callgraph">
<ellipse fill="#00ced1" stroke="#00ced1" cx="246.201" cy="-510" rx="45.4919" ry="18"/>
<text text-anchor="middle" x="246.201" y="-506.3" font-family="Times,serif" font-size="14.00" fill="#000000">Callgraph</text>
</a>
</g>
</g>
<!-- Uses -->
<g id="node2" class="node">
<title>Uses</title>
<g id="a_node2"><a xlink:href="Uses.html" xlink:title="Uses">
<ellipse fill="#00ced1" stroke="#00ced1" cx="148.201" cy="-390" rx="27.8951" ry="18"/>
<text text-anchor="middle" x="148.201" y="-386.3" font-family="Times,serif" font-size="14.00" fill="#000000">Uses</text>
</a>
</g>
</g>
<!-- Callgraph&#45;&gt;Uses -->
<g id="edge1" class="edge">
<title>Callgraph&#45;&gt;Uses</title>
<path fill="none" stroke="#000000" d="M232.16,-492.8069C215.285,-472.1437 186.8677,-437.3469 167.828,-414.033"/>
<polygon fill="#000000" stroke="#000000" points="170.3127,-411.5421 161.2764,-406.0107 164.8909,-415.9699 170.3127,-411.5421"/>
</g>
<!-- Services -->
<g id="node3" class="node">
<title>Services</title>
<g id="a_node3"><a xlink:href="Services.html" xlink:title="Services">
<ellipse fill="#00ced1" stroke="#00ced1" cx="498.201" cy="-390" rx="40.0939" ry="18"/>
<text text-anchor="middle" x="498.201" y="-386.3" font-family="Times,serif" font-size="14.00" fill="#000000">Services</text>
</a>
</g>
</g>
<!-- Callgraph&#45;&gt;Services -->
<g id="edge2" class="edge">
<title>Callgraph&#45;&gt;Services</title>
<path fill="none" stroke="#000000" d="M275.6018,-495.9996C321.7075,-474.0445 410.9394,-431.5532 461.2952,-407.5742"/>
<polygon fill="#000000" stroke="#000000" points="463.0011,-410.6385 470.525,-403.1791 459.9916,-404.3185 463.0011,-410.6385"/>
</g>
<!-- Cg -->
<g id="node4" class="node">
<title>Cg</title>
<g id="a_node4"><a xlink:href="Cg.html" xlink:title="Cg">
<ellipse fill="#00ced1" stroke="#00ced1" cx="290.201" cy="-270" rx="27" ry="18"/>
<text text-anchor="middle" x="290.201" y="-266.3" font-family="Times,serif" font-size="14.00" fill="#000000">Cg</text>
</a>
</g>
</g>
<!-- Callgraph&#45;&gt;Cg -->
<g id="edge3" class="edge">
<title>Callgraph&#45;&gt;Cg</title>
<path fill="none" stroke="#000000" d="M249.5082,-491.961C257.1236,-450.4225 275.9422,-347.7753 285.0708,-297.9828"/>
<polygon fill="#000000" stroke="#000000" points="288.5548,-298.3882 286.9155,-287.9209 281.6695,-297.1258 288.5548,-298.3882"/>
</g>
<!-- Uses&#45;&gt;Cg -->
<g id="edge14" class="edge">
<title>Uses&#45;&gt;Cg</title>
<path fill="none" stroke="#000000" d="M165.3295,-375.5252C190.3048,-354.4194 236.8546,-315.0815 265.5234,-290.8543"/>
<polygon fill="#000000" stroke="#000000" points="268.0739,-293.2814 273.4527,-284.1535 263.5556,-287.9349 268.0739,-293.2814"/>
</g>
<!-- Options -->
<g id="node5" class="node">
<title>Options</title>
<g id="a_node5"><a xlink:href="Options.html" xlink:title="Options">
<ellipse fill="#00ced1" stroke="#00ced1" cx="366.201" cy="-30" rx="38.1938" ry="18"/>
<text text-anchor="middle" x="366.201" y="-26.3" font-family="Times,serif" font-size="14.00" fill="#000000">Options</text>
</a>
</g>
</g>
<!-- Uses&#45;&gt;Options -->
<g id="edge15" class="edge">
<title>Uses&#45;&gt;Options</title>
<path fill="none" stroke="#000000" d="M130.557,-375.8907C82.0023,-335.378 -45.921,-216.211 17.201,-132 53.6741,-83.3413 232.9281,-50.1497 319.3874,-36.7051"/>
<polygon fill="#000000" stroke="#000000" points="320.1002,-40.1368 329.4553,-35.1637 319.0408,-33.2174 320.1002,-40.1368"/>
</g>
<!-- Services&#45;&gt;Cg -->
<g id="edge9" class="edge">
<title>Services&#45;&gt;Cg</title>
<path fill="none" stroke="#000000" d="M473.5239,-375.7632C435.0066,-353.5417 360.7501,-310.7014 319.5477,-286.9308"/>
<polygon fill="#000000" stroke="#000000" points="321.2071,-283.8474 310.7962,-281.8818 317.709,-289.9107 321.2071,-283.8474"/>
</g>
<!-- Services&#45;&gt;Options -->
<g id="edge11" class="edge">
<title>Services&#45;&gt;Options</title>
<path fill="none" stroke="#000000" d="M512.0774,-373.0331C545.6425,-329.8088 624.8401,-213.2328 574.201,-132 538.9689,-75.4823 462.2877,-49.4034 412.5208,-38.0323"/>
<polygon fill="#000000" stroke="#000000" points="413.1556,-34.5887 402.6405,-35.8864 411.6698,-41.4292 413.1556,-34.5887"/>
</g>
<!-- Journalize -->
<g id="node6" class="node">
<title>Journalize</title>
<g id="a_node6"><a xlink:href="Journalize.html" xlink:title="Journalize">
<ellipse fill="#00ced1" stroke="#00ced1" cx="518.201" cy="-150" rx="46.5926" ry="18"/>
<text text-anchor="middle" x="518.201" y="-146.3" font-family="Times,serif" font-size="14.00" fill="#000000">Journalize</text>
</a>
</g>
</g>
<!-- Services&#45;&gt;Journalize -->
<g id="edge10" class="edge">
<title>Services&#45;&gt;Journalize</title>
<path fill="none" stroke="#000000" d="M499.7043,-371.961C503.1574,-330.5241 511.678,-228.2769 515.8386,-178.349"/>
<polygon fill="#000000" stroke="#000000" points="519.3377,-178.5045 516.6803,-168.2483 512.3619,-177.9231 519.3377,-178.5045"/>
</g>
<!-- Subgraph -->
<g id="node7" class="node">
<title>Subgraph</title>
<g id="a_node7"><a xlink:href="Subgraph.html" xlink:title="Subgraph">
<ellipse fill="#00ced1" stroke="#00ced1" cx="85.201" cy="-150" rx="44.393" ry="18"/>
<text text-anchor="middle" x="85.201" y="-146.3" font-family="Times,serif" font-size="14.00" fill="#000000">Subgraph</text>
</a>
</g>
</g>
<!-- Services&#45;&gt;Subgraph -->
<g id="edge12" class="edge">
<title>Services&#45;&gt;Subgraph</title>
<path fill="none" stroke="#000000" d="M480.8474,-373.3271C451.1129,-345.419 387.6695,-288.7014 326.201,-252 261.2875,-213.2417 178.9346,-181.7729 129.2424,-164.4934"/>
<polygon fill="#000000" stroke="#000000" points="130.3489,-161.1728 119.7542,-161.2288 128.0714,-167.792 130.3489,-161.1728"/>
</g>
<!-- Callgraph_api -->
<g id="node8" class="node">
<title>Callgraph_api</title>
<g id="a_node8"><a xlink:href="Callgraph_api.html" xlink:title="Callgraph_api">
<ellipse fill="#00ced1" stroke="#00ced1" cx="300.201" cy="-150" rx="60.3893" ry="18"/>
<text text-anchor="middle" x="300.201" y="-146.3" font-family="Times,serif" font-size="14.00" fill="#000000">Callgraph_api</text>
</a>
</g>
</g>
<!-- Services&#45;&gt;Callgraph_api -->
<g id="edge13" class="edge">
<title>Services&#45;&gt;Callgraph_api</title>
<path fill="none" stroke="#000000" d="M486.9697,-372.3573C469.5687,-345.4669 434.5108,-293.0245 400.201,-252 376.6798,-223.8754 346.974,-194.2162 326.0718,-174.1751"/>
<polygon fill="#000000" stroke="#000000" points="328.4525,-171.609 318.7971,-167.2473 323.6251,-176.6782 328.4525,-171.609"/>
</g>
<!-- Cg&#45;&gt;Options -->
<g id="edge6" class="edge">
<title>Cg&#45;&gt;Options</title>
<path fill="none" stroke="#000000" d="M263.4539,-266.7303C185.5655,-256.1246 -31.6416,-218.2502 32.201,-132 66.6985,-85.3946 236.0993,-51.4914 319.5575,-37.3266"/>
<polygon fill="#000000" stroke="#000000" points="320.2502,-40.7594 329.5358,-35.6577 319.0954,-33.8553 320.2502,-40.7594"/>
</g>
<!-- Cg&#45;&gt;Journalize -->
<g id="edge5" class="edge">
<title>Cg&#45;&gt;Journalize</title>
<path fill="none" stroke="#000000" d="M311.6507,-258.7107C350.519,-238.2537 433.0183,-194.833 481.1621,-169.4942"/>
<polygon fill="#000000" stroke="#000000" points="483.0907,-172.4344 490.3097,-164.6796 479.8304,-166.2399 483.0907,-172.4344"/>
</g>
<!-- Cg&#45;&gt;Subgraph -->
<g id="edge7" class="edge">
<title>Cg&#45;&gt;Subgraph</title>
<path fill="none" stroke="#000000" d="M269.7954,-258.0552C234.6232,-237.4666 162.2329,-195.0918 119.2987,-169.9596"/>
<polygon fill="#000000" stroke="#000000" points="121.0063,-166.9037 110.608,-164.8724 117.4701,-172.9448 121.0063,-166.9037"/>
</g>
<!-- Cg&#45;&gt;Callgraph_api -->
<g id="edge8" class="edge">
<title>Cg&#45;&gt;Callgraph_api</title>
<path fill="none" stroke="#000000" d="M291.7198,-251.7746C293.3518,-232.1904 295.9662,-200.8184 297.8612,-178.0776"/>
<polygon fill="#000000" stroke="#000000" points="301.3581,-178.2599 298.7007,-168.0037 294.3823,-177.6785 301.3581,-178.2599"/>
</g>
<!-- Subgraph&#45;&gt;Options -->
<g id="edge4" class="edge">
<title>Subgraph&#45;&gt;Options</title>
<path fill="none" stroke="#000000" d="M115.8079,-136.9295C167.577,-114.8217 272.2667,-70.1143 328.4839,-46.107"/>
<polygon fill="#000000" stroke="#000000" points="329.9123,-49.3028 337.7343,-42.1566 327.1632,-42.8652 329.9123,-49.3028"/>
</g>
<!-- Register -->
<g id="node9" class="node">
<title>Register</title>
<g id="a_node9"><a xlink:href="Register.html" xlink:title="Register">
<ellipse fill="#00ced1" stroke="#00ced1" cx="658.201" cy="-510" rx="40.0939" ry="18"/>
<text text-anchor="middle" x="658.201" y="-506.3" font-family="Times,serif" font-size="14.00" fill="#000000">Register</text>
</a>
</g>
</g>
<!-- Register&#45;&gt;Services -->
<g id="edge16" class="edge">
<title>Register&#45;&gt;Services</title>
<path fill="none" stroke="#000000" d="M637.2838,-494.3121C609.0576,-473.1424 558.6602,-435.3444 526.9067,-411.5293"/>
<polygon fill="#000000" stroke="#000000" points="528.9699,-408.7016 518.8698,-405.5016 524.7698,-414.3016 528.9699,-408.7016"/>
</g>
<!-- Register&#45;&gt;Cg -->
<g id="edge18" class="edge">
<title>Register&#45;&gt;Cg</title>
<path fill="none" stroke="#000000" d="M627.8038,-498.1188C585.8985,-481.0948 508.8045,-447.428 449.201,-408 396.0311,-372.8278 341.507,-321.5253 312.1541,-292.3978"/>
<polygon fill="#000000" stroke="#000000" points="314.4521,-289.7459 304.907,-285.1478 309.5013,-294.6947 314.4521,-289.7459"/>
</g>
<!-- Register&#45;&gt;Options -->
<g id="edge17" class="edge">
<title>Register&#45;&gt;Options</title>
<path fill="none" stroke="#000000" d="M662.0587,-491.919C673.4999,-433.1364 701.381,-244.7411 616.201,-132 567.6843,-67.785 471.7955,-43.8247 413.8994,-35.0077"/>
<polygon fill="#000000" stroke="#000000" points="414.2951,-31.5288 403.9003,-33.5779 413.3041,-38.4583 414.2951,-31.5288"/>
</g>
<!-- Cg_viewer -->
<g id="node10" class="node">
<title>Cg_viewer</title>
<g id="a_node10"><a xlink:href="Cg_viewer.html" xlink:title="Cg_viewer">
<ellipse fill="#00ced1" stroke="#00ced1" cx="470.201" cy="-510" rx="49.2915" ry="18"/>
<text text-anchor="middle" x="470.201" y="-506.3" font-family="Times,serif" font-size="14.00" fill="#000000">Cg_viewer</text>
</a>
</g>
</g>
<!-- Cg_viewer&#45;&gt;Services -->
<g id="edge19" class="edge">
<title>Cg_viewer&#45;&gt;Services</title>
<path fill="none" stroke="#000000" d="M474.3929,-492.0348C478.9704,-472.4169 486.3592,-440.7505 491.6923,-417.8945"/>
<polygon fill="#000000" stroke="#000000" points="495.1166,-418.6218 493.9805,-408.088 488.2997,-417.0311 495.1166,-418.6218"/>
</g>
<!-- Cg_viewer&#45;&gt;Cg -->
<g id="edge21" class="edge">
<title>Cg_viewer&#45;&gt;Cg</title>
<path fill="none" stroke="#000000" d="M449.8456,-493.5075C427.2753,-474.523 390.6941,-441.6142 365.201,-408 338.2277,-372.4339 315.0833,-325.9256 301.9004,-297.0119"/>
<polygon fill="#000000" stroke="#000000" points="304.9492,-295.2569 297.6629,-287.5653 298.5623,-298.1219 304.9492,-295.2569"/>
</g>
<!-- Cg_viewer&#45;&gt;Options -->
<g id="edge20" class="edge">
<title>Cg_viewer&#45;&gt;Options</title>
<path fill="none" stroke="#000000" d="M485.6101,-492.8304C533.928,-436.8399 674.5885,-256.028 594.201,-132 554.4289,-70.6365 468.1226,-45.8567 413.8455,-36.0901"/>
<polygon fill="#000000" stroke="#000000" points="414.2155,-32.603 403.7713,-34.3831 413.046,-39.5047 414.2155,-32.603"/>
</g>
</g>
</svg>
