<?xml version="1.0" encoding="UTF-8" standalone="no"?>
<!DOCTYPE svg PUBLIC "-//W3C//DTD SVG 1.1//EN"
 "http://www.w3.org/Graphics/SVG/1.1/DTD/svg11.dtd">
<!-- Generated by graphviz version 2.40.1 (20161225.0304)
 -->
<!-- Title: Plugin architecture (markdown&#45;report) Pages: 1 -->
<svg width="720pt" height="536pt"
 viewBox="0.00 0.00 720.00 536.04" xmlns="http://www.w3.org/2000/svg" xmlns:xlink="http://www.w3.org/1999/xlink">
<g id="graph0" class="graph" transform="scale(.9782 .9782) rotate(0) translate(4 544)">
<title>Plugin architecture (markdown&#45;report)</title>
<polygon fill="#ffffff" stroke="transparent" points="-4,4 -4,-544 732.0706,-544 732.0706,4 -4,4"/>
<!-- Markdown_report -->
<g id="node1" class="node">
<title>Markdown_report</title>
<g id="a_node1"><a xlink:href="Markdown_report.html" xlink:title="Markdown_report">
<ellipse fill="#00ced1" stroke="#00ced1" cx="108.1333" cy="-501" rx="75.2868" ry="18"/>
<text text-anchor="middle" x="108.1333" y="-497.3" font-family="Times,serif" font-size="14.00" fill="#000000">Markdown_report</text>
</a>
</g>
</g>
<!-- Sarif -->
<g id="node2" class="node">
<title>Sarif</title>
<g id="a_node2"><a xlink:href="Sarif.html" xlink:title="Sarif">
<ellipse fill="#00ced1" stroke="#00ced1" cx="680.1333" cy="-193" rx="27.8951" ry="18"/>
<text text-anchor="middle" x="680.1333" y="-189.3" font-family="Times,serif" font-size="14.00" fill="#000000">Sarif</text>
</a>
</g>
</g>
<!-- Mdr_params -->
<g id="node3" class="node">
<title>Mdr_params</title>
<g id="a_node3"><a xlink:href="Mdr_params.html" xlink:title="Mdr_params">
<ellipse fill="#00ced1" stroke="#00ced1" cx="323.1333" cy="-39" rx="56.59" ry="18"/>
<text text-anchor="middle" x="323.1333" y="-35.3" font-family="Times,serif" font-size="14.00" fill="#000000">Mdr_params</text>
</a>
</g>
</g>
<!-- Parse_remarks -->
<g id="node4" class="node">
<title>Parse_remarks</title>
<g id="a_node4"><a xlink:href="Parse_remarks.html" xlink:title="Parse_remarks">
<ellipse fill="#00ced1" stroke="#00ced1" cx="525.1333" cy="-193" rx="63.0888" ry="18"/>
<text text-anchor="middle" x="525.1333" y="-189.3" font-family="Times,serif" font-size="14.00" fill="#000000">Parse_remarks</text>
</a>
</g>
</g>
<!-- Parse_remarks&#45;&gt;Mdr_params -->
<g id="edge1" class="edge">
<title>Parse_remarks&#45;&gt;Mdr_params</title>
<path fill="none" stroke="#000000" d="M502.744,-175.9309C466.2258,-148.0903 393.826,-92.8944 352.9797,-61.7542"/>
<polygon fill="#000000" stroke="#000000" points="355.0834,-58.9569 345.0089,-55.6774 350.8394,-64.5237 355.0834,-58.9569"/>
</g>
<!-- Eva_coverage -->
<g id="node5" class="node">
<title>Eva_coverage</title>
<g id="a_node5"><a xlink:href="Eva_coverage.html" xlink:title="Eva_coverage">
<ellipse fill="#00ced1" stroke="#00ced1" cx="323.1333" cy="-193" rx="60.3893" ry="18"/>
<text text-anchor="middle" x="323.1333" y="-189.3" font-family="Times,serif" font-size="14.00" fill="#000000">Eva_coverage</text>
</a>
</g>
</g>
<!-- Eva_coverage&#45;&gt;Mdr_params -->
<g id="edge2" class="edge">
<title>Eva_coverage&#45;&gt;Mdr_params</title>
<path fill="none" stroke="#000000" d="M323.1333,-174.7294C323.1333,-148.2167 323.1333,-98.8331 323.1333,-67.507"/>
<polygon fill="#000000" stroke="#000000" points="326.6334,-67.2468 323.1333,-57.2468 319.6334,-67.2468 326.6334,-67.2468"/>
</g>
<!-- Md_gen -->
<g id="node6" class="node">
<title>Md_gen</title>
<g id="a_node6"><a xlink:href="Md_gen.html" xlink:title="Md_gen">
<ellipse fill="#00ced1" stroke="#00ced1" cx="323.1333" cy="-347" rx="40.0939" ry="18"/>
<text text-anchor="middle" x="323.1333" y="-343.3" font-family="Times,serif" font-size="14.00" fill="#000000">Md_gen</text>
</a>
</g>
</g>
<!-- Md_gen&#45;&gt;Mdr_params -->
<g id="edge4" class="edge">
<title>Md_gen&#45;&gt;Mdr_params</title>
<path fill="none" stroke="#000000" d="M310.873,-329.5824C294.1721,-304.6811 265.0954,-256.8348 254.1333,-211 241.2177,-156.9972 277.0732,-97.6382 301.8129,-64.6864"/>
<polygon fill="#000000" stroke="#000000" points="304.7885,-66.5599 308.1363,-56.5079 299.2507,-62.2783 304.7885,-66.5599"/>
</g>
<!-- Md_gen&#45;&gt;Parse_remarks -->
<g id="edge5" class="edge">
<title>Md_gen&#45;&gt;Parse_remarks</title>
<path fill="none" stroke="#000000" d="M343.6138,-331.3862C379.2717,-304.2014 452.9262,-248.049 494.6198,-216.2627"/>
<polygon fill="#000000" stroke="#000000" points="496.9286,-218.9038 502.7591,-210.0575 492.6846,-213.337 496.9286,-218.9038"/>
</g>
<!-- Md_gen&#45;&gt;Eva_coverage -->
<g id="edge3" class="edge">
<title>Md_gen&#45;&gt;Eva_coverage</title>
<path fill="none" stroke="#000000" d="M323.1333,-328.7294C323.1333,-302.2167 323.1333,-252.8331 323.1333,-221.507"/>
<polygon fill="#000000" stroke="#000000" points="326.6334,-221.2468 323.1333,-211.2468 319.6334,-221.2468 326.6334,-221.2468"/>
</g>
<!-- Sarif_gen -->
<g id="node7" class="node">
<title>Sarif_gen</title>
<g id="a_node7"><a xlink:href="Sarif_gen.html" xlink:title="Sarif_gen">
<ellipse fill="#00ced1" stroke="#00ced1" cx="602.1333" cy="-347" rx="44.6926" ry="18"/>
<text text-anchor="middle" x="602.1333" y="-343.3" font-family="Times,serif" font-size="14.00" fill="#000000">Sarif_gen</text>
</a>
</g>
</g>
<!-- Sarif_gen&#45;&gt;Sarif -->
<g id="edge8" class="edge">
<title>Sarif_gen&#45;&gt;Sarif</title>
<path fill="none" stroke="#000000" d="M611.0809,-329.3342C624.7163,-302.4131 650.7874,-250.9394 666.7021,-219.518"/>
<polygon fill="#000000" stroke="#000000" points="669.8939,-220.9622 671.2901,-210.4597 663.6492,-217.7993 669.8939,-220.9622"/>
</g>
<!-- Sarif_gen&#45;&gt;Mdr_params -->
<g id="edge6" class="edge">
<title>Sarif_gen&#45;&gt;Mdr_params</title>
<path fill="none" stroke="#000000" d="M626.2189,-331.6064C670.6819,-301.2634 757.5787,-231.748 717.1333,-175 677.3915,-119.2393 481.0858,-71.5972 381.418,-50.5437"/>
<polygon fill="#000000" stroke="#000000" points="382.0062,-47.0911 371.5014,-48.4694 380.573,-53.9428 382.0062,-47.0911"/>
</g>
<!-- Sarif_gen&#45;&gt;Parse_remarks -->
<g id="edge7" class="edge">
<title>Sarif_gen&#45;&gt;Parse_remarks</title>
<path fill="none" stroke="#000000" d="M593.3004,-329.3342C579.9115,-302.5563 554.3765,-251.4863 538.6439,-220.0211"/>
<polygon fill="#000000" stroke="#000000" points="541.703,-218.3131 534.1003,-210.9341 535.442,-221.4436 541.703,-218.3131"/>
</g>
<!-- Mdr_register -->
<g id="node8" class="node">
<title>Mdr_register</title>
<g id="a_node8"><a xlink:href="Mdr_register.html" xlink:title="Mdr_register">
<ellipse fill="#00ced1" stroke="#00ced1" cx="323.1333" cy="-501" rx="57.3905" ry="18"/>
<text text-anchor="middle" x="323.1333" y="-497.3" font-family="Times,serif" font-size="14.00" fill="#000000">Mdr_register</text>
</a>
</g>
</g>
<!-- Mdr_register&#45;&gt;Mdr_params -->
<g id="edge10" class="edge">
<title>Mdr_register&#45;&gt;Mdr_params</title>
<path fill="none" stroke="#000000" d="M312.9063,-483.2524C285.8799,-434.0771 216.666,-291.9763 247.1333,-175 257.9744,-133.3765 284.6731,-90.9863 303.345,-64.8433"/>
<polygon fill="#000000" stroke="#000000" points="306.2734,-66.7677 309.3351,-56.6248 300.6165,-62.6446 306.2734,-66.7677"/>
</g>
<!-- Mdr_register&#45;&gt;Md_gen -->
<g id="edge9" class="edge">
<title>Mdr_register&#45;&gt;Md_gen</title>
<path fill="none" stroke="#000000" d="M323.1333,-482.7294C323.1333,-456.2167 323.1333,-406.8331 323.1333,-375.507"/>
<polygon fill="#000000" stroke="#000000" points="326.6334,-375.2468 323.1333,-365.2468 319.6334,-375.2468 326.6334,-375.2468"/>
</g>
<!-- Mdr_register&#45;&gt;Sarif_gen -->
<g id="edge11" class="edge">
<title>Mdr_register&#45;&gt;Sarif_gen</title>
<path fill="none" stroke="#000000" d="M351.68,-485.243C402.9878,-456.9226 510.6479,-397.4973 566.6257,-366.5992"/>
<polygon fill="#000000" stroke="#000000" points="568.4119,-369.6111 575.4754,-361.7144 565.0292,-363.4827 568.4119,-369.6111"/>
</g>
</g>
</svg>
