<?xml version="1.0" encoding="UTF-8" standalone="no"?>
<!DOCTYPE svg PUBLIC "-//W3C//DTD SVG 1.1//EN"
 "http://www.w3.org/Graphics/SVG/1.1/DTD/svg11.dtd">
<!-- Generated by graphviz version 2.40.1 (20161225.0304)
 -->
<!-- Title: Plugin architecture (slicing) Pages: 1 -->
<svg width="720pt" height="344pt"
 viewBox="0.00 0.00 720.00 343.61" xmlns="http://www.w3.org/2000/svg" xmlns:xlink="http://www.w3.org/1999/xlink">
<g id="graph0" class="graph" transform="scale(.411 .411) rotate(0) translate(4 832)">
<title>Plugin architecture (slicing)</title>
<polygon fill="#ffffff" stroke="transparent" points="-4,4 -4,-832 1747.766,-832 1747.766,4 -4,4"/>
<!-- Slicing -->
<g id="node1" class="node">
<title>Slicing</title>
<g id="a_node1"><a xlink:href="Slicing.html" xlink:title="Slicing">
<ellipse fill="#00ced1" stroke="#00ced1" cx="902.766" cy="-810" rx="35.9954" ry="18"/>
<text text-anchor="middle" x="902.766" y="-806.3" font-family="Times,serif" font-size="14.00" fill="#000000">Slicing</text>
</a>
</g>
</g>
<!-- SlicingInternals -->
<g id="node2" class="node">
<title>SlicingInternals</title>
<g id="a_node2"><a xlink:href="SlicingInternals.html" xlink:title="SlicingInternals">
<ellipse fill="#00ced1" stroke="#00ced1" cx="778.766" cy="-18" rx="66.0889" ry="18"/>
<text text-anchor="middle" x="778.766" y="-14.3" font-family="Times,serif" font-size="14.00" fill="#000000">SlicingInternals</text>
</a>
</g>
</g>
<!-- SlicingTypes -->
<g id="node3" class="node">
<title>SlicingTypes</title>
<g id="a_node3"><a xlink:href="SlicingTypes.html" xlink:title="SlicingTypes">
<ellipse fill="#00ced1" stroke="#00ced1" cx="646.766" cy="-90" rx="57.3905" ry="18"/>
<text text-anchor="middle" x="646.766" y="-86.3" font-family="Times,serif" font-size="14.00" fill="#000000">SlicingTypes</text>
</a>
</g>
</g>
<!-- SlicingTypes&#45;&gt;SlicingInternals -->
<g id="edge1" class="edge">
<title>SlicingTypes&#45;&gt;SlicingInternals</title>
<path fill="none" stroke="#000000" d="M675.408,-74.3771C694.2984,-64.0732 719.277,-50.4485 739.9462,-39.1744"/>
<polygon fill="#000000" stroke="#000000" points="741.7024,-42.2033 748.8054,-34.3421 738.3504,-36.0581 741.7024,-42.2033"/>
</g>
<!-- SlicingParameters -->
<g id="node4" class="node">
<title>SlicingParameters</title>
<g id="a_node4"><a xlink:href="SlicingParameters.html" xlink:title="SlicingParameters">
<ellipse fill="#00ced1" stroke="#00ced1" cx="1406.766" cy="-90" rx="75.2868" ry="18"/>
<text text-anchor="middle" x="1406.766" y="-86.3" font-family="Times,serif" font-size="14.00" fill="#000000">SlicingParameters</text>
</a>
</g>
</g>
<!-- SlicingState -->
<g id="node5" class="node">
<title>SlicingState</title>
<g id="a_node5"><a xlink:href="SlicingState.html" xlink:title="SlicingState">
<ellipse fill="#00ced1" stroke="#00ced1" cx="646.766" cy="-162" rx="53.0913" ry="18"/>
<text text-anchor="middle" x="646.766" y="-158.3" font-family="Times,serif" font-size="14.00" fill="#000000">SlicingState</text>
</a>
</g>
</g>
<!-- SlicingState&#45;&gt;SlicingInternals -->
<g id="edge2" class="edge">
<title>SlicingState&#45;&gt;SlicingInternals</title>
<path fill="none" stroke="#000000" d="M669.6761,-145.5478C682.9677,-135.461 699.6239,-121.8575 712.766,-108 731.443,-88.3063 749.4414,-63.2181 761.9119,-44.5353"/>
<polygon fill="#000000" stroke="#000000" points="765.0002,-46.2088 767.5684,-35.93 759.1508,-42.3638 765.0002,-46.2088"/>
</g>
<!-- SlicingState&#45;&gt;SlicingTypes -->
<g id="edge4" class="edge">
<title>SlicingState&#45;&gt;SlicingTypes</title>
<path fill="none" stroke="#000000" d="M646.766,-143.8314C646.766,-136.131 646.766,-126.9743 646.766,-118.4166"/>
<polygon fill="#000000" stroke="#000000" points="650.2661,-118.4132 646.766,-108.4133 643.2661,-118.4133 650.2661,-118.4132"/>
</g>
<!-- SlicingState&#45;&gt;SlicingParameters -->
<g id="edge3" class="edge">
<title>SlicingState&#45;&gt;SlicingParameters</title>
<path fill="none" stroke="#000000" d="M698.1087,-157.136C827.8911,-144.8408 1169.8598,-112.4437 1326.4266,-97.6111"/>
<polygon fill="#000000" stroke="#000000" points="1326.8417,-101.0875 1336.467,-96.6599 1326.1815,-94.1187 1326.8417,-101.0875"/>
</g>
<!-- SlicingMacros -->
<g id="node6" class="node">
<title>SlicingMacros</title>
<g id="a_node6"><a xlink:href="SlicingMacros.html" xlink:title="SlicingMacros">
<ellipse fill="#00ced1" stroke="#00ced1" cx="1012.766" cy="-234" rx="62.2891" ry="18"/>
<text text-anchor="middle" x="1012.766" y="-230.3" font-family="Times,serif" font-size="14.00" fill="#000000">SlicingMacros</text>
</a>
</g>
</g>
<!-- SlicingMacros&#45;&gt;SlicingInternals -->
<g id="edge8" class="edge">
<title>SlicingMacros&#45;&gt;SlicingInternals</title>
<path fill="none" stroke="#000000" d="M994.0123,-216.6889C952.5083,-178.3776 852.7941,-86.3336 805.0759,-42.2861"/>
<polygon fill="#000000" stroke="#000000" points="807.331,-39.6045 797.6089,-35.3935 802.583,-44.7482 807.331,-39.6045"/>
</g>
<!-- SlicingMacros&#45;&gt;SlicingTypes -->
<g id="edge7" class="edge">
<title>SlicingMacros&#45;&gt;SlicingTypes</title>
<path fill="none" stroke="#000000" d="M989.8589,-217.0074C961.7396,-196.8926 911.9604,-163.6532 864.766,-144 813.8407,-122.7932 752.6206,-108.5334 708.0385,-100.0192"/>
<polygon fill="#000000" stroke="#000000" points="708.4084,-96.5278 697.9359,-98.1335 707.124,-103.409 708.4084,-96.5278"/>
</g>
<!-- SlicingMacros&#45;&gt;SlicingParameters -->
<g id="edge5" class="edge">
<title>SlicingMacros&#45;&gt;SlicingParameters</title>
<path fill="none" stroke="#000000" d="M1051.6225,-219.7986C1123.1149,-193.6694 1275.4842,-137.9812 1355.4076,-108.7706"/>
<polygon fill="#000000" stroke="#000000" points="1357.0621,-111.8924 1365.253,-105.1723 1354.6591,-105.3177 1357.0621,-111.8924"/>
</g>
<!-- SlicingMacros&#45;&gt;SlicingState -->
<g id="edge6" class="edge">
<title>SlicingMacros&#45;&gt;SlicingState</title>
<path fill="none" stroke="#000000" d="M961.1034,-223.8369C892.9281,-210.4253 773.3531,-186.9024 702.9766,-173.0578"/>
<polygon fill="#000000" stroke="#000000" points="703.4497,-169.5839 692.9622,-171.0878 702.0985,-176.4523 703.4497,-169.5839"/>
</g>
<!-- SlicingMarks -->
<g id="node7" class="node">
<title>SlicingMarks</title>
<g id="a_node7"><a xlink:href="SlicingMarks.html" xlink:title="SlicingMarks">
<ellipse fill="#00ced1" stroke="#00ced1" cx="471.766" cy="-234" rx="58.4896" ry="18"/>
<text text-anchor="middle" x="471.766" y="-230.3" font-family="Times,serif" font-size="14.00" fill="#000000">SlicingMarks</text>
</a>
</g>
</g>
<!-- SlicingMarks&#45;&gt;SlicingInternals -->
<g id="edge9" class="edge">
<title>SlicingMarks&#45;&gt;SlicingInternals</title>
<path fill="none" stroke="#000000" d="M478.7721,-216.0644C492.8315,-182.4728 527.7473,-110.0423 580.766,-72 617.1946,-45.8615 665.6508,-32.3722 705.5086,-25.4123"/>
<polygon fill="#000000" stroke="#000000" points="706.144,-28.8549 715.4442,-23.7798 705.009,-21.9476 706.144,-28.8549"/>
</g>
<!-- SlicingMarks&#45;&gt;SlicingTypes -->
<g id="edge10" class="edge">
<title>SlicingMarks&#45;&gt;SlicingTypes</title>
<path fill="none" stroke="#000000" d="M492.528,-216.9158C523.7924,-191.1897 583.0439,-142.4342 618.3094,-113.4157"/>
<polygon fill="#000000" stroke="#000000" points="620.8038,-115.8958 626.3017,-106.8391 616.356,-110.4905 620.8038,-115.8958"/>
</g>
<!-- SlicingActions -->
<g id="node8" class="node">
<title>SlicingActions</title>
<g id="a_node8"><a xlink:href="SlicingActions.html" xlink:title="SlicingActions">
<ellipse fill="#00ced1" stroke="#00ced1" cx="809.766" cy="-306" rx="63.0888" ry="18"/>
<text text-anchor="middle" x="809.766" y="-302.3" font-family="Times,serif" font-size="14.00" fill="#000000">SlicingActions</text>
</a>
</g>
</g>
<!-- SlicingActions&#45;&gt;SlicingInternals -->
<g id="edge15" class="edge">
<title>SlicingActions&#45;&gt;SlicingInternals</title>
<path fill="none" stroke="#000000" d="M807.8268,-287.9843C802.5858,-239.2939 788.1086,-104.7961 781.786,-46.0573"/>
<polygon fill="#000000" stroke="#000000" points="785.2546,-45.5768 780.7044,-36.0089 778.2948,-46.3261 785.2546,-45.5768"/>
</g>
<!-- SlicingActions&#45;&gt;SlicingTypes -->
<g id="edge14" class="edge">
<title>SlicingActions&#45;&gt;SlicingTypes</title>
<path fill="none" stroke="#000000" d="M800.7288,-287.8192C784.7091,-256.5598 749.186,-191.4204 708.766,-144 699.3949,-133.006 687.7437,-122.2652 677.0795,-113.2955"/>
<polygon fill="#000000" stroke="#000000" points="679.122,-110.4441 669.1711,-106.8068 674.6819,-115.8557 679.122,-110.4441"/>
</g>
<!-- SlicingActions&#45;&gt;SlicingParameters -->
<g id="edge13" class="edge">
<title>SlicingActions&#45;&gt;SlicingParameters</title>
<path fill="none" stroke="#000000" d="M831.0298,-288.7314C856.204,-268.9645 899.9998,-236.6615 941.766,-216 1071.0613,-152.0385 1237.1925,-117.0711 1331.8447,-101.0613"/>
<polygon fill="#000000" stroke="#000000" points="1332.6123,-104.4818 1341.9014,-99.3863 1331.4622,-97.5769 1332.6123,-104.4818"/>
</g>
<!-- SlicingActions&#45;&gt;SlicingMacros -->
<g id="edge11" class="edge">
<title>SlicingActions&#45;&gt;SlicingMacros</title>
<path fill="none" stroke="#000000" d="M849.3883,-291.9468C882.0835,-280.3504 928.6305,-263.8411 963.6829,-251.4088"/>
<polygon fill="#000000" stroke="#000000" points="964.9888,-254.6593 973.2436,-248.0178 962.6488,-248.062 964.9888,-254.6593"/>
</g>
<!-- SlicingActions&#45;&gt;SlicingMarks -->
<g id="edge12" class="edge">
<title>SlicingActions&#45;&gt;SlicingMarks</title>
<path fill="none" stroke="#000000" d="M759.164,-295.2209C697.8058,-282.1505 594.6033,-260.1665 529.9979,-246.4044"/>
<polygon fill="#000000" stroke="#000000" points="530.4827,-242.9292 519.9729,-244.2689 529.0242,-249.7756 530.4827,-242.9292"/>
</g>
<!-- Fct_slice -->
<g id="node9" class="node">
<title>Fct_slice</title>
<g id="a_node9"><a xlink:href="Fct_slice.html" xlink:title="Fct_slice">
<ellipse fill="#00ced1" stroke="#00ced1" cx="1158.766" cy="-378" rx="42.4939" ry="18"/>
<text text-anchor="middle" x="1158.766" y="-374.3" font-family="Times,serif" font-size="14.00" fill="#000000">Fct_slice</text>
</a>
</g>
</g>
<!-- Fct_slice&#45;&gt;SlicingInternals -->
<g id="edge21" class="edge">
<title>Fct_slice&#45;&gt;SlicingInternals</title>
<path fill="none" stroke="#000000" d="M1180.5678,-362.3375C1211.0639,-338.4201 1262.766,-289.6632 1262.766,-234 1262.766,-234 1262.766,-234 1262.766,-162 1262.766,-94.6201 1203.0392,-97.7312 1140.766,-72 1089.9439,-51.0004 942.3722,-33.7127 852.105,-24.7167"/>
<polygon fill="#000000" stroke="#000000" points="852.2278,-21.2119 841.9326,-23.7138 851.541,-28.1781 852.2278,-21.2119"/>
</g>
<!-- Fct_slice&#45;&gt;SlicingTypes -->
<g id="edge20" class="edge">
<title>Fct_slice&#45;&gt;SlicingTypes</title>
<path fill="none" stroke="#000000" d="M1133.0249,-363.5207C1048.946,-316.2263 782.1554,-166.1566 683.7171,-110.785"/>
<polygon fill="#000000" stroke="#000000" points="685.1599,-107.5809 674.7282,-105.7287 681.728,-113.6819 685.1599,-107.5809"/>
</g>
<!-- Fct_slice&#45;&gt;SlicingParameters -->
<g id="edge19" class="edge">
<title>Fct_slice&#45;&gt;SlicingParameters</title>
<path fill="none" stroke="#000000" d="M1195.6801,-369.1518C1221.486,-361.2364 1255.08,-347.2125 1276.766,-324 1335.1468,-261.5095 1295.9346,-214.206 1344.766,-144 1352.6899,-132.6076 1363.537,-122.0802 1373.9442,-113.4038"/>
<polygon fill="#000000" stroke="#000000" points="1376.1419,-116.1278 1381.7612,-107.146 1371.7672,-110.6632 1376.1419,-116.1278"/>
</g>
<!-- Fct_slice&#45;&gt;SlicingMacros -->
<g id="edge17" class="edge">
<title>Fct_slice&#45;&gt;SlicingMacros</title>
<path fill="none" stroke="#000000" d="M1141.7322,-361.1995C1116.1834,-336.0008 1067.7777,-288.2581 1038.0837,-258.9709"/>
<polygon fill="#000000" stroke="#000000" points="1040.1785,-256.1211 1030.6011,-251.5908 1035.263,-261.1049 1040.1785,-256.1211"/>
</g>
<!-- Fct_slice&#45;&gt;SlicingMarks -->
<g id="edge18" class="edge">
<title>Fct_slice&#45;&gt;SlicingMarks</title>
<path fill="none" stroke="#000000" d="M1116.7501,-375.3849C1040.4487,-370.0247 874.3657,-355.5393 737.766,-324 658.1658,-305.6212 568.8022,-272.7411 516.5628,-252.2187"/>
<polygon fill="#000000" stroke="#000000" points="517.8377,-248.9592 507.2513,-248.5368 515.2637,-255.4688 517.8377,-248.9592"/>
</g>
<!-- Fct_slice&#45;&gt;SlicingActions -->
<g id="edge16" class="edge">
<title>Fct_slice&#45;&gt;SlicingActions</title>
<path fill="none" stroke="#000000" d="M1120.4185,-370.0888C1060.2128,-357.6681 942.9721,-333.4809 870.9984,-318.6325"/>
<polygon fill="#000000" stroke="#000000" points="871.6546,-315.1942 861.1537,-316.6015 870.2402,-322.0499 871.6546,-315.1942"/>
</g>
<!-- PrintSlice -->
<g id="node10" class="node">
<title>PrintSlice</title>
<g id="a_node10"><a xlink:href="PrintSlice.html" xlink:title="PrintSlice">
<ellipse fill="#00ced1" stroke="#00ced1" cx="965.766" cy="-450" rx="45.4919" ry="18"/>
<text text-anchor="middle" x="965.766" y="-446.3" font-family="Times,serif" font-size="14.00" fill="#000000">PrintSlice</text>
</a>
</g>
</g>
<!-- PrintSlice&#45;&gt;SlicingInternals -->
<g id="edge28" class="edge">
<title>PrintSlice&#45;&gt;SlicingInternals</title>
<path fill="none" stroke="#000000" d="M985.3792,-433.7086C1028.9676,-395.4482 1126.7634,-296.9702 1083.766,-216 1031.451,-117.4835 906.0591,-60.6372 833.3857,-34.8702"/>
<polygon fill="#000000" stroke="#000000" points="834.089,-31.4096 823.4942,-31.4395 831.7952,-38.0231 834.089,-31.4096"/>
</g>
<!-- PrintSlice&#45;&gt;SlicingParameters -->
<g id="edge26" class="edge">
<title>PrintSlice&#45;&gt;SlicingParameters</title>
<path fill="none" stroke="#000000" d="M1010.8978,-447.4499C1084.8727,-440.6424 1230.8732,-415.6624 1302.766,-324 1354.0351,-258.6325 1385.8704,-164.0135 1399.3258,-117.6768"/>
<polygon fill="#000000" stroke="#000000" points="1402.7016,-118.6011 1402.0637,-108.0255 1395.9674,-116.6907 1402.7016,-118.6011"/>
</g>
<!-- PrintSlice&#45;&gt;SlicingState -->
<g id="edge27" class="edge">
<title>PrintSlice&#45;&gt;SlicingState</title>
<path fill="none" stroke="#000000" d="M931.3941,-438.0744C883.1087,-419.8887 794.7364,-381.1956 737.766,-324 698.3982,-284.4766 670.6927,-224.4278 656.8574,-189.6185"/>
<polygon fill="#000000" stroke="#000000" points="660.0432,-188.153 653.1679,-180.092 653.5157,-190.6811 660.0432,-188.153"/>
</g>
<!-- PrintSlice&#45;&gt;SlicingMacros -->
<g id="edge24" class="edge">
<title>PrintSlice&#45;&gt;SlicingMacros</title>
<path fill="none" stroke="#000000" d="M969.6923,-431.9555C977.8827,-394.3144 996.8411,-307.1867 1006.6463,-262.1246"/>
<polygon fill="#000000" stroke="#000000" points="1010.1115,-262.6606 1008.8177,-252.1451 1003.2715,-261.1722 1010.1115,-262.6606"/>
</g>
<!-- PrintSlice&#45;&gt;SlicingMarks -->
<g id="edge25" class="edge">
<title>PrintSlice&#45;&gt;SlicingMarks</title>
<path fill="none" stroke="#000000" d="M921.2675,-446.2107C842.5543,-438.9483 682.3853,-421.4945 632.766,-396 599.7838,-379.0537 529.0587,-300.3994 493.3447,-259.249"/>
<polygon fill="#000000" stroke="#000000" points="495.8769,-256.8263 486.6902,-251.5484 490.5804,-261.4032 495.8769,-256.8263"/>
</g>
<!-- PrintSlice&#45;&gt;SlicingActions -->
<g id="edge23" class="edge">
<title>PrintSlice&#45;&gt;SlicingActions</title>
<path fill="none" stroke="#000000" d="M947.5655,-433.1995C920.1507,-407.8936 868.105,-359.8514 836.4138,-330.598"/>
<polygon fill="#000000" stroke="#000000" points="838.5447,-327.8018 828.8227,-323.5908 833.7967,-332.9455 838.5447,-327.8018"/>
</g>
<!-- PrintSlice&#45;&gt;Fct_slice -->
<g id="edge22" class="edge">
<title>PrintSlice&#45;&gt;Fct_slice</title>
<path fill="none" stroke="#000000" d="M998.9439,-437.6228C1031.7492,-425.3845 1082.0346,-406.6252 1117.4221,-393.4236"/>
<polygon fill="#000000" stroke="#000000" points="1118.8354,-396.6321 1126.9813,-389.8575 1116.3886,-390.0736 1118.8354,-396.6321"/>
</g>
<!-- SlicingProject -->
<g id="node11" class="node">
<title>SlicingProject</title>
<g id="a_node11"><a xlink:href="SlicingProject.html" xlink:title="SlicingProject">
<ellipse fill="#00ced1" stroke="#00ced1" cx="917.766" cy="-522" rx="60.3893" ry="18"/>
<text text-anchor="middle" x="917.766" y="-518.3" font-family="Times,serif" font-size="14.00" fill="#000000">SlicingProject</text>
</a>
</g>
</g>
<!-- SlicingProject&#45;&gt;SlicingInternals -->
<g id="edge36" class="edge">
<title>SlicingProject&#45;&gt;SlicingInternals</title>
<path fill="none" stroke="#000000" d="M858.8665,-517.6469C673.8854,-503.1963 116.766,-453.4145 116.766,-378 116.766,-378 116.766,-378 116.766,-162 116.766,-102.099 535.9623,-46.3464 707.1992,-26.0709"/>
<polygon fill="#000000" stroke="#000000" points="707.8551,-29.518 717.3774,-24.873 707.0368,-22.566 707.8551,-29.518"/>
</g>
<!-- SlicingProject&#45;&gt;SlicingParameters -->
<g id="edge34" class="edge">
<title>SlicingProject&#45;&gt;SlicingParameters</title>
<path fill="none" stroke="#000000" d="M966.8921,-511.3362C1090.8958,-483.0078 1406.766,-401.4775 1406.766,-306 1406.766,-306 1406.766,-306 1406.766,-234 1406.766,-193.876 1406.766,-147.4631 1406.766,-118.4177"/>
<polygon fill="#000000" stroke="#000000" points="1410.2661,-118.1853 1406.766,-108.1854 1403.2661,-118.1854 1410.2661,-118.1853"/>
</g>
<!-- SlicingProject&#45;&gt;SlicingState -->
<g id="edge35" class="edge">
<title>SlicingProject&#45;&gt;SlicingState</title>
<path fill="none" stroke="#000000" d="M870.0084,-510.9539C781.0181,-488.9758 598.766,-436.7883 598.766,-378 598.766,-378 598.766,-378 598.766,-306 598.766,-263.5687 617.7548,-217.5468 631.8457,-189.2369"/>
<polygon fill="#000000" stroke="#000000" points="635.1355,-190.4919 636.5864,-179.9969 628.9074,-187.2965 635.1355,-190.4919"/>
</g>
<!-- SlicingProject&#45;&gt;SlicingMacros -->
<g id="edge32" class="edge">
<title>SlicingProject&#45;&gt;SlicingMacros</title>
<path fill="none" stroke="#000000" d="M913.3976,-503.8011C909.7187,-485.4277 905.9113,-456.3619 911.766,-432 927.6845,-365.7613 969.6791,-296.7197 994.2153,-260.2412"/>
<polygon fill="#000000" stroke="#000000" points="997.3049,-261.923 1000.0507,-251.6901 991.5229,-257.9772 997.3049,-261.923"/>
</g>
<!-- SlicingProject&#45;&gt;SlicingMarks -->
<g id="edge33" class="edge">
<title>SlicingProject&#45;&gt;SlicingMarks</title>
<path fill="none" stroke="#000000" d="M857.9674,-518.8576C774.0742,-513.3697 626.96,-499.4705 584.766,-468 515.8924,-416.6307 486.9544,-312.1819 476.6509,-262.0629"/>
<polygon fill="#000000" stroke="#000000" points="480.0824,-261.3733 474.7274,-252.2314 473.2127,-262.7173 480.0824,-261.3733"/>
</g>
<!-- SlicingProject&#45;&gt;SlicingActions -->
<g id="edge31" class="edge">
<title>SlicingProject&#45;&gt;SlicingActions</title>
<path fill="none" stroke="#000000" d="M894.6377,-505.2619C882.7226,-495.5731 868.8314,-482.4521 859.766,-468 833.2329,-425.7008 819.9087,-368.3246 813.9386,-334.4275"/>
<polygon fill="#000000" stroke="#000000" points="817.3466,-333.5849 812.2512,-324.2958 810.4417,-334.7349 817.3466,-333.5849"/>
</g>
<!-- SlicingProject&#45;&gt;Fct_slice -->
<g id="edge29" class="edge">
<title>SlicingProject&#45;&gt;Fct_slice</title>
<path fill="none" stroke="#000000" d="M948.9515,-506.3892C969.348,-495.9602 996.4375,-481.6921 1019.766,-468 1057.5754,-445.8086 1099.6629,-418.1196 1127.5153,-399.3571"/>
<polygon fill="#000000" stroke="#000000" points="1129.7106,-402.0978 1136.0346,-393.5973 1125.7899,-396.2987 1129.7106,-402.0978"/>
</g>
<!-- SlicingProject&#45;&gt;PrintSlice -->
<g id="edge30" class="edge">
<title>SlicingProject&#45;&gt;PrintSlice</title>
<path fill="none" stroke="#000000" d="M929.6311,-504.2022C935.2694,-495.7448 942.1203,-485.4685 948.3346,-476.147"/>
<polygon fill="#000000" stroke="#000000" points="951.4024,-477.855 954.0373,-467.593 945.5781,-473.9721 951.4024,-477.855"/>
</g>
<!-- SlicingTransform -->
<g id="node12" class="node">
<title>SlicingTransform</title>
<g id="a_node12"><a xlink:href="SlicingTransform.html" xlink:title="SlicingTransform">
<ellipse fill="#00ced1" stroke="#00ced1" cx="1282.766" cy="-594" rx="73.387" ry="18"/>
<text text-anchor="middle" x="1282.766" y="-590.3" font-family="Times,serif" font-size="14.00" fill="#000000">SlicingTransform</text>
</a>
</g>
</g>
<!-- SlicingTransform&#45;&gt;SlicingInternals -->
<g id="edge38" class="edge">
<title>SlicingTransform&#45;&gt;SlicingInternals</title>
<path fill="none" stroke="#000000" d="M1339.3259,-582.3953C1452.4362,-555.5276 1695.766,-477.7672 1695.766,-306 1695.766,-306 1695.766,-306 1695.766,-162 1695.766,-137.0508 1817.1313,-150.8681 1490.766,-72 1371.8254,-43.2573 1012.9164,-26.7321 854.8759,-20.6739"/>
<polygon fill="#000000" stroke="#000000" points="854.8868,-17.1718 844.7612,-20.2899 854.6212,-24.1668 854.8868,-17.1718"/>
</g>
<!-- SlicingTransform&#45;&gt;SlicingParameters -->
<g id="edge41" class="edge">
<title>SlicingTransform&#45;&gt;SlicingParameters</title>
<path fill="none" stroke="#000000" d="M1341.0786,-582.9541C1368.4146,-575.0969 1399.5576,-561.901 1420.766,-540 1497.5306,-460.7284 1503.766,-416.3485 1503.766,-306 1503.766,-306 1503.766,-306 1503.766,-234 1503.766,-191.0818 1493.4429,-179.1145 1468.766,-144 1460.7869,-132.6461 1449.9266,-122.1279 1439.5242,-113.4482"/>
<polygon fill="#000000" stroke="#000000" points="1441.7051,-110.7108 1431.7139,-107.1857 1437.3261,-116.172 1441.7051,-110.7108"/>
</g>
<!-- SlicingTransform&#45;&gt;SlicingMacros -->
<g id="edge39" class="edge">
<title>SlicingTransform&#45;&gt;SlicingMacros</title>
<path fill="none" stroke="#000000" d="M1283.3619,-575.8259C1284.0374,-521.9213 1277.9449,-362.0817 1186.766,-288 1156.7148,-263.5838 1115.6165,-250.1709 1080.9077,-242.821"/>
<polygon fill="#000000" stroke="#000000" points="1081.3234,-239.3352 1070.8327,-240.8169 1079.9577,-246.2007 1081.3234,-239.3352"/>
</g>
<!-- SlicingTransform&#45;&gt;SlicingMarks -->
<g id="edge40" class="edge">
<title>SlicingTransform&#45;&gt;SlicingMarks</title>
<path fill="none" stroke="#000000" d="M1211.7275,-589.1249C1010.9466,-574.4035 453.766,-526.6457 453.766,-450 453.766,-450 453.766,-450 453.766,-378 453.766,-337.5637 460.8409,-291.2302 466.1197,-262.2873"/>
<polygon fill="#000000" stroke="#000000" points="469.6279,-262.5693 468.0364,-252.0947 462.7485,-261.2756 469.6279,-262.5693"/>
</g>
<!-- SlicingTransform&#45;&gt;Fct_slice -->
<g id="edge37" class="edge">
<title>SlicingTransform&#45;&gt;Fct_slice</title>
<path fill="none" stroke="#000000" d="M1272.4071,-575.9555C1250.5073,-537.8074 1199.4281,-448.8308 1173.8796,-404.3269"/>
<polygon fill="#000000" stroke="#000000" points="1176.8491,-402.4696 1168.835,-395.5396 1170.7783,-405.9547 1176.8491,-402.4696"/>
</g>
<!-- SlicingTransform&#45;&gt;SlicingProject -->
<g id="edge42" class="edge">
<title>SlicingTransform&#45;&gt;SlicingProject</title>
<path fill="none" stroke="#000000" d="M1225.3332,-582.6708C1158.1163,-569.4116 1047.2862,-547.5492 978.6266,-534.0054"/>
<polygon fill="#000000" stroke="#000000" points="978.8861,-530.4892 968.3978,-531.9876 977.5313,-537.3569 978.8861,-530.4892"/>
</g>
<!-- SlicingSelect -->
<g id="node13" class="node">
<title>SlicingSelect</title>
<g id="a_node13"><a xlink:href="SlicingSelect.html" xlink:title="SlicingSelect">
<ellipse fill="#00ced1" stroke="#00ced1" cx="933.766" cy="-594" rx="57.3905" ry="18"/>
<text text-anchor="middle" x="933.766" y="-590.3" font-family="Times,serif" font-size="14.00" fill="#000000">SlicingSelect</text>
</a>
</g>
</g>
<!-- SlicingSelect&#45;&gt;SlicingInternals -->
<g id="edge47" class="edge">
<title>SlicingSelect&#45;&gt;SlicingInternals</title>
<path fill="none" stroke="#000000" d="M876.6537,-592.793C676.7757,-587.0472 20.766,-554.7275 20.766,-378 20.766,-378 20.766,-378 20.766,-162 20.766,-138.6998 -94.0044,-153.1734 222.766,-72 311.7199,-49.2053 573.3153,-30.5855 703.4591,-22.4374"/>
<polygon fill="#000000" stroke="#000000" points="703.9736,-25.9122 713.7372,-21.7986 703.5393,-18.9257 703.9736,-25.9122"/>
</g>
<!-- SlicingSelect&#45;&gt;SlicingParameters -->
<g id="edge44" class="edge">
<title>SlicingSelect&#45;&gt;SlicingParameters</title>
<path fill="none" stroke="#000000" d="M989.0288,-589.3301C1123.1145,-574.6762 1454.766,-517.0947 1454.766,-306 1454.766,-306 1454.766,-306 1454.766,-234 1454.766,-191.5687 1435.7772,-145.5468 1421.6862,-117.2369"/>
<polygon fill="#000000" stroke="#000000" points="1424.6245,-115.2965 1416.9455,-107.9969 1418.3964,-118.4919 1424.6245,-115.2965"/>
</g>
<!-- SlicingSelect&#45;&gt;SlicingMacros -->
<g id="edge46" class="edge">
<title>SlicingSelect&#45;&gt;SlicingMacros</title>
<path fill="none" stroke="#000000" d="M971.7337,-580.4673C1035.2475,-555.4689 1160.8813,-495.3429 1209.766,-396 1244.59,-325.231 1135.5815,-274.5147 1066.0356,-250.2071"/>
<polygon fill="#000000" stroke="#000000" points="1067.0979,-246.8715 1056.5033,-246.9532 1064.8364,-253.4962 1067.0979,-246.8715"/>
</g>
<!-- SlicingSelect&#45;&gt;SlicingMarks -->
<g id="edge45" class="edge">
<title>SlicingSelect&#45;&gt;SlicingMarks</title>
<path fill="none" stroke="#000000" d="M877.1697,-591.1215C754.7876,-584.4282 473.7791,-566.3562 439.766,-540 405.9665,-513.8095 405.766,-492.7592 405.766,-450 405.766,-450 405.766,-450 405.766,-378 405.766,-333.5809 432.0392,-287.8895 451.4323,-260.2136"/>
<polygon fill="#000000" stroke="#000000" points="454.4291,-262.042 457.445,-251.8854 448.7536,-257.9445 454.4291,-262.042"/>
</g>
<!-- SlicingSelect&#45;&gt;SlicingActions -->
<g id="edge48" class="edge">
<title>SlicingSelect&#45;&gt;SlicingActions</title>
<path fill="none" stroke="#000000" d="M898.871,-579.6074C881.3409,-570.6728 861.2317,-557.5224 848.766,-540 804.135,-477.2646 803.8895,-381.3749 807.0052,-334.2039"/>
<polygon fill="#000000" stroke="#000000" points="810.5046,-334.3435 807.775,-324.1063 803.5249,-333.8113 810.5046,-334.3435"/>
</g>
<!-- SlicingSelect&#45;&gt;Fct_slice -->
<g id="edge49" class="edge">
<title>SlicingSelect&#45;&gt;Fct_slice</title>
<path fill="none" stroke="#000000" d="M951.7983,-576.6889C991.9195,-538.1726 1088.6123,-445.3475 1134.1999,-401.5835"/>
<polygon fill="#000000" stroke="#000000" points="1136.7878,-403.9509 1141.5778,-394.5006 1131.94,-398.9011 1136.7878,-403.9509"/>
</g>
<!-- SlicingSelect&#45;&gt;SlicingProject -->
<g id="edge43" class="edge">
<title>SlicingSelect&#45;&gt;SlicingProject</title>
<path fill="none" stroke="#000000" d="M929.7285,-575.8314C928.0173,-568.131 925.9825,-558.9743 924.0808,-550.4166"/>
<polygon fill="#000000" stroke="#000000" points="927.4438,-549.4159 921.8578,-540.4133 920.6105,-550.9344 927.4438,-549.4159"/>
</g>
<!-- SlicingCmds -->
<g id="node14" class="node">
<title>SlicingCmds</title>
<g id="a_node14"><a xlink:href="SlicingCmds.html" xlink:title="SlicingCmds">
<ellipse fill="#00ced1" stroke="#00ced1" cx="841.766" cy="-666" rx="56.59" ry="18"/>
<text text-anchor="middle" x="841.766" y="-662.3" font-family="Times,serif" font-size="14.00" fill="#000000">SlicingCmds</text>
</a>
</g>
</g>
<!-- SlicingCmds&#45;&gt;SlicingTypes -->
<g id="edge54" class="edge">
<title>SlicingCmds&#45;&gt;SlicingTypes</title>
<path fill="none" stroke="#000000" d="M785.3533,-663.5252C682.7211,-658.2924 469.95,-643.8684 403.766,-612 269.8266,-547.5066 164.766,-526.6579 164.766,-378 164.766,-378 164.766,-378 164.766,-306 164.766,-263.2408 167.2439,-244.8913 198.766,-216 255.6736,-163.8417 477.2325,-119.3466 585.935,-100.135"/>
<polygon fill="#000000" stroke="#000000" points="586.8471,-103.5286 596.093,-98.3553 585.639,-96.6336 586.8471,-103.5286"/>
</g>
<!-- SlicingCmds&#45;&gt;SlicingParameters -->
<g id="edge51" class="edge">
<title>SlicingCmds&#45;&gt;SlicingParameters</title>
<path fill="none" stroke="#000000" d="M897.6285,-662.6736C1013.8417,-655.3558 1278.0304,-636.5401 1364.766,-612 1453.5179,-586.8893 1551.766,-614.2359 1551.766,-522 1551.766,-522 1551.766,-522 1551.766,-234 1551.766,-176.5328 1493.7159,-134.1381 1451.0756,-110.7491"/>
<polygon fill="#000000" stroke="#000000" points="1452.7094,-107.6538 1442.237,-106.048 1449.4223,-113.834 1452.7094,-107.6538"/>
</g>
<!-- SlicingCmds&#45;&gt;SlicingMarks -->
<g id="edge50" class="edge">
<title>SlicingCmds&#45;&gt;SlicingMarks</title>
<path fill="none" stroke="#000000" d="M786.7162,-661.3462C659.8602,-649.1071 357.766,-610.6542 357.766,-522 357.766,-522 357.766,-522 357.766,-378 357.766,-325.8242 404.3423,-281.5157 437.9527,-256.3342"/>
<polygon fill="#000000" stroke="#000000" points="440.152,-259.0625 446.1821,-250.3511 436.0357,-253.4007 440.152,-259.0625"/>
</g>
<!-- SlicingCmds&#45;&gt;SlicingProject -->
<g id="edge52" class="edge">
<title>SlicingCmds&#45;&gt;SlicingProject</title>
<path fill="none" stroke="#000000" d="M844.4675,-647.7875C847.8394,-628.8886 854.8096,-598.9419 867.766,-576 873.7916,-565.3303 882.32,-555.0762 890.6301,-546.4237"/>
<polygon fill="#000000" stroke="#000000" points="893.2011,-548.8027 897.8084,-539.2621 888.2571,-543.8472 893.2011,-548.8027"/>
</g>
<!-- SlicingCmds&#45;&gt;SlicingSelect -->
<g id="edge53" class="edge">
<title>SlicingCmds&#45;&gt;SlicingSelect</title>
<path fill="none" stroke="#000000" d="M863.1039,-649.3008C875.3242,-639.737 890.8415,-627.5931 904.22,-617.1229"/>
<polygon fill="#000000" stroke="#000000" points="906.5071,-619.7775 912.2251,-610.8581 902.1929,-614.2649 906.5071,-619.7775"/>
</g>
<!-- Api -->
<g id="node15" class="node">
<title>Api</title>
<g id="a_node15"><a xlink:href="Api.html" xlink:title="Api">
<ellipse fill="#00ced1" stroke="#00ced1" cx="1041.766" cy="-738" rx="27" ry="18"/>
<text text-anchor="middle" x="1041.766" y="-734.3" font-family="Times,serif" font-size="14.00" fill="#000000">Api</text>
</a>
</g>
</g>
<!-- Api&#45;&gt;SlicingTypes -->
<g id="edge55" class="edge">
<title>Api&#45;&gt;SlicingTypes</title>
<path fill="none" stroke="#000000" d="M1014.5353,-737.6709C876.5115,-735.8193 257.8457,-725.2587 183.766,-684 106.6263,-641.0371 68.766,-610.2969 68.766,-522 68.766,-522 68.766,-522 68.766,-234 68.766,-129.7491 427.2783,-100.3896 579.5972,-92.6204"/>
<polygon fill="#000000" stroke="#000000" points="579.9481,-96.1074 589.7633,-92.1184 579.6028,-89.116 579.9481,-96.1074"/>
</g>
<!-- Api&#45;&gt;SlicingParameters -->
<g id="edge60" class="edge">
<title>Api&#45;&gt;SlicingParameters</title>
<path fill="none" stroke="#000000" d="M1068.8323,-736.3643C1157.9644,-730.7651 1441.5692,-711.1993 1528.766,-684 1609.2555,-658.8929 1695.766,-678.3145 1695.766,-594 1695.766,-594 1695.766,-594 1695.766,-522 1695.766,-423.6582 1647.766,-404.3418 1647.766,-306 1647.766,-306 1647.766,-306 1647.766,-234 1647.766,-190.126 1528.5766,-136.7439 1457.8379,-108.9253"/>
<polygon fill="#000000" stroke="#000000" points="1458.7839,-105.5379 1448.1953,-105.1733 1456.2455,-112.0614 1458.7839,-105.5379"/>
</g>
<!-- Api&#45;&gt;SlicingState -->
<g id="edge57" class="edge">
<title>Api&#45;&gt;SlicingState</title>
<path fill="none" stroke="#000000" d="M1014.7392,-735.3719C906.8806,-724.4797 508.0447,-680.2301 403.766,-612 357.0366,-581.4247 260.766,-412.9418 260.766,-378 260.766,-378 260.766,-378 260.766,-306 260.766,-236.9698 480.2119,-190.171 588.1802,-171.3233"/>
<polygon fill="#000000" stroke="#000000" points="589.0082,-174.7323 598.2696,-169.5868 587.8209,-167.8338 589.0082,-174.7323"/>
</g>
<!-- Api&#45;&gt;SlicingMacros -->
<g id="edge62" class="edge">
<title>Api&#45;&gt;SlicingMacros</title>
<path fill="none" stroke="#000000" d="M1069.0572,-736.9138C1181.0866,-731.7285 1599.766,-704.9291 1599.766,-594 1599.766,-594 1599.766,-594 1599.766,-378 1599.766,-273.077 1241.5465,-244.2065 1084.781,-236.5956"/>
<polygon fill="#000000" stroke="#000000" points="1084.9057,-233.0977 1074.7524,-236.1245 1084.5771,-240.09 1084.9057,-233.0977"/>
</g>
<!-- Api&#45;&gt;SlicingMarks -->
<g id="edge61" class="edge">
<title>Api&#45;&gt;SlicingMarks</title>
<path fill="none" stroke="#000000" d="M1014.7441,-737.2974C873.6994,-733.502 227.3603,-714.4846 198.766,-684 174.764,-658.4114 162.7617,-504.2001 369.766,-288 384.7024,-272.4001 405.1438,-260.3635 423.8064,-251.6553"/>
<polygon fill="#000000" stroke="#000000" points="425.3675,-254.7915 433.0781,-247.5254 422.5192,-248.3972 425.3675,-254.7915"/>
</g>
<!-- Api&#45;&gt;Fct_slice -->
<g id="edge65" class="edge">
<title>Api&#45;&gt;Fct_slice</title>
<path fill="none" stroke="#000000" d="M1061.4491,-725.563C1093.8243,-703.3989 1154.766,-653.7434 1154.766,-594 1154.766,-594 1154.766,-594 1154.766,-522 1154.766,-481.8605 1156.3382,-435.4516 1157.5112,-406.4112"/>
<polygon fill="#000000" stroke="#000000" points="1161.0181,-406.3179 1157.9372,-396.1809 1154.0241,-406.0266 1161.0181,-406.3179"/>
</g>
<!-- Api&#45;&gt;PrintSlice -->
<g id="edge64" class="edge">
<title>Api&#45;&gt;PrintSlice</title>
<path fill="none" stroke="#000000" d="M1045.4225,-719.9465C1048.5477,-701.6861 1051.9333,-672.7065 1047.766,-648 1036.8592,-583.3373 1002.1025,-513.8601 981.506,-476.8479"/>
<polygon fill="#000000" stroke="#000000" points="984.3192,-474.7122 976.3507,-467.7298 978.2257,-478.1574 984.3192,-474.7122"/>
</g>
<!-- Api&#45;&gt;SlicingProject -->
<g id="edge59" class="edge">
<title>Api&#45;&gt;SlicingProject</title>
<path fill="none" stroke="#000000" d="M1041.2218,-719.9493C1039.4248,-688.0307 1031.8046,-620.7774 999.766,-576 989.7448,-561.9944 974.8618,-550.6329 960.5153,-542.01"/>
<polygon fill="#000000" stroke="#000000" points="962.1228,-538.8978 951.7001,-536.9957 958.6618,-544.9823 962.1228,-538.8978"/>
</g>
<!-- Api&#45;&gt;SlicingTransform -->
<g id="edge56" class="edge">
<title>Api&#45;&gt;SlicingTransform</title>
<path fill="none" stroke="#000000" d="M1066.0878,-729.8542C1092.3521,-720.5643 1134.967,-704.0386 1168.766,-684 1200.834,-664.9877 1233.8842,-637.9181 1256.0866,-618.4386"/>
<polygon fill="#000000" stroke="#000000" points="1258.5975,-620.8898 1263.7538,-611.6344 1253.9511,-615.6542 1258.5975,-620.8898"/>
</g>
<!-- Api&#45;&gt;SlicingSelect -->
<g id="edge58" class="edge">
<title>Api&#45;&gt;SlicingSelect</title>
<path fill="none" stroke="#000000" d="M1029.5869,-721.7613C1011.0095,-696.9914 975.4169,-649.5346 953.2287,-619.9504"/>
<polygon fill="#000000" stroke="#000000" points="955.8791,-617.6508 947.0791,-611.7508 950.2791,-621.8509 955.8791,-617.6508"/>
</g>
<!-- Api&#45;&gt;SlicingCmds -->
<g id="edge63" class="edge">
<title>Api&#45;&gt;SlicingCmds</title>
<path fill="none" stroke="#000000" d="M1017.6413,-729.3151C985.8717,-717.8781 929.3163,-697.5181 888.9132,-682.973"/>
<polygon fill="#000000" stroke="#000000" points="889.8661,-679.5962 879.2716,-679.502 887.495,-686.1824 889.8661,-679.5962"/>
</g>
<!-- Register_gui -->
<g id="node16" class="node">
<title>Register_gui</title>
<g id="a_node16"><a xlink:href="Register_gui.html" xlink:title="Register_gui">
<ellipse fill="#00ced1" stroke="#00ced1" cx="1041.766" cy="-810" rx="55.7903" ry="18"/>
<text text-anchor="middle" x="1041.766" y="-806.3" font-family="Times,serif" font-size="14.00" fill="#000000">Register_gui</text>
</a>
</g>
</g>
<!-- Register_gui&#45;&gt;SlicingParameters -->
<g id="edge67" class="edge">
<title>Register_gui&#45;&gt;SlicingParameters</title>
<path fill="none" stroke="#000000" d="M1095.3953,-804.6947C1259.4979,-787.7474 1743.766,-732.1331 1743.766,-666 1743.766,-666 1743.766,-666 1743.766,-234 1743.766,-175.7944 1571.6218,-127.2322 1473.4006,-104.261"/>
<polygon fill="#000000" stroke="#000000" points="1474.0836,-100.8267 1463.5523,-101.9855 1472.5077,-107.647 1474.0836,-100.8267"/>
</g>
<!-- Register_gui&#45;&gt;SlicingState -->
<g id="edge68" class="edge">
<title>Register_gui&#45;&gt;SlicingState</title>
<path fill="none" stroke="#000000" d="M994.0266,-800.3912C979.2267,-797.5382 962.8455,-794.5081 947.766,-792 778.6238,-763.8677 296.2055,-813.4521 183.766,-684 152.2897,-647.7613 180.2787,-623.8732 183.766,-576 190.2275,-487.2962 212.766,-466.9389 212.766,-378 212.766,-378 212.766,-378 212.766,-306 212.766,-249.1163 252.9992,-241.661 303.766,-216 351.7806,-191.7301 499.5881,-175.0523 584.6866,-167.1782"/>
<polygon fill="#000000" stroke="#000000" points="585.1016,-170.655 594.7426,-166.2617 584.4662,-163.6839 585.1016,-170.655"/>
</g>
<!-- Register_gui&#45;&gt;Api -->
<g id="edge66" class="edge">
<title>Register_gui&#45;&gt;Api</title>
<path fill="none" stroke="#000000" d="M1041.766,-791.8314C1041.766,-784.131 1041.766,-774.9743 1041.766,-766.4166"/>
<polygon fill="#000000" stroke="#000000" points="1045.2661,-766.4132 1041.766,-756.4133 1038.2661,-766.4133 1045.2661,-766.4132"/>
</g>
</g>
</svg>
