<?xml version="1.0" encoding="UTF-8" standalone="no"?>
<!DOCTYPE svg PUBLIC "-//W3C//DTD SVG 1.1//EN"
 "http://www.w3.org/Graphics/SVG/1.1/DTD/svg11.dtd">
<!-- Generated by graphviz version 2.40.1 (20161225.0304)
 -->
<!-- Title: Plugin architecture (impact) Pages: 1 -->
<svg width="717pt" height="540pt"
 viewBox="0.00 0.00 717.46 540.00" xmlns="http://www.w3.org/2000/svg" xmlns:xlink="http://www.w3.org/1999/xlink">
<g id="graph0" class="graph" transform="scale(.9854 .9854) rotate(0) translate(4 544)">
<title>Plugin architecture (impact)</title>
<polygon fill="#ffffff" stroke="transparent" points="-4,4 -4,-544 724.088,-544 724.088,4 -4,4"/>
<!-- Impact -->
<g id="node1" class="node">
<title>Impact</title>
<g id="a_node1"><a xlink:href="Impact.html" xlink:title="Impact">
<ellipse fill="#00ced1" stroke="#00ced1" cx="73.163" cy="-515" rx="35.9954" ry="18"/>
<text text-anchor="middle" x="73.163" y="-511.3" font-family="Times,serif" font-size="14.00" fill="#000000">Impact</text>
</a>
</g>
</g>
<!-- Options -->
<g id="node2" class="node">
<title>Options</title>
<g id="a_node2"><a xlink:href="Options.html" xlink:title="Options">
<ellipse fill="#00ced1" stroke="#00ced1" cx="406.163" cy="-25" rx="38.1938" ry="18"/>
<text text-anchor="middle" x="406.163" y="-21.3" font-family="Times,serif" font-size="14.00" fill="#000000">Options</text>
</a>
</g>
</g>
<!-- Pdg_aux -->
<g id="node3" class="node">
<title>Pdg_aux</title>
<g id="a_node3"><a xlink:href="Pdg_aux.html" xlink:title="Pdg_aux">
<ellipse fill="#00ced1" stroke="#00ced1" cx="406.163" cy="-123" rx="41.6928" ry="18"/>
<text text-anchor="middle" x="406.163" y="-119.3" font-family="Times,serif" font-size="14.00" fill="#000000">Pdg_aux</text>
</a>
</g>
</g>
<!-- Pdg_aux&#45;&gt;Options -->
<g id="edge1" class="edge">
<title>Pdg_aux&#45;&gt;Options</title>
<path fill="none" stroke="#000000" d="M406.163,-104.5669C406.163,-90.1034 406.163,-69.7239 406.163,-53.2111"/>
<polygon fill="#000000" stroke="#000000" points="409.6631,-53.0193 406.163,-43.0193 402.6631,-53.0193 409.6631,-53.0193"/>
</g>
<!-- Reason_graph -->
<g id="node4" class="node">
<title>Reason_graph</title>
<g id="a_node4"><a xlink:href="Reason_graph.html" xlink:title="Reason_graph">
<ellipse fill="#00ced1" stroke="#00ced1" cx="219.163" cy="-221" rx="61.1893" ry="18"/>
<text text-anchor="middle" x="219.163" y="-217.3" font-family="Times,serif" font-size="14.00" fill="#000000">Reason_graph</text>
</a>
</g>
</g>
<!-- Reason_graph&#45;&gt;Options -->
<g id="edge3" class="edge">
<title>Reason_graph&#45;&gt;Options</title>
<path fill="none" stroke="#000000" d="M235.758,-203.6063C269.278,-168.4731 345.1088,-88.9927 383.2902,-48.9737"/>
<polygon fill="#000000" stroke="#000000" points="386.0301,-51.1722 390.4008,-41.5209 380.9654,-46.3401 386.0301,-51.1722"/>
</g>
<!-- Reason_graph&#45;&gt;Pdg_aux -->
<g id="edge2" class="edge">
<title>Reason_graph&#45;&gt;Pdg_aux</title>
<path fill="none" stroke="#000000" d="M249.2078,-205.2546C282.284,-187.9206 335.4199,-160.0739 370.5615,-141.6575"/>
<polygon fill="#000000" stroke="#000000" points="372.2914,-144.7025 379.5241,-136.9605 369.0421,-138.5023 372.2914,-144.7025"/>
</g>
<!-- Compute_impact -->
<g id="node5" class="node">
<title>Compute_impact</title>
<g id="a_node5"><a xlink:href="Compute_impact.html" xlink:title="Compute_impact">
<ellipse fill="#00ced1" stroke="#00ced1" cx="500.163" cy="-319" rx="72.2875" ry="18"/>
<text text-anchor="middle" x="500.163" y="-315.3" font-family="Times,serif" font-size="14.00" fill="#000000">Compute_impact</text>
</a>
</g>
</g>
<!-- Compute_impact&#45;&gt;Options -->
<g id="edge4" class="edge">
<title>Compute_impact&#45;&gt;Options</title>
<path fill="none" stroke="#000000" d="M498.783,-300.8867C495.4304,-263.1912 484.9849,-174.0716 457.163,-105 449.2921,-85.4593 436.5561,-65.4756 425.7808,-50.3689"/>
<polygon fill="#000000" stroke="#000000" points="428.4443,-48.0818 419.7147,-42.078 422.795,-52.2152 428.4443,-48.0818"/>
</g>
<!-- Compute_impact&#45;&gt;Pdg_aux -->
<g id="edge6" class="edge">
<title>Compute_impact&#45;&gt;Pdg_aux</title>
<path fill="none" stroke="#000000" d="M491.4882,-300.9121C474.8678,-266.2568 438.4629,-190.3487 419.0131,-149.7937"/>
<polygon fill="#000000" stroke="#000000" points="422.1613,-148.2642 414.6811,-140.7611 415.8496,-151.2913 422.1613,-148.2642"/>
</g>
<!-- Compute_impact&#45;&gt;Reason_graph -->
<g id="edge5" class="edge">
<title>Compute_impact&#45;&gt;Reason_graph</title>
<path fill="none" stroke="#000000" d="M458.0945,-304.3284C407.3594,-286.6343 322.2116,-256.9387 268.4485,-238.1885"/>
<polygon fill="#000000" stroke="#000000" points="269.3852,-234.8085 258.7904,-234.8202 267.08,-241.4181 269.3852,-234.8085"/>
</g>
<!-- Register -->
<g id="node6" class="node">
<title>Register</title>
<g id="a_node6"><a xlink:href="Register.html" xlink:title="Register">
<ellipse fill="#00ced1" stroke="#00ced1" cx="638.163" cy="-417" rx="40.0939" ry="18"/>
<text text-anchor="middle" x="638.163" y="-413.3" font-family="Times,serif" font-size="14.00" fill="#000000">Register</text>
</a>
</g>
</g>
<!-- Register&#45;&gt;Options -->
<g id="edge8" class="edge">
<title>Register&#45;&gt;Options</title>
<path fill="none" stroke="#000000" d="M634.7637,-398.7107C630.017,-375.3285 620.2509,-333.9308 605.163,-301 558.0426,-198.1549 470.0619,-94.7317 428.7203,-49.1459"/>
<polygon fill="#000000" stroke="#000000" points="431.1277,-46.5919 421.797,-41.5729 425.9613,-51.3151 431.1277,-46.5919"/>
</g>
<!-- Register&#45;&gt;Pdg_aux -->
<g id="edge7" class="edge">
<title>Register&#45;&gt;Pdg_aux</title>
<path fill="none" stroke="#000000" d="M631.4768,-399.13C622.173,-375.477 603.8772,-333.0319 581.163,-301 536.8837,-238.5564 470.392,-177.5389 433.4226,-145.7091"/>
<polygon fill="#000000" stroke="#000000" points="435.4417,-142.8308 425.5636,-139 430.8968,-148.1547 435.4417,-142.8308"/>
</g>
<!-- Register&#45;&gt;Compute_impact -->
<g id="edge9" class="edge">
<title>Register&#45;&gt;Compute_impact</title>
<path fill="none" stroke="#000000" d="M616.6005,-401.6875C594.1253,-385.7269 558.6354,-360.5239 532.7401,-342.1344"/>
<polygon fill="#000000" stroke="#000000" points="534.5385,-339.1188 524.3587,-336.1824 530.4855,-344.8261 534.5385,-339.1188"/>
</g>
<!-- Register_gui -->
<g id="node7" class="node">
<title>Register_gui</title>
<g id="a_node7"><a xlink:href="Register_gui.html" xlink:title="Register_gui">
<ellipse fill="#00ced1" stroke="#00ced1" cx="296.163" cy="-515" rx="55.7903" ry="18"/>
<text text-anchor="middle" x="296.163" y="-511.3" font-family="Times,serif" font-size="14.00" fill="#000000">Register_gui</text>
</a>
</g>
</g>
<!-- Register_gui&#45;&gt;Options -->
<g id="edge11" class="edge">
<title>Register_gui&#45;&gt;Options</title>
<path fill="none" stroke="#000000" d="M252.6886,-503.6854C179.1606,-481.6291 38.163,-425.4552 38.163,-319 38.163,-319 38.163,-319 38.163,-221 38.163,-77.6814 258.2875,-38.8109 358.0431,-28.554"/>
<polygon fill="#000000" stroke="#000000" points="358.5525,-32.0211 368.1666,-27.5692 357.8747,-25.054 358.5525,-32.0211"/>
</g>
<!-- Register_gui&#45;&gt;Pdg_aux -->
<g id="edge12" class="edge">
<title>Register_gui&#45;&gt;Pdg_aux</title>
<path fill="none" stroke="#000000" d="M301.248,-496.8792C318.8428,-434.1776 377.2159,-226.1572 398.3981,-150.6714"/>
<polygon fill="#000000" stroke="#000000" points="401.8001,-151.5023 401.1321,-140.9286 395.0604,-149.6111 401.8001,-151.5023"/>
</g>
<!-- Register_gui&#45;&gt;Reason_graph -->
<g id="edge13" class="edge">
<title>Register_gui&#45;&gt;Reason_graph</title>
<path fill="none" stroke="#000000" d="M291.4623,-497.0516C278.4944,-447.5378 242.1424,-308.7392 226.4867,-248.9632"/>
<polygon fill="#000000" stroke="#000000" points="229.8196,-247.8741 223.9001,-239.0871 223.048,-249.6476 229.8196,-247.8741"/>
</g>
<!-- Register_gui&#45;&gt;Compute_impact -->
<g id="edge10" class="edge">
<title>Register_gui&#45;&gt;Compute_impact</title>
<path fill="none" stroke="#000000" d="M314.2667,-497.6063C350.6191,-462.6795 432.588,-383.925 474.4725,-343.6831"/>
<polygon fill="#000000" stroke="#000000" points="477.0206,-346.0886 481.8067,-336.6365 472.1707,-341.0409 477.0206,-346.0886"/>
</g>
<!-- Register_gui&#45;&gt;Register -->
<g id="edge14" class="edge">
<title>Register_gui&#45;&gt;Register</title>
<path fill="none" stroke="#000000" d="M338.099,-502.9833C403.2475,-484.315 528.1503,-448.5241 594.3978,-429.5409"/>
<polygon fill="#000000" stroke="#000000" points="595.4715,-432.8742 604.1204,-426.7549 593.5432,-426.145 595.4715,-432.8742"/>
</g>
</g>
</svg>
