<?xml version="1.0" encoding="UTF-8" standalone="no"?>
<!DOCTYPE svg PUBLIC "-//W3C//DTD SVG 1.1//EN"
 "http://www.w3.org/Graphics/SVG/1.1/DTD/svg11.dtd">
<!-- Generated by graphviz version 2.40.1 (20161225.0304)
 -->
<!-- Title: Plugin architecture (from) Pages: 1 -->
<svg width="718pt" height="540pt"
 viewBox="0.00 0.00 717.74 540.00" xmlns="http://www.w3.org/2000/svg" xmlns:xlink="http://www.w3.org/1999/xlink">
<g id="graph0" class="graph" transform="scale(.9854 .9854) rotate(0) translate(4 544)">
<title>Plugin architecture (from)</title>
<polygon fill="#ffffff" stroke="transparent" points="-4,4 -4,-544 724.3716,-544 724.3716,4 -4,4"/>
<!-- From -->
<g id="node1" class="node">
<title>From</title>
<g id="a_node1"><a xlink:href="From.html" xlink:title="From">
<ellipse fill="#00ced1" stroke="#00ced1" cx="47.4164" cy="-486" rx="30.5947" ry="18"/>
<text text-anchor="middle" x="47.4164" y="-482.3" font-family="Times,serif" font-size="14.00" fill="#000000">From</text>
</a>
</g>
</g>
<!-- From_parameters -->
<g id="node2" class="node">
<title>From_parameters</title>
<g id="a_node2"><a xlink:href="From_parameters.html" xlink:title="From_parameters">
<ellipse fill="#00ced1" stroke="#00ced1" cx="308.4164" cy="-54" rx="73.387" ry="18"/>
<text text-anchor="middle" x="308.4164" y="-50.3" font-family="Times,serif" font-size="14.00" fill="#000000">From_parameters</text>
</a>
</g>
</g>
<!-- From_compute -->
<g id="node3" class="node">
<title>From_compute</title>
<g id="a_node3"><a xlink:href="From_compute.html" xlink:title="From_compute">
<ellipse fill="#00ced1" stroke="#00ced1" cx="228.4164" cy="-270" rx="65.7887" ry="18"/>
<text text-anchor="middle" x="228.4164" y="-266.3" font-family="Times,serif" font-size="14.00" fill="#000000">From_compute</text>
</a>
</g>
</g>
<!-- From_compute&#45;&gt;From_parameters -->
<g id="edge1" class="edge">
<title>From_compute&#45;&gt;From_parameters</title>
<path fill="none" stroke="#000000" d="M235.0996,-251.9555C249.0995,-214.1556 281.5829,-126.4506 298.2103,-81.5564"/>
<polygon fill="#000000" stroke="#000000" points="301.5049,-82.7382 301.696,-72.1451 294.9407,-80.3069 301.5049,-82.7382"/>
</g>
<!-- Function_Froms -->
<g id="node4" class="node">
<title>Function_Froms</title>
<g id="a_node4"><a xlink:href="Function_Froms.html" xlink:title="Function_Froms">
<ellipse fill="#eead0e" stroke="#eead0e" cx="574.4164" cy="-54" rx="69.5877" ry="18"/>
<text text-anchor="middle" x="574.4164" y="-50.3" font-family="Times,serif" font-size="14.00" fill="#000000">Function_Froms</text>
</a>
</g>
</g>
<!-- From_compute&#45;&gt;Function_Froms -->
<g id="edge2" class="edge">
<title>From_compute&#45;&gt;Function_Froms</title>
<path fill="none" stroke="#000000" d="M254.9919,-253.4095C316.6293,-214.9307 469.3548,-119.5876 538.9016,-76.1711"/>
<polygon fill="#000000" stroke="#000000" points="541.1211,-78.9116 547.7503,-70.647 537.4141,-72.9737 541.1211,-78.9116"/>
</g>
<!-- Functionwise -->
<g id="node5" class="node">
<title>Functionwise</title>
<g id="a_node5"><a xlink:href="Functionwise.html" xlink:title="Functionwise">
<ellipse fill="#00ced1" stroke="#00ced1" cx="211.4164" cy="-486" rx="57.6901" ry="18"/>
<text text-anchor="middle" x="211.4164" y="-482.3" font-family="Times,serif" font-size="14.00" fill="#000000">Functionwise</text>
</a>
</g>
</g>
<!-- Functionwise&#45;&gt;From_parameters -->
<g id="edge4" class="edge">
<title>Functionwise&#45;&gt;From_parameters</title>
<path fill="none" stroke="#000000" d="M200.0321,-468.0744C176.3715,-428.4612 126.2621,-330.7394 153.4164,-252 178.596,-178.9868 242.9997,-112.3266 280.3883,-78.1089"/>
<polygon fill="#000000" stroke="#000000" points="282.8478,-80.6039 287.9327,-71.309 278.1613,-75.4043 282.8478,-80.6039"/>
</g>
<!-- Functionwise&#45;&gt;From_compute -->
<g id="edge3" class="edge">
<title>Functionwise&#45;&gt;From_compute</title>
<path fill="none" stroke="#000000" d="M212.8366,-467.9555C215.7991,-430.3144 222.6563,-343.1867 226.2029,-298.1246"/>
<polygon fill="#000000" stroke="#000000" points="229.6928,-298.3889 226.9883,-288.1451 222.7144,-297.8396 229.6928,-298.3889"/>
</g>
<!-- Functionwise&#45;&gt;Function_Froms -->
<g id="edge5" class="edge">
<title>Functionwise&#45;&gt;Function_Froms</title>
<path fill="none" stroke="#000000" d="M260.5059,-476.4147C343.6907,-457.2314 510.1497,-405.4474 580.4164,-288 619.4047,-222.8329 598.277,-128.1217 584.0227,-81.7207"/>
<polygon fill="#000000" stroke="#000000" points="587.3123,-80.5163 580.9354,-72.0554 580.6442,-82.6462 587.3123,-80.5163"/>
</g>
<!-- Callwise -->
<g id="node6" class="node">
<title>Callwise</title>
<g id="a_node6"><a xlink:href="Callwise.html" xlink:title="Callwise">
<ellipse fill="#00ced1" stroke="#00ced1" cx="391.4164" cy="-486" rx="41.6928" ry="18"/>
<text text-anchor="middle" x="391.4164" y="-482.3" font-family="Times,serif" font-size="14.00" fill="#000000">Callwise</text>
</a>
</g>
</g>
<!-- Callwise&#45;&gt;From_parameters -->
<g id="edge7" class="edge">
<title>Callwise&#45;&gt;From_parameters</title>
<path fill="none" stroke="#000000" d="M387.9557,-467.9875C375.0363,-400.7447 329.5659,-164.0792 313.8265,-82.1585"/>
<polygon fill="#000000" stroke="#000000" points="317.2159,-81.2494 311.8919,-72.0894 310.3417,-82.5702 317.2159,-81.2494"/>
</g>
<!-- Callwise&#45;&gt;From_compute -->
<g id="edge6" class="edge">
<title>Callwise&#45;&gt;From_compute</title>
<path fill="none" stroke="#000000" d="M378.353,-468.6889C349.7515,-430.7876 281.4651,-340.2976 247.823,-295.7167"/>
<polygon fill="#000000" stroke="#000000" points="250.5874,-293.5695 241.77,-287.6955 244.9999,-297.7861 250.5874,-293.5695"/>
</g>
<!-- Callwise&#45;&gt;Function_Froms -->
<g id="edge8" class="edge">
<title>Callwise&#45;&gt;Function_Froms</title>
<path fill="none" stroke="#000000" d="M423.3238,-474.1456C483.3241,-449.8893 611.4952,-388.2689 662.4164,-288 699.419,-215.1381 634.3917,-122.8766 597.3995,-79.1638"/>
<polygon fill="#000000" stroke="#000000" points="600.0355,-76.8612 590.8495,-71.5823 594.7386,-81.4376 600.0355,-76.8612"/>
</g>
<!-- From_register -->
<g id="node7" class="node">
<title>From_register</title>
<g id="a_node7"><a xlink:href="From_register.html" xlink:title="From_register">
<ellipse fill="#00ced1" stroke="#00ced1" cx="510.4164" cy="-270" rx="61.1893" ry="18"/>
<text text-anchor="middle" x="510.4164" y="-266.3" font-family="Times,serif" font-size="14.00" fill="#000000">From_register</text>
</a>
</g>
</g>
<!-- From_register&#45;&gt;From_parameters -->
<g id="edge9" class="edge">
<title>From_register&#45;&gt;From_parameters</title>
<path fill="none" stroke="#000000" d="M493.8859,-252.3238C458.0638,-214.019 373.1815,-123.2538 331.8465,-79.0539"/>
<polygon fill="#000000" stroke="#000000" points="334.2788,-76.5307 324.892,-71.6175 329.1661,-81.312 334.2788,-76.5307"/>
</g>
<!-- From_register&#45;&gt;Function_Froms -->
<g id="edge10" class="edge">
<title>From_register&#45;&gt;Function_Froms</title>
<path fill="none" stroke="#000000" d="M515.7629,-251.9555C526.9394,-214.235 552.8405,-126.8188 566.1675,-81.8399"/>
<polygon fill="#000000" stroke="#000000" points="569.5549,-82.7274 569.0401,-72.1451 562.8433,-80.7387 569.5549,-82.7274"/>
</g>
<!-- From_register_gui -->
<g id="node8" class="node">
<title>From_register_gui</title>
<g id="a_node8"><a xlink:href="From_register_gui.html" xlink:title="From_register_gui">
<ellipse fill="#00ced1" stroke="#00ced1" cx="601.4164" cy="-486" rx="76.8869" ry="18"/>
<text text-anchor="middle" x="601.4164" y="-482.3" font-family="Times,serif" font-size="14.00" fill="#000000">From_register_gui</text>
</a>
</g>
</g>
</g>
</svg>
