<?xml version="1.0" encoding="UTF-8" standalone="no"?>
<!DOCTYPE svg PUBLIC "-//W3C//DTD SVG 1.1//EN"
 "http://www.w3.org/Graphics/SVG/1.1/DTD/svg11.dtd">
<!-- Generated by graphviz version 2.40.1 (20161225.0304)
 -->
<!-- Title: Plugin architecture (pdg) Pages: 1 -->
<svg width="720pt" height="454pt"
 viewBox="0.00 0.00 720.00 453.68" xmlns="http://www.w3.org/2000/svg" xmlns:xlink="http://www.w3.org/1999/xlink">
<g id="graph0" class="graph" transform="scale(.8234 .8234) rotate(0) translate(4 547)">
<title>Plugin architecture (pdg)</title>
<polygon fill="#ffffff" stroke="transparent" points="-4,4 -4,-547 870.4458,-547 870.4458,4 -4,4"/>
<!-- Pdg -->
<g id="node1" class="node">
<title>Pdg</title>
<g id="a_node1"><a xlink:href="Pdg.html" xlink:title="Pdg">
<ellipse fill="#00ced1" stroke="#00ced1" cx="136.4458" cy="-518" rx="27" ry="18"/>
<text text-anchor="middle" x="136.4458" y="-514.3" font-family="Times,serif" font-size="14.00" fill="#000000">Pdg</text>
</a>
</g>
</g>
<!-- Marks -->
<g id="node2" class="node">
<title>Marks</title>
<g id="a_node2"><a xlink:href="Marks.html" xlink:title="Marks">
<ellipse fill="#00ced1" stroke="#00ced1" cx="136.4458" cy="-420" rx="33.5952" ry="18"/>
<text text-anchor="middle" x="136.4458" y="-416.3" font-family="Times,serif" font-size="14.00" fill="#000000">Marks</text>
</a>
</g>
</g>
<!-- Pdg&#45;&gt;Marks -->
<g id="edge1" class="edge">
<title>Pdg&#45;&gt;Marks</title>
<path fill="none" stroke="#000000" d="M136.4458,-499.5669C136.4458,-485.1034 136.4458,-464.7239 136.4458,-448.2111"/>
<polygon fill="#000000" stroke="#000000" points="139.9459,-448.0193 136.4458,-438.0193 132.9459,-448.0193 139.9459,-448.0193"/>
</g>
<!-- Pdg_parameters -->
<g id="node3" class="node">
<title>Pdg_parameters</title>
<g id="a_node3"><a xlink:href="Pdg_parameters.html" xlink:title="Pdg_parameters">
<ellipse fill="#00ced1" stroke="#00ced1" cx="572.4458" cy="-123" rx="67.6881" ry="18"/>
<text text-anchor="middle" x="572.4458" y="-119.3" font-family="Times,serif" font-size="14.00" fill="#000000">Pdg_parameters</text>
</a>
</g>
</g>
<!-- Marks&#45;&gt;Pdg_parameters -->
<g id="edge18" class="edge">
<title>Marks&#45;&gt;Pdg_parameters</title>
<path fill="none" stroke="#000000" d="M154.2894,-404.4047C197.4439,-367.1058 311.643,-270.8791 416.4458,-204 453.0882,-180.6169 497.25,-158.1783 529.2196,-142.8722"/>
<polygon fill="#000000" stroke="#000000" points="530.7802,-146.0057 538.3116,-138.5539 527.777,-139.6827 530.7802,-146.0057"/>
</g>
<!-- PdgTypes -->
<g id="node6" class="node">
<title>PdgTypes</title>
<g id="a_node6"><a xlink:href="PdgTypes.html" xlink:title="PdgTypes">
<ellipse fill="#eead0e" stroke="#eead0e" cx="237.4458" cy="-123" rx="46.2923" ry="18"/>
<text text-anchor="middle" x="237.4458" y="-119.3" font-family="Times,serif" font-size="14.00" fill="#000000">PdgTypes</text>
</a>
</g>
</g>
<!-- Marks&#45;&gt;PdgTypes -->
<g id="edge20" class="edge">
<title>Marks&#45;&gt;PdgTypes</title>
<path fill="none" stroke="#000000" d="M138.234,-401.9808C142.4683,-364.0524 155.0428,-273.7315 184.4458,-204 192.7968,-184.1949 206.0324,-163.9613 217.1875,-148.6708"/>
<polygon fill="#000000" stroke="#000000" points="220.2765,-150.3843 223.4623,-140.2798 214.6706,-146.1921 220.2765,-150.3843"/>
</g>
<!-- PdgIndex -->
<g id="node8" class="node">
<title>PdgIndex</title>
<g id="a_node8"><a xlink:href="PdgIndex.html" xlink:title="PdgIndex">
<ellipse fill="#eead0e" stroke="#eead0e" cx="312.4458" cy="-25" rx="44.393" ry="18"/>
<text text-anchor="middle" x="312.4458" y="-21.3" font-family="Times,serif" font-size="14.00" fill="#000000">PdgIndex</text>
</a>
</g>
</g>
<!-- Marks&#45;&gt;PdgIndex -->
<g id="edge22" class="edge">
<title>Marks&#45;&gt;PdgIndex</title>
<path fill="none" stroke="#000000" d="M133.9122,-402.0113C127.6528,-350.5126 116.4191,-200.1144 182.4458,-105 203.4904,-74.6843 240.1077,-53.6779 269.1281,-40.8233"/>
<polygon fill="#000000" stroke="#000000" points="270.8132,-43.9101 278.6451,-36.7748 268.073,-37.4687 270.8132,-43.9101"/>
</g>
<!-- Sets -->
<g id="node9" class="node">
<title>Sets</title>
<g id="a_node9"><a xlink:href="Sets.html" xlink:title="Sets">
<ellipse fill="#00ced1" stroke="#00ced1" cx="388.4458" cy="-321" rx="27" ry="18"/>
<text text-anchor="middle" x="388.4458" y="-317.3" font-family="Times,serif" font-size="14.00" fill="#000000">Sets</text>
</a>
</g>
</g>
<!-- Marks&#45;&gt;Sets -->
<g id="edge19" class="edge">
<title>Marks&#45;&gt;Sets</title>
<path fill="none" stroke="#000000" d="M163.8939,-409.2168C210.6542,-390.8467 305.5585,-353.5629 355.702,-333.8636"/>
<polygon fill="#000000" stroke="#000000" points="357.0787,-337.0833 365.1064,-330.169 354.5191,-330.568 357.0787,-337.0833"/>
</g>
<!-- PdgMarks -->
<g id="node11" class="node">
<title>PdgMarks</title>
<g id="a_node11"><a xlink:href="PdgMarks.html" xlink:title="PdgMarks">
<ellipse fill="#eead0e" stroke="#eead0e" cx="47.4458" cy="-222" rx="47.3916" ry="18"/>
<text text-anchor="middle" x="47.4458" y="-218.3" font-family="Times,serif" font-size="14.00" fill="#000000">PdgMarks</text>
</a>
</g>
</g>
<!-- Marks&#45;&gt;PdgMarks -->
<g id="edge21" class="edge">
<title>Marks&#45;&gt;PdgMarks</title>
<path fill="none" stroke="#000000" d="M128.5476,-402.4288C112.9512,-367.7312 78.1087,-290.2163 59.5781,-248.9909"/>
<polygon fill="#000000" stroke="#000000" points="62.7464,-247.5024 55.4542,-239.8164 56.3617,-250.3723 62.7464,-247.5024"/>
</g>
<!-- CtrlDpds -->
<g id="node4" class="node">
<title>CtrlDpds</title>
<g id="a_node4"><a xlink:href="CtrlDpds.html" xlink:title="CtrlDpds">
<ellipse fill="#00ced1" stroke="#00ced1" cx="681.4458" cy="-222" rx="42.7926" ry="18"/>
<text text-anchor="middle" x="681.4458" y="-218.3" font-family="Times,serif" font-size="14.00" fill="#000000">CtrlDpds</text>
</a>
</g>
</g>
<!-- CtrlDpds&#45;&gt;Pdg_parameters -->
<g id="edge2" class="edge">
<title>CtrlDpds&#45;&gt;Pdg_parameters</title>
<path fill="none" stroke="#000000" d="M663.4467,-205.6522C645.9377,-189.7495 619.1267,-165.3982 599.1354,-147.241"/>
<polygon fill="#000000" stroke="#000000" points="601.3282,-144.5045 591.5725,-140.372 596.6218,-149.6862 601.3282,-144.5045"/>
</g>
<!-- Pdg_state -->
<g id="node5" class="node">
<title>Pdg_state</title>
<g id="a_node5"><a xlink:href="Pdg_state.html" xlink:title="Pdg_state">
<ellipse fill="#00ced1" stroke="#00ced1" cx="499.4458" cy="-222" rx="44.6926" ry="18"/>
<text text-anchor="middle" x="499.4458" y="-218.3" font-family="Times,serif" font-size="14.00" fill="#000000">Pdg_state</text>
</a>
</g>
</g>
<!-- Pdg_state&#45;&gt;Pdg_parameters -->
<g id="edge3" class="edge">
<title>Pdg_state&#45;&gt;Pdg_parameters</title>
<path fill="none" stroke="#000000" d="M512.4967,-204.3008C523.8451,-188.9105 540.438,-166.4078 553.2915,-148.9763"/>
<polygon fill="#000000" stroke="#000000" points="556.1439,-151.0055 559.2617,-140.8798 550.5099,-146.8511 556.1439,-151.0055"/>
</g>
<!-- Pdg_state&#45;&gt;PdgTypes -->
<g id="edge4" class="edge">
<title>Pdg_state&#45;&gt;PdgTypes</title>
<path fill="none" stroke="#000000" d="M466.5286,-209.5618C419.4014,-191.7542 332.6473,-158.9731 280.483,-139.2622"/>
<polygon fill="#000000" stroke="#000000" points="281.4397,-135.8822 270.8481,-135.6215 278.9654,-142.4303 281.4397,-135.8822"/>
</g>
<!-- PdgTypes&#45;&gt;PdgIndex -->
<g id="edge30" class="edge">
<title>PdgTypes&#45;&gt;PdgIndex</title>
<path fill="none" stroke="#000000" d="M250.8543,-105.4796C262.586,-90.1501 279.7731,-67.6924 293.0124,-50.393"/>
<polygon fill="#000000" stroke="#000000" points="295.8553,-52.4372 299.1534,-42.3688 290.2964,-48.1829 295.8553,-52.4372"/>
</g>
<!-- Build -->
<g id="node7" class="node">
<title>Build</title>
<g id="a_node7"><a xlink:href="Build.html" xlink:title="Build">
<ellipse fill="#00ced1" stroke="#00ced1" cx="631.4458" cy="-321" rx="30.5947" ry="18"/>
<text text-anchor="middle" x="631.4458" y="-317.3" font-family="Times,serif" font-size="14.00" fill="#000000">Build</text>
</a>
</g>
</g>
<!-- Build&#45;&gt;Pdg_parameters -->
<g id="edge7" class="edge">
<title>Build&#45;&gt;Pdg_parameters</title>
<path fill="none" stroke="#000000" d="M626.1059,-303.0796C615.7767,-268.4155 592.9975,-191.9701 580.7022,-150.708"/>
<polygon fill="#000000" stroke="#000000" points="584.0262,-149.6066 577.8161,-141.0226 577.3177,-151.6057 584.0262,-149.6066"/>
</g>
<!-- Build&#45;&gt;CtrlDpds -->
<g id="edge5" class="edge">
<title>Build&#45;&gt;CtrlDpds</title>
<path fill="none" stroke="#000000" d="M640.3848,-303.3008C648.0163,-288.1903 659.1106,-266.2237 667.8437,-248.9321"/>
<polygon fill="#000000" stroke="#000000" points="671.0315,-250.3838 672.4156,-239.8798 664.7832,-247.2281 671.0315,-250.3838"/>
</g>
<!-- Build&#45;&gt;Pdg_state -->
<g id="edge8" class="edge">
<title>Build&#45;&gt;Pdg_state</title>
<path fill="none" stroke="#000000" d="M612.5334,-306.8157C590.7573,-290.4836 554.7113,-263.4491 529.174,-244.2962"/>
<polygon fill="#000000" stroke="#000000" points="531.0523,-241.3299 520.9523,-238.1298 526.8523,-246.9299 531.0523,-241.3299"/>
</g>
<!-- Build&#45;&gt;PdgTypes -->
<g id="edge9" class="edge">
<title>Build&#45;&gt;PdgTypes</title>
<path fill="none" stroke="#000000" d="M606.1041,-310.9221C569.9574,-296.3325 501.7364,-267.9981 445.4458,-240 382.6771,-208.7798 312.0166,-167.7176 271.3172,-143.4622"/>
<polygon fill="#000000" stroke="#000000" points="272.9925,-140.386 262.6134,-138.2588 269.4006,-146.3942 272.9925,-140.386"/>
</g>
<!-- Build&#45;&gt;PdgIndex -->
<g id="edge6" class="edge">
<title>Build&#45;&gt;PdgIndex</title>
<path fill="none" stroke="#000000" d="M655.7039,-309.8388C680.4496,-296.9545 717.4192,-273.1923 733.4458,-240 764.1723,-176.3631 709.6861,-141.9443 649.4458,-105 601.8238,-75.7943 445.8055,-46.8411 363.8239,-33.1587"/>
<polygon fill="#000000" stroke="#000000" points="364.1626,-29.6673 353.7254,-31.4881 363.02,-36.5734 364.1626,-29.6673"/>
</g>
<!-- Sets&#45;&gt;Pdg_parameters -->
<g id="edge10" class="edge">
<title>Sets&#45;&gt;Pdg_parameters</title>
<path fill="none" stroke="#000000" d="M393.776,-302.9787C401.7702,-278.3539 418.8297,-233.8497 445.4458,-204 468.5653,-178.0716 501.8869,-157.2419 528.5978,-143.2009"/>
<polygon fill="#000000" stroke="#000000" points="530.4355,-146.1922 537.7426,-138.5203 527.2461,-139.961 530.4355,-146.1922"/>
</g>
<!-- Sets&#45;&gt;Pdg_state -->
<g id="edge11" class="edge">
<title>Sets&#45;&gt;Pdg_state</title>
<path fill="none" stroke="#000000" d="M404.8242,-306.3922C422.7915,-290.3673 451.8888,-264.4157 473.0786,-245.5167"/>
<polygon fill="#000000" stroke="#000000" points="475.6397,-247.9223 480.773,-238.6541 470.9804,-242.6982 475.6397,-247.9223"/>
</g>
<!-- Sets&#45;&gt;PdgTypes -->
<g id="edge12" class="edge">
<title>Sets&#45;&gt;PdgTypes</title>
<path fill="none" stroke="#000000" d="M370.1117,-307.6935C350.5602,-292.8283 319.5635,-267.25 298.4458,-240 276.7399,-211.9912 258.9935,-175.1124 248.3466,-150.3094"/>
<polygon fill="#000000" stroke="#000000" points="251.4537,-148.6681 244.3585,-140.8 244.9984,-151.3755 251.4537,-148.6681"/>
</g>
<!-- Sets&#45;&gt;PdgIndex -->
<g id="edge13" class="edge">
<title>Sets&#45;&gt;PdgIndex</title>
<path fill="none" stroke="#000000" d="M383.8061,-302.9295C371.0066,-253.0789 335.1267,-113.3361 319.6744,-53.1534"/>
<polygon fill="#000000" stroke="#000000" points="322.9984,-52.0255 317.1214,-43.2102 316.2183,-53.7664 322.9984,-52.0255"/>
</g>
<!-- Annot -->
<g id="node10" class="node">
<title>Annot</title>
<g id="a_node10"><a xlink:href="Annot.html" xlink:title="Annot">
<ellipse fill="#00ced1" stroke="#00ced1" cx="524.4458" cy="-420" rx="32.4942" ry="18"/>
<text text-anchor="middle" x="524.4458" y="-416.3" font-family="Times,serif" font-size="14.00" fill="#000000">Annot</text>
</a>
</g>
</g>
<!-- Annot&#45;&gt;Pdg_parameters -->
<g id="edge15" class="edge">
<title>Annot&#45;&gt;Pdg_parameters</title>
<path fill="none" stroke="#000000" d="M527.3761,-401.8684C535.46,-351.8494 558.121,-211.6345 567.8804,-151.2485"/>
<polygon fill="#000000" stroke="#000000" points="571.3524,-151.702 569.4928,-141.2717 564.4421,-150.5851 571.3524,-151.702"/>
</g>
<!-- Annot&#45;&gt;PdgTypes -->
<g id="edge17" class="edge">
<title>Annot&#45;&gt;PdgTypes</title>
<path fill="none" stroke="#000000" d="M496.092,-411.098C460.1173,-398.8573 397.3576,-374.2635 352.4458,-339 307.9519,-304.0645 298.8274,-290.0421 272.4458,-240 257.4593,-211.5727 247.9497,-175.7932 242.6851,-151.3327"/>
<polygon fill="#000000" stroke="#000000" points="246.0607,-150.3705 240.6228,-141.2777 239.2035,-151.777 246.0607,-150.3705"/>
</g>
<!-- Annot&#45;&gt;PdgIndex -->
<g id="edge14" class="edge">
<title>Annot&#45;&gt;PdgIndex</title>
<path fill="none" stroke="#000000" d="M552.0392,-410.2741C618.9502,-384.8552 782.1635,-310.9234 751.4458,-204 737.1107,-154.102 731.9931,-134.7495 689.4458,-105 637.5705,-68.7283 456.4367,-42.3722 365.4501,-31.0884"/>
<polygon fill="#000000" stroke="#000000" points="365.6959,-27.5924 355.3446,-29.8512 364.8452,-34.5405 365.6959,-27.5924"/>
</g>
<!-- Annot&#45;&gt;Sets -->
<g id="edge16" class="edge">
<title>Annot&#45;&gt;Sets</title>
<path fill="none" stroke="#000000" d="M504.6702,-405.6046C481.1072,-388.452 441.6277,-359.7133 415.313,-340.5577"/>
<polygon fill="#000000" stroke="#000000" points="417.0802,-337.5151 406.9355,-334.4594 412.9605,-343.1744 417.0802,-337.5151"/>
</g>
<!-- PdgMarks&#45;&gt;PdgTypes -->
<g id="edge31" class="edge">
<title>PdgMarks&#45;&gt;PdgTypes</title>
<path fill="none" stroke="#000000" d="M75.4809,-207.3922C108.6923,-190.0874 164.1196,-161.2068 200.7283,-142.1318"/>
<polygon fill="#000000" stroke="#000000" points="202.3541,-145.2313 209.6051,-137.5065 199.1194,-139.0235 202.3541,-145.2313"/>
</g>
<!-- PdgMarks&#45;&gt;PdgIndex -->
<g id="edge32" class="edge">
<title>PdgMarks&#45;&gt;PdgIndex</title>
<path fill="none" stroke="#000000" d="M52.4035,-204.0505C60.2738,-178.6876 77.9442,-132.4045 108.4458,-105 151.9868,-65.8801 216.881,-44.8857 261.7321,-34.3605"/>
<polygon fill="#000000" stroke="#000000" points="262.5607,-37.7616 271.5466,-32.1487 261.0218,-30.9328 262.5607,-37.7616"/>
</g>
<!-- Register -->
<g id="node12" class="node">
<title>Register</title>
<g id="a_node12"><a xlink:href="Register.html" xlink:title="Register">
<ellipse fill="#00ced1" stroke="#00ced1" cx="524.4458" cy="-518" rx="40.0939" ry="18"/>
<text text-anchor="middle" x="524.4458" y="-514.3" font-family="Times,serif" font-size="14.00" fill="#000000">Register</text>
</a>
</g>
</g>
<!-- Register&#45;&gt;Marks -->
<g id="edge27" class="edge">
<title>Register&#45;&gt;Marks</title>
<path fill="none" stroke="#000000" d="M487.3073,-510.8812C424.3529,-498.455 292.9459,-470.9613 184.4458,-438 180.8266,-436.9005 177.0862,-435.67 173.3645,-434.3823"/>
<polygon fill="#000000" stroke="#000000" points="174.2474,-430.9804 163.653,-430.8906 171.879,-437.5676 174.2474,-430.9804"/>
</g>
<!-- Register&#45;&gt;Pdg_parameters -->
<g id="edge24" class="edge">
<title>Register&#45;&gt;Pdg_parameters</title>
<path fill="none" stroke="#000000" d="M543.5909,-502.0481C588.5618,-463.0659 699.6838,-357.52 733.4458,-240 737.8637,-224.622 741.8406,-217.6208 733.4458,-204 712.0622,-169.3045 670.7588,-148.946 635.3419,-137.3171"/>
<polygon fill="#000000" stroke="#000000" points="636.1184,-133.8932 625.5301,-134.264 634.0386,-140.5771 636.1184,-133.8932"/>
</g>
<!-- Register&#45;&gt;PdgTypes -->
<g id="edge25" class="edge">
<title>Register&#45;&gt;PdgTypes</title>
<path fill="none" stroke="#000000" d="M501.2345,-503.0823C458.8596,-474.9849 367.8695,-410.5687 308.4458,-339 276.2919,-300.2746 269.3511,-287.7551 253.4458,-240 243.7267,-210.8188 239.9041,-175.6584 238.4047,-151.5484"/>
<polygon fill="#000000" stroke="#000000" points="241.8867,-151.112 237.8665,-141.3096 234.8964,-151.4796 241.8867,-151.112"/>
</g>
<!-- Register&#45;&gt;Build -->
<g id="edge28" class="edge">
<title>Register&#45;&gt;Build</title>
<path fill="none" stroke="#000000" d="M534.13,-500.1701C553.0772,-465.2861 595.1232,-387.8743 617.2308,-347.1716"/>
<polygon fill="#000000" stroke="#000000" points="620.3163,-348.8237 622.0137,-338.3657 614.1651,-345.4826 620.3163,-348.8237"/>
</g>
<!-- Register&#45;&gt;PdgIndex -->
<g id="edge26" class="edge">
<title>Register&#45;&gt;PdgIndex</title>
<path fill="none" stroke="#000000" d="M563.6775,-513.8774C653.5099,-502.0488 866.4458,-459.4124 866.4458,-321 866.4458,-321 866.4458,-321 866.4458,-222 866.4458,-139.1925 796.5049,-139.9745 721.4458,-105 602.978,-49.7988 448.0545,-32.6678 367.109,-27.3654"/>
<polygon fill="#000000" stroke="#000000" points="366.8603,-23.8435 356.6635,-26.7204 366.4288,-30.8302 366.8603,-23.8435"/>
</g>
<!-- Register&#45;&gt;Sets -->
<g id="edge23" class="edge">
<title>Register&#45;&gt;Sets</title>
<path fill="none" stroke="#000000" d="M512.3767,-500.5176C488.1509,-465.4258 433.537,-386.316 405.6044,-345.8548"/>
<polygon fill="#000000" stroke="#000000" points="408.4708,-343.8462 399.9092,-337.6052 402.7102,-347.8231 408.4708,-343.8462"/>
</g>
<!-- Register&#45;&gt;Annot -->
<g id="edge29" class="edge">
<title>Register&#45;&gt;Annot</title>
<path fill="none" stroke="#000000" d="M524.4458,-499.5669C524.4458,-485.1034 524.4458,-464.7239 524.4458,-448.2111"/>
<polygon fill="#000000" stroke="#000000" points="527.9459,-448.0193 524.4458,-438.0193 520.9459,-448.0193 527.9459,-448.0193"/>
</g>
</g>
</svg>
