<?xml version="1.0" encoding="UTF-8" standalone="no"?>
<!DOCTYPE svg PUBLIC "-//W3C//DTD SVG 1.1//EN"
 "http://www.w3.org/Graphics/SVG/1.1/DTD/svg11.dtd">
<!-- Generated by graphviz version 2.40.1 (20161225.0304)
 -->
<!-- Title: Plugin architecture (occurrence) Pages: 1 -->
<svg width="718pt" height="540pt"
 viewBox="0.00 0.00 718.11 540.00" xmlns="http://www.w3.org/2000/svg" xmlns:xlink="http://www.w3.org/1999/xlink">
<g id="graph0" class="graph" transform="scale(.9854 .9854) rotate(0) translate(4 544)">
<title>Plugin architecture (occurrence)</title>
<polygon fill="#ffffff" stroke="transparent" points="-4,4 -4,-544 724.7463,-544 724.7463,4 -4,4"/>
<!-- Occurrence -->
<g id="node1" class="node">
<title>Occurrence</title>
<g id="a_node1"><a xlink:href="Occurrence.html" xlink:title="Occurrence">
<ellipse fill="#00ced1" stroke="#00ced1" cx="159.3479" cy="-486" rx="51.1914" ry="18"/>
<text text-anchor="middle" x="159.3479" y="-482.3" font-family="Times,serif" font-size="14.00" fill="#000000">Occurrence</text>
</a>
</g>
</g>
<!-- Options -->
<g id="node2" class="node">
<title>Options</title>
<g id="a_node2"><a xlink:href="Options.html" xlink:title="Options">
<ellipse fill="#00ced1" stroke="#00ced1" cx="547.3479" cy="-54" rx="38.1938" ry="18"/>
<text text-anchor="middle" x="547.3479" y="-50.3" font-family="Times,serif" font-size="14.00" fill="#000000">Options</text>
</a>
</g>
</g>
<!-- Register -->
<g id="node3" class="node">
<title>Register</title>
<g id="a_node3"><a xlink:href="Register.html" xlink:title="Register">
<ellipse fill="#00ced1" stroke="#00ced1" cx="547.3479" cy="-270" rx="40.0939" ry="18"/>
<text text-anchor="middle" x="547.3479" y="-266.3" font-family="Times,serif" font-size="14.00" fill="#000000">Register</text>
</a>
</g>
</g>
<!-- Register&#45;&gt;Options -->
<g id="edge1" class="edge">
<title>Register&#45;&gt;Options</title>
<path fill="none" stroke="#000000" d="M547.3479,-251.9555C547.3479,-214.3938 547.3479,-127.5541 547.3479,-82.4103"/>
<polygon fill="#000000" stroke="#000000" points="550.848,-82.145 547.3479,-72.1451 543.848,-82.1451 550.848,-82.145"/>
</g>
<!-- Register_gui -->
<g id="node4" class="node">
<title>Register_gui</title>
<g id="a_node4"><a xlink:href="Register_gui.html" xlink:title="Register_gui">
<ellipse fill="#00ced1" stroke="#00ced1" cx="547.3479" cy="-486" rx="55.7903" ry="18"/>
<text text-anchor="middle" x="547.3479" y="-482.3" font-family="Times,serif" font-size="14.00" fill="#000000">Register_gui</text>
</a>
</g>
</g>
<!-- Register_gui&#45;&gt;Register -->
<g id="edge2" class="edge">
<title>Register_gui&#45;&gt;Register</title>
<path fill="none" stroke="#000000" d="M547.3479,-467.9555C547.3479,-430.3938 547.3479,-343.5541 547.3479,-298.4103"/>
<polygon fill="#000000" stroke="#000000" points="550.848,-298.145 547.3479,-288.1451 543.848,-298.1451 550.848,-298.145"/>
</g>
</g>
</svg>
