<?xml version="1.0" encoding="UTF-8" standalone="no"?>
<!DOCTYPE svg PUBLIC "-//W3C//DTD SVG 1.1//EN"
 "http://www.w3.org/Graphics/SVG/1.1/DTD/svg11.dtd">
<!-- Generated by graphviz version 2.40.1 (20161225.0304)
 -->
<!-- Title: Plugin architecture (variadic) Pages: 1 -->
<svg width="720pt" height="455pt"
 viewBox="0.00 0.00 720.00 455.01" xmlns="http://www.w3.org/2000/svg" xmlns:xlink="http://www.w3.org/1999/xlink">
<g id="graph0" class="graph" transform="scale(.6633 .6633) rotate(0) translate(4 682)">
<title>Plugin architecture (variadic)</title>
<polygon fill="#ffffff" stroke="transparent" points="-4,4 -4,-682 1081.5079,-682 1081.5079,4 -4,4"/>
<!-- Variadic -->
<g id="node1" class="node">
<title>Variadic</title>
<g id="a_node1"><a xlink:href="Variadic.html" xlink:title="Variadic">
<ellipse fill="#00ced1" stroke="#00ced1" cx="635.5079" cy="-652" rx="40.8928" ry="18"/>
<text text-anchor="middle" x="635.5079" y="-648.3" font-family="Times,serif" font-size="14.00" fill="#000000">Variadic</text>
</a>
</g>
</g>
<!-- Options -->
<g id="node2" class="node">
<title>Options</title>
<g id="a_node2"><a xlink:href="Options.html" xlink:title="Options">
<ellipse fill="#00ced1" stroke="#00ced1" cx="778.5079" cy="-26" rx="38.1938" ry="18"/>
<text text-anchor="middle" x="778.5079" y="-22.3" font-family="Times,serif" font-size="14.00" fill="#000000">Options</text>
</a>
</g>
</g>
<!-- Extends -->
<g id="node3" class="node">
<title>Extends</title>
<g id="a_node3"><a xlink:href="Extends.html" xlink:title="Extends">
<ellipse fill="#00ced1" stroke="#00ced1" cx="506.5079" cy="-130" rx="38.9931" ry="18"/>
<text text-anchor="middle" x="506.5079" y="-126.3" font-family="Times,serif" font-size="14.00" fill="#000000">Extends</text>
</a>
</g>
</g>
<!-- Extends&#45;&gt;Options -->
<g id="edge1" class="edge">
<title>Extends&#45;&gt;Options</title>
<path fill="none" stroke="#000000" d="M536.6559,-118.4728C586.109,-99.5643 684.4302,-61.9709 739.2546,-41.0086"/>
<polygon fill="#000000" stroke="#000000" points="740.5489,-44.2609 748.6394,-37.4203 738.0489,-37.7226 740.5489,-44.2609"/>
</g>
<!-- Va_build -->
<g id="node4" class="node">
<title>Va_build</title>
<g id="a_node4"><a xlink:href="Va_build.html" xlink:title="Va_build">
<ellipse fill="#00ced1" stroke="#00ced1" cx="283.5079" cy="-339" rx="43.5923" ry="18"/>
<text text-anchor="middle" x="283.5079" y="-335.3" font-family="Times,serif" font-size="14.00" fill="#000000">Va_build</text>
</a>
</g>
</g>
<!-- Environment -->
<g id="node5" class="node">
<title>Environment</title>
<g id="a_node5"><a xlink:href="Environment.html" xlink:title="Environment">
<ellipse fill="#00ced1" stroke="#00ced1" cx="734.5079" cy="-339" rx="57.3905" ry="18"/>
<text text-anchor="middle" x="734.5079" y="-335.3" font-family="Times,serif" font-size="14.00" fill="#000000">Environment</text>
</a>
</g>
</g>
<!-- Replacements -->
<g id="node6" class="node">
<title>Replacements</title>
<g id="a_node6"><a xlink:href="Replacements.html" xlink:title="Replacements">
<ellipse fill="#00ced1" stroke="#00ced1" cx="85.5079" cy="-339" rx="60.3893" ry="18"/>
<text text-anchor="middle" x="85.5079" y="-335.3" font-family="Times,serif" font-size="14.00" fill="#000000">Replacements</text>
</a>
</g>
</g>
<!-- Replacements&#45;&gt;Options -->
<g id="edge2" class="edge">
<title>Replacements&#45;&gt;Options</title>
<path fill="none" stroke="#000000" d="M81.9806,-320.7854C74.7799,-277.5901 63.6027,-168.3556 121.5079,-112 165.0884,-69.5858 584.938,-38.5636 729.719,-29.0524"/>
<polygon fill="#000000" stroke="#000000" points="730.31,-32.5215 740.0614,-28.379 729.8551,-25.5363 730.31,-32.5215"/>
</g>
<!-- Format_string -->
<g id="node7" class="node">
<title>Format_string</title>
<g id="a_node7"><a xlink:href="Format_string.html" xlink:title="Format_string">
<ellipse fill="#00ced1" stroke="#00ced1" cx="368.5079" cy="-235" rx="61.1893" ry="18"/>
<text text-anchor="middle" x="368.5079" y="-231.3" font-family="Times,serif" font-size="14.00" fill="#000000">Format_string</text>
</a>
</g>
</g>
<!-- Format_pprint -->
<g id="node8" class="node">
<title>Format_pprint</title>
<g id="a_node8"><a xlink:href="Format_pprint.html" xlink:title="Format_pprint">
<ellipse fill="#00ced1" stroke="#00ced1" cx="683.5079" cy="-235" rx="61.99" ry="18"/>
<text text-anchor="middle" x="683.5079" y="-231.3" font-family="Times,serif" font-size="14.00" fill="#000000">Format_pprint</text>
</a>
</g>
</g>
<!-- Format_pprint&#45;&gt;Extends -->
<g id="edge3" class="edge">
<title>Format_pprint&#45;&gt;Extends</title>
<path fill="none" stroke="#000000" d="M656.2396,-218.8239C624.8614,-200.2097 573.3402,-169.6463 539.6691,-149.6719"/>
<polygon fill="#000000" stroke="#000000" points="541.0634,-146.4295 530.6771,-144.3376 537.4919,-152.4499 541.0634,-146.4295"/>
</g>
<!-- Format_types -->
<g id="node9" class="node">
<title>Format_types</title>
<g id="a_node9"><a xlink:href="Format_types.html" xlink:title="Format_types">
<ellipse fill="#00ced1" stroke="#00ced1" cx="792.5079" cy="-130" rx="59.5901" ry="18"/>
<text text-anchor="middle" x="792.5079" y="-126.3" font-family="Times,serif" font-size="14.00" fill="#000000">Format_types</text>
</a>
</g>
</g>
<!-- Format_pprint&#45;&gt;Format_types -->
<g id="edge4" class="edge">
<title>Format_pprint&#45;&gt;Format_types</title>
<path fill="none" stroke="#000000" d="M701.507,-217.6614C719.4152,-200.4104 747.0543,-173.7855 767.1748,-154.4035"/>
<polygon fill="#000000" stroke="#000000" points="769.7082,-156.8228 774.482,-147.3644 764.8518,-151.7814 769.7082,-156.8228"/>
</g>
<!-- Format_typer -->
<g id="node10" class="node">
<title>Format_typer</title>
<g id="a_node10"><a xlink:href="Format_typer.html" xlink:title="Format_typer">
<ellipse fill="#00ced1" stroke="#00ced1" cx="506.5079" cy="-235" rx="59.2899" ry="18"/>
<text text-anchor="middle" x="506.5079" y="-231.3" font-family="Times,serif" font-size="14.00" fill="#000000">Format_typer</text>
</a>
</g>
</g>
<!-- Format_typer&#45;&gt;Extends -->
<g id="edge5" class="edge">
<title>Format_typer&#45;&gt;Extends</title>
<path fill="none" stroke="#000000" d="M506.5079,-216.7104C506.5079,-200.6002 506.5079,-176.8775 506.5079,-158.3159"/>
<polygon fill="#000000" stroke="#000000" points="510.008,-158.08 506.5079,-148.08 503.008,-158.08 510.008,-158.08"/>
</g>
<!-- Format_typer&#45;&gt;Format_types -->
<g id="edge6" class="edge">
<title>Format_typer&#45;&gt;Format_types</title>
<path fill="none" stroke="#000000" d="M544.4865,-221.0568C596.0896,-202.1116 688.3571,-168.2372 744.6401,-147.5739"/>
<polygon fill="#000000" stroke="#000000" points="746.1911,-150.7329 754.3722,-144.0009 743.7786,-144.1617 746.1911,-150.7329"/>
</g>
<!-- Format_parser -->
<g id="node11" class="node">
<title>Format_parser</title>
<g id="a_node11"><a xlink:href="Format_parser.html" xlink:title="Format_parser">
<ellipse fill="#00ced1" stroke="#00ced1" cx="521.5079" cy="-339" rx="62.2891" ry="18"/>
<text text-anchor="middle" x="521.5079" y="-335.3" font-family="Times,serif" font-size="14.00" fill="#000000">Format_parser</text>
</a>
</g>
</g>
<!-- Format_parser&#45;&gt;Options -->
<g id="edge9" class="edge">
<title>Format_parser&#45;&gt;Options</title>
<path fill="none" stroke="#000000" d="M534.066,-321.3139C551.2608,-297.2983 583.3313,-253.2148 612.5079,-217 662.0916,-155.4553 723.9608,-86.0903 756.3644,-50.2869"/>
<polygon fill="#000000" stroke="#000000" points="759.0677,-52.5161 763.1928,-42.7573 753.8824,-47.8137 759.0677,-52.5161"/>
</g>
<!-- Format_parser&#45;&gt;Format_string -->
<g id="edge11" class="edge">
<title>Format_parser&#45;&gt;Format_string</title>
<path fill="none" stroke="#000000" d="M496.9258,-322.2906C471.051,-304.7025 430.1726,-276.9159 401.504,-257.4287"/>
<polygon fill="#000000" stroke="#000000" points="403.2669,-254.395 393.029,-251.6679 399.3317,-260.1842 403.2669,-254.395"/>
</g>
<!-- Format_parser&#45;&gt;Format_pprint -->
<g id="edge7" class="edge">
<title>Format_parser&#45;&gt;Format_pprint</title>
<path fill="none" stroke="#000000" d="M547.1773,-322.5209C574.7861,-304.7967 618.8229,-276.5262 649.3441,-256.9323"/>
<polygon fill="#000000" stroke="#000000" points="651.4343,-259.7497 657.9586,-251.402 647.6526,-253.8591 651.4343,-259.7497"/>
</g>
<!-- Format_parser&#45;&gt;Format_types -->
<g id="edge10" class="edge">
<title>Format_parser&#45;&gt;Format_types</title>
<path fill="none" stroke="#000000" d="M568.4164,-326.9845C628.6376,-310.6917 728.4845,-280.4665 754.5079,-253 778.9348,-227.2185 787.6783,-186.0514 790.7969,-158.5328"/>
<polygon fill="#000000" stroke="#000000" points="794.3014,-158.6502 791.765,-148.3635 787.333,-157.9868 794.3014,-158.6502"/>
</g>
<!-- Format_parser&#45;&gt;Format_typer -->
<g id="edge8" class="edge">
<title>Format_parser&#45;&gt;Format_typer</title>
<path fill="none" stroke="#000000" d="M518.8951,-320.8846C516.6077,-305.0251 513.246,-281.7173 510.6016,-263.3831"/>
<polygon fill="#000000" stroke="#000000" points="514.0329,-262.6547 509.1411,-253.2568 507.1046,-263.654 514.0329,-262.6547"/>
</g>
<!-- Generic -->
<g id="node12" class="node">
<title>Generic</title>
<g id="a_node12"><a xlink:href="Generic.html" xlink:title="Generic">
<ellipse fill="#00ced1" stroke="#00ced1" cx="250.5079" cy="-443" rx="38.1938" ry="18"/>
<text text-anchor="middle" x="250.5079" y="-439.3" font-family="Times,serif" font-size="14.00" fill="#000000">Generic</text>
</a>
</g>
</g>
<!-- Generic&#45;&gt;Options -->
<g id="edge13" class="edge">
<title>Generic&#45;&gt;Options</title>
<path fill="none" stroke="#000000" d="M243.7273,-425.2061C237.5725,-408.0379 228.9494,-381.1675 225.5079,-357 216.5971,-294.4248 211.2769,-266.558 250.5079,-217 312.9099,-138.1717 617.553,-62.3703 733.5467,-35.897"/>
<polygon fill="#000000" stroke="#000000" points="734.5428,-39.2601 743.5218,-33.6361 732.9954,-32.4332 734.5428,-39.2601"/>
</g>
<!-- Generic&#45;&gt;Extends -->
<g id="edge14" class="edge">
<title>Generic&#45;&gt;Extends</title>
<path fill="none" stroke="#000000" d="M245.0791,-425.0904C240.1522,-407.8384 233.2515,-380.9096 230.5079,-357 222.8104,-289.9183 238.657,-261.4229 289.5079,-217 339.0593,-173.7123 412.8676,-150.3616 460.3439,-139.0559"/>
<polygon fill="#000000" stroke="#000000" points="461.3861,-142.4078 470.3493,-136.7587 459.8197,-135.5853 461.3861,-142.4078"/>
</g>
<!-- Generic&#45;&gt;Va_build -->
<g id="edge12" class="edge">
<title>Generic&#45;&gt;Va_build</title>
<path fill="none" stroke="#000000" d="M256.2561,-424.8846C261.3666,-408.7787 268.9145,-384.9912 274.7718,-366.5321"/>
<polygon fill="#000000" stroke="#000000" points="278.1372,-367.4981 277.8256,-356.9078 271.465,-365.3809 278.1372,-367.4981"/>
</g>
<!-- Standard -->
<g id="node13" class="node">
<title>Standard</title>
<g id="a_node13"><a xlink:href="Standard.html" xlink:title="Standard">
<ellipse fill="#00ced1" stroke="#00ced1" cx="521.5079" cy="-443" rx="42.4939" ry="18"/>
<text text-anchor="middle" x="521.5079" y="-439.3" font-family="Times,serif" font-size="14.00" fill="#000000">Standard</text>
</a>
</g>
</g>
<!-- Standard&#45;&gt;Options -->
<g id="edge18" class="edge">
<title>Standard&#45;&gt;Options</title>
<path fill="none" stroke="#000000" d="M542.8586,-427.0634C565.1709,-410.2005 600.9757,-382.5478 630.5079,-357 648.1024,-341.7793 649.5129,-334.4322 668.5079,-321 722.7134,-282.669 753.4847,-298.8397 801.5079,-253 850.772,-205.9758 887.0109,-175.1492 861.5079,-112 850.8336,-85.5688 827.7145,-62.7399 808.5807,-47.2584"/>
<polygon fill="#000000" stroke="#000000" points="810.7086,-44.4793 800.6725,-41.0842 806.4009,-49.9969 810.7086,-44.4793"/>
</g>
<!-- Standard&#45;&gt;Extends -->
<g id="edge23" class="edge">
<title>Standard&#45;&gt;Extends</title>
<path fill="none" stroke="#000000" d="M492.9781,-429.4093C442.3045,-403.442 338.2004,-341.3891 298.5079,-253 266.8526,-182.5086 388.4259,-149.7797 459.1198,-136.9651"/>
<polygon fill="#000000" stroke="#000000" points="459.9056,-140.381 469.1566,-135.2167 458.7043,-133.4848 459.9056,-140.381"/>
</g>
<!-- Standard&#45;&gt;Va_build -->
<g id="edge16" class="edge">
<title>Standard&#45;&gt;Va_build</title>
<path fill="none" stroke="#000000" d="M491.8463,-430.0386C449.1787,-411.394 370.4007,-376.97 322.8946,-356.211"/>
<polygon fill="#000000" stroke="#000000" points="324.1082,-352.9218 313.5434,-352.1247 321.3052,-359.3361 324.1082,-352.9218"/>
</g>
<!-- Standard&#45;&gt;Environment -->
<g id="edge24" class="edge">
<title>Standard&#45;&gt;Environment</title>
<path fill="none" stroke="#000000" d="M549.3539,-429.4038C586.2566,-411.3856 651.626,-379.4682 693.9968,-358.7801"/>
<polygon fill="#000000" stroke="#000000" points="695.7431,-361.8224 703.1935,-354.2897 692.6717,-355.5322 695.7431,-361.8224"/>
</g>
<!-- Standard&#45;&gt;Replacements -->
<g id="edge17" class="edge">
<title>Standard&#45;&gt;Replacements</title>
<path fill="none" stroke="#000000" d="M484.3348,-434.133C408.1143,-415.952 233.6725,-374.342 142.8496,-352.6778"/>
<polygon fill="#000000" stroke="#000000" points="143.5367,-349.2436 132.9975,-350.3278 141.9125,-356.0526 143.5367,-349.2436"/>
</g>
<!-- Standard&#45;&gt;Format_string -->
<g id="edge21" class="edge">
<title>Standard&#45;&gt;Format_string</title>
<path fill="none" stroke="#000000" d="M504.686,-426.3553C488.1777,-409.5989 462.7484,-382.6313 443.5079,-357 420.2138,-325.9687 397.4481,-287.4324 383.2235,-262.0739"/>
<polygon fill="#000000" stroke="#000000" points="386.1226,-260.0852 378.2066,-253.0433 380.0034,-263.4847 386.1226,-260.0852"/>
</g>
<!-- Standard&#45;&gt;Format_types -->
<g id="edge19" class="edge">
<title>Standard&#45;&gt;Format_types</title>
<path fill="none" stroke="#000000" d="M534.2139,-425.6836C553.6827,-400.1051 593.1187,-351.9216 635.5079,-321 692.688,-279.2889 738.5305,-310.7082 779.5079,-253 799.0667,-225.4554 799.4956,-185.3125 796.9203,-158.4585"/>
<polygon fill="#000000" stroke="#000000" points="800.3573,-157.7128 795.7269,-148.1834 793.404,-158.5204 800.3573,-157.7128"/>
</g>
<!-- Standard&#45;&gt;Format_typer -->
<g id="edge20" class="edge">
<title>Standard&#45;&gt;Format_typer</title>
<path fill="none" stroke="#000000" d="M502.1474,-426.8954C484.8548,-411.1407 460.7248,-385.4232 450.5079,-357 438.1131,-322.5179 462.0665,-284.3728 482.3957,-260.0708"/>
<polygon fill="#000000" stroke="#000000" points="485.162,-262.2238 489.0932,-252.3853 479.8847,-257.6249 485.162,-262.2238"/>
</g>
<!-- Standard&#45;&gt;Format_parser -->
<g id="edge22" class="edge">
<title>Standard&#45;&gt;Format_parser</title>
<path fill="none" stroke="#000000" d="M521.5079,-424.8846C521.5079,-409.0251 521.5079,-385.7173 521.5079,-367.3831"/>
<polygon fill="#000000" stroke="#000000" points="525.008,-367.2567 521.5079,-357.2568 518.008,-367.2568 525.008,-367.2567"/>
</g>
<!-- Va_types -->
<g id="node14" class="node">
<title>Va_types</title>
<g id="a_node14"><a xlink:href="Va_types.html" xlink:title="Va_types">
<ellipse fill="#00ced1" stroke="#00ced1" cx="853.5079" cy="-339" rx="44.393" ry="18"/>
<text text-anchor="middle" x="853.5079" y="-335.3" font-family="Times,serif" font-size="14.00" fill="#000000">Va_types</text>
</a>
</g>
</g>
<!-- Standard&#45;&gt;Va_types -->
<g id="edge15" class="edge">
<title>Standard&#45;&gt;Va_types</title>
<path fill="none" stroke="#000000" d="M556.4046,-432.5906C609.3265,-416.726 712.9875,-385.3445 800.5079,-357 803.6049,-355.997 806.799,-354.9483 810.0116,-353.8829"/>
<polygon fill="#000000" stroke="#000000" points="811.2539,-357.1581 819.627,-350.6664 809.0332,-350.5197 811.2539,-357.1581"/>
</g>
<!-- Va_types&#45;&gt;Format_types -->
<g id="edge40" class="edge">
<title>Va_types&#45;&gt;Format_types</title>
<path fill="none" stroke="#000000" d="M850.1829,-321.0192C845.5678,-297.0432 836.5309,-253.3971 825.5079,-217 819.3627,-196.709 810.8451,-174.3571 804.0027,-157.3905"/>
<polygon fill="#000000" stroke="#000000" points="807.2207,-156.0126 800.1982,-148.0794 800.7407,-158.6603 807.2207,-156.0126"/>
</g>
<!-- Classify -->
<g id="node15" class="node">
<title>Classify</title>
<g id="a_node15"><a xlink:href="Classify.html" xlink:title="Classify">
<ellipse fill="#00ced1" stroke="#00ced1" cx="889.5079" cy="-443" rx="39.7935" ry="18"/>
<text text-anchor="middle" x="889.5079" y="-439.3" font-family="Times,serif" font-size="14.00" fill="#000000">Classify</text>
</a>
</g>
</g>
<!-- Classify&#45;&gt;Options -->
<g id="edge26" class="edge">
<title>Classify&#45;&gt;Options</title>
<path fill="none" stroke="#000000" d="M905.6273,-426.3326C920.5365,-409.9799 942.194,-383.6785 954.5079,-357 1000.3416,-257.6997 1037.5755,-203.3957 977.5079,-112 944.0952,-61.161 873.5406,-40.2362 826.068,-31.7177"/>
<polygon fill="#000000" stroke="#000000" points="826.4551,-28.2339 816.0147,-30.036 825.3002,-35.138 826.4551,-28.2339"/>
</g>
<!-- Classify&#45;&gt;Extends -->
<g id="edge28" class="edge">
<title>Classify&#45;&gt;Extends</title>
<path fill="none" stroke="#000000" d="M898.2267,-425.3012C909.111,-400.4992 924.267,-354.6691 906.5079,-321 837.281,-189.7541 645.4141,-147.8608 554.9247,-135.1765"/>
<polygon fill="#000000" stroke="#000000" points="555.3033,-131.696 544.927,-133.8366 554.3734,-138.634 555.3033,-131.696"/>
</g>
<!-- Classify&#45;&gt;Environment -->
<g id="edge29" class="edge">
<title>Classify&#45;&gt;Environment</title>
<path fill="none" stroke="#000000" d="M866.9696,-427.8775C840.7578,-410.2903 797.2645,-381.1076 767.3088,-361.0083"/>
<polygon fill="#000000" stroke="#000000" points="769.1173,-358.0069 758.8632,-355.3416 765.217,-363.8197 769.1173,-358.0069"/>
</g>
<!-- Classify&#45;&gt;Format_types -->
<g id="edge27" class="edge">
<title>Classify&#45;&gt;Format_types</title>
<path fill="none" stroke="#000000" d="M903.2255,-425.7924C915.4625,-409.2581 932.4954,-383.0135 939.5079,-357 943.6724,-341.5515 942.2961,-336.7552 939.5079,-321 930.9322,-272.5419 930.251,-256.9445 901.5079,-217 882.1964,-190.1628 852.4729,-167.202 828.9401,-151.6182"/>
<polygon fill="#000000" stroke="#000000" points="830.5584,-148.497 820.2586,-146.0141 826.762,-154.3781 830.5584,-148.497"/>
</g>
<!-- Classify&#45;&gt;Va_types -->
<g id="edge25" class="edge">
<title>Classify&#45;&gt;Va_types</title>
<path fill="none" stroke="#000000" d="M883.2372,-424.8846C877.6621,-408.7787 869.4279,-384.9912 863.0382,-366.5321"/>
<polygon fill="#000000" stroke="#000000" points="866.2854,-365.2128 859.7068,-356.9078 859.6705,-367.5026 866.2854,-365.2128"/>
</g>
<!-- Translate -->
<g id="node16" class="node">
<title>Translate</title>
<g id="a_node16"><a xlink:href="Translate.html" xlink:title="Translate">
<ellipse fill="#00ced1" stroke="#00ced1" cx="734.5079" cy="-548" rx="43.5923" ry="18"/>
<text text-anchor="middle" x="734.5079" y="-544.3" font-family="Times,serif" font-size="14.00" fill="#000000">Translate</text>
</a>
</g>
</g>
<!-- Translate&#45;&gt;Options -->
<g id="edge32" class="edge">
<title>Translate&#45;&gt;Options</title>
<path fill="none" stroke="#000000" d="M774.0686,-540.3192C856.5942,-521.756 1039.5079,-466.2578 1039.5079,-339 1039.5079,-339 1039.5079,-339 1039.5079,-235 1039.5079,-177.6512 1039.772,-153.7998 1000.5079,-112 954.0451,-62.5365 875.8627,-41.1454 825.7604,-32.164"/>
<polygon fill="#000000" stroke="#000000" points="826.2691,-28.7004 815.8246,-30.4794 825.0988,-35.6019 826.2691,-28.7004"/>
</g>
<!-- Translate&#45;&gt;Extends -->
<g id="edge34" class="edge">
<title>Translate&#45;&gt;Extends</title>
<path fill="none" stroke="#000000" d="M690.9414,-545.9281C598.6269,-540.4539 377.5305,-521.5762 203.5079,-461 113.694,-429.7363 64.717,-438.9746 16.5079,-357 -83.8765,-186.3067 314.9362,-142.7536 457.5482,-132.739"/>
<polygon fill="#000000" stroke="#000000" points="458.0205,-136.2152 467.7617,-132.0487 457.5484,-129.2311 458.0205,-136.2152"/>
</g>
<!-- Translate&#45;&gt;Environment -->
<g id="edge35" class="edge">
<title>Translate&#45;&gt;Environment</title>
<path fill="none" stroke="#000000" d="M734.5079,-529.8182C734.5079,-493.3796 734.5079,-411.1739 734.5079,-367.5083"/>
<polygon fill="#000000" stroke="#000000" points="738.008,-367.2885 734.5079,-357.2886 731.008,-367.2886 738.008,-367.2885"/>
</g>
<!-- Translate&#45;&gt;Generic -->
<g id="edge33" class="edge">
<title>Translate&#45;&gt;Generic</title>
<path fill="none" stroke="#000000" d="M695.7183,-539.5849C606.9808,-520.334 389.5949,-473.1738 295.3279,-452.7233"/>
<polygon fill="#000000" stroke="#000000" points="296.0407,-449.2966 285.5259,-450.5969 294.5565,-456.1375 296.0407,-449.2966"/>
</g>
<!-- Translate&#45;&gt;Standard -->
<g id="edge31" class="edge">
<title>Translate&#45;&gt;Standard</title>
<path fill="none" stroke="#000000" d="M706.2231,-534.0568C668.138,-515.2825 600.3116,-481.8469 558.2982,-461.1361"/>
<polygon fill="#000000" stroke="#000000" points="559.7497,-457.9495 549.2327,-456.6672 556.6546,-464.228 559.7497,-457.9495"/>
</g>
<!-- Translate&#45;&gt;Va_types -->
<g id="edge30" class="edge">
<title>Translate&#45;&gt;Va_types</title>
<path fill="none" stroke="#000000" d="M744.6538,-530.1808C765.5993,-493.394 813.7209,-408.8779 838.3627,-365.5996"/>
<polygon fill="#000000" stroke="#000000" points="841.4812,-367.196 843.3877,-356.7741 835.3982,-363.7324 841.4812,-367.196"/>
</g>
<!-- Translate&#45;&gt;Classify -->
<g id="edge36" class="edge">
<title>Translate&#45;&gt;Classify</title>
<path fill="none" stroke="#000000" d="M757.3787,-532.5069C784.281,-514.2827 829.0522,-483.9539 858.9199,-463.7209"/>
<polygon fill="#000000" stroke="#000000" points="860.9814,-466.5519 867.2976,-458.0457 857.0554,-460.7565 860.9814,-466.5519"/>
</g>
<!-- Register -->
<g id="node17" class="node">
<title>Register</title>
<g id="a_node17"><a xlink:href="Register.html" xlink:title="Register">
<ellipse fill="#00ced1" stroke="#00ced1" cx="734.5079" cy="-652" rx="40.0939" ry="18"/>
<text text-anchor="middle" x="734.5079" y="-648.3" font-family="Times,serif" font-size="14.00" fill="#000000">Register</text>
</a>
</g>
</g>
<!-- Register&#45;&gt;Options -->
<g id="edge39" class="edge">
<title>Register&#45;&gt;Options</title>
<path fill="none" stroke="#000000" d="M773.1876,-646.9329C862.8908,-632.7931 1077.5079,-584.2083 1077.5079,-443 1077.5079,-443 1077.5079,-443 1077.5079,-235 1077.5079,-175.8204 1069.5755,-152.5882 1026.5079,-112 970.7387,-59.4415 881.2263,-38.824 826.3655,-30.8632"/>
<polygon fill="#000000" stroke="#000000" points="826.59,-27.3615 816.2085,-29.4766 825.6431,-34.2971 826.59,-27.3615"/>
</g>
<!-- Register&#45;&gt;Replacements -->
<g id="edge38" class="edge">
<title>Register&#45;&gt;Replacements</title>
<path fill="none" stroke="#000000" d="M703.415,-640.5386C697.473,-638.3595 691.3005,-636.1035 685.5079,-634 471.5733,-556.3143 394.7167,-584.4595 203.5079,-461 162.9018,-434.7815 125.8865,-392.0739 104.5315,-364.7721"/>
<polygon fill="#000000" stroke="#000000" points="107.2921,-362.6204 98.4202,-356.829 101.7441,-366.889 107.2921,-362.6204"/>
</g>
<!-- Register&#45;&gt;Translate -->
<g id="edge37" class="edge">
<title>Register&#45;&gt;Translate</title>
<path fill="none" stroke="#000000" d="M734.5079,-633.8846C734.5079,-618.0251 734.5079,-594.7173 734.5079,-576.3831"/>
<polygon fill="#000000" stroke="#000000" points="738.008,-576.2567 734.5079,-566.2568 731.008,-576.2568 738.008,-576.2567"/>
</g>
</g>
</svg>
