<?xml version="1.0" encoding="UTF-8" standalone="no"?>
<!DOCTYPE svg PUBLIC "-//W3C//DTD SVG 1.1//EN"
 "http://www.w3.org/Graphics/SVG/1.1/DTD/svg11.dtd">
<!-- Generated by graphviz version 2.40.1 (20161225.0304)
 -->
<!-- Title: Plugin architecture (scope) Pages: 1 -->
<svg width="720pt" height="540pt"
 viewBox="0.00 0.00 719.80 540.00" xmlns="http://www.w3.org/2000/svg" xmlns:xlink="http://www.w3.org/1999/xlink">
<g id="graph0" class="graph" transform="scale(.9854 .9854) rotate(0) translate(4 544)">
<title>Plugin architecture (scope)</title>
<polygon fill="#ffffff" stroke="transparent" points="-4,4 -4,-544 726.4663,-544 726.4663,4 -4,4"/>
<!-- Scope -->
<g id="node1" class="node">
<title>Scope</title>
<g id="a_node1"><a xlink:href="Scope.html" xlink:title="Scope">
<ellipse fill="#00ced1" stroke="#00ced1" cx="100.7842" cy="-486" rx="32.4942" ry="18"/>
<text text-anchor="middle" x="100.7842" y="-482.3" font-family="Times,serif" font-size="14.00" fill="#000000">Scope</text>
</a>
</g>
</g>
<!-- Datascope -->
<g id="node2" class="node">
<title>Datascope</title>
<g id="a_node2"><a xlink:href="Datascope.html" xlink:title="Datascope">
<ellipse fill="#00ced1" stroke="#00ced1" cx="395.7842" cy="-54" rx="47.3916" ry="18"/>
<text text-anchor="middle" x="395.7842" y="-50.3" font-family="Times,serif" font-size="14.00" fill="#000000">Datascope</text>
</a>
</g>
</g>
<!-- Zones -->
<g id="node3" class="node">
<title>Zones</title>
<g id="a_node3"><a xlink:href="Zones.html" xlink:title="Zones">
<ellipse fill="#00ced1" stroke="#00ced1" cx="395.7842" cy="-270" rx="32.4942" ry="18"/>
<text text-anchor="middle" x="395.7842" y="-266.3" font-family="Times,serif" font-size="14.00" fill="#000000">Zones</text>
</a>
</g>
</g>
<!-- Zones&#45;&gt;Datascope -->
<g id="edge1" class="edge">
<title>Zones&#45;&gt;Datascope</title>
<path fill="none" stroke="#000000" d="M395.7842,-251.9555C395.7842,-214.3938 395.7842,-127.5541 395.7842,-82.4103"/>
<polygon fill="#000000" stroke="#000000" points="399.2843,-82.145 395.7842,-72.1451 392.2843,-82.1451 399.2843,-82.145"/>
</g>
<!-- Defs -->
<g id="node4" class="node">
<title>Defs</title>
<g id="a_node4"><a xlink:href="Defs.html" xlink:title="Defs">
<ellipse fill="#00ced1" stroke="#00ced1" cx="637.7842" cy="-270" rx="27.0966" ry="18"/>
<text text-anchor="middle" x="637.7842" y="-266.3" font-family="Times,serif" font-size="14.00" fill="#000000">Defs</text>
</a>
</g>
</g>
<!-- Defs&#45;&gt;Datascope -->
<g id="edge2" class="edge">
<title>Defs&#45;&gt;Datascope</title>
<path fill="none" stroke="#000000" d="M621.5301,-255.4922C580.4878,-218.8594 472.3735,-122.3608 422.1375,-77.522"/>
<polygon fill="#000000" stroke="#000000" points="424.3821,-74.834 414.591,-70.7862 419.7208,-80.0564 424.3821,-74.834"/>
</g>
<!-- Dpds_gui -->
<g id="node5" class="node">
<title>Dpds_gui</title>
<g id="a_node5"><a xlink:href="Dpds_gui.html" xlink:title="Dpds_gui">
<ellipse fill="#00ced1" stroke="#00ced1" cx="395.7842" cy="-486" rx="44.6926" ry="18"/>
<text text-anchor="middle" x="395.7842" y="-482.3" font-family="Times,serif" font-size="14.00" fill="#000000">Dpds_gui</text>
</a>
</g>
</g>
<!-- Dpds_gui&#45;&gt;Datascope -->
<g id="edge5" class="edge">
<title>Dpds_gui&#45;&gt;Datascope</title>
<path fill="none" stroke="#000000" d="M390.739,-467.9047C381.3835,-433.3051 361.6711,-355.2238 354.7842,-288 347.0792,-212.7917 371.4291,-125.3139 385.8796,-81.697"/>
<polygon fill="#000000" stroke="#000000" points="389.2434,-82.6758 389.1425,-72.0815 382.6146,-80.4264 389.2434,-82.6758"/>
</g>
<!-- Dpds_gui&#45;&gt;Zones -->
<g id="edge3" class="edge">
<title>Dpds_gui&#45;&gt;Zones</title>
<path fill="none" stroke="#000000" d="M395.7842,-467.9555C395.7842,-430.3938 395.7842,-343.5541 395.7842,-298.4103"/>
<polygon fill="#000000" stroke="#000000" points="399.2843,-298.145 395.7842,-288.1451 392.2843,-298.1451 399.2843,-298.145"/>
</g>
<!-- Dpds_gui&#45;&gt;Defs -->
<g id="edge4" class="edge">
<title>Dpds_gui&#45;&gt;Defs</title>
<path fill="none" stroke="#000000" d="M414.3717,-469.4095C457.7762,-430.6683 565.7616,-334.2846 613.9313,-291.2901"/>
<polygon fill="#000000" stroke="#000000" points="616.2687,-293.8953 621.3985,-284.6252 611.6074,-288.673 616.2687,-293.8953"/>
</g>
</g>
</svg>
