<?xml version="1.0" encoding="UTF-8" standalone="no"?>
<!DOCTYPE svg PUBLIC "-//W3C//DTD SVG 1.1//EN"
 "http://www.w3.org/Graphics/SVG/1.1/DTD/svg11.dtd">
<!-- Generated by graphviz version 2.40.1 (20161225.0304)
 -->
<!-- Title: Plugin architecture (rte) Pages: 1 -->
<svg width="720pt" height="540pt"
 viewBox="0.00 0.00 719.65 540.00" xmlns="http://www.w3.org/2000/svg" xmlns:xlink="http://www.w3.org/1999/xlink">
<g id="graph0" class="graph" transform="scale(.9854 .9854) rotate(0) translate(4 544)">
<title>Plugin architecture (rte)</title>
<polygon fill="#ffffff" stroke="transparent" points="-4,4 -4,-544 726.3157,-544 726.3157,4 -4,4"/>
<!-- RteGen -->
<g id="node1" class="node">
<title>RteGen</title>
<g id="a_node1"><a xlink:href="RteGen.html" xlink:title="RteGen">
<ellipse fill="#00ced1" stroke="#00ced1" cx="195.7996" cy="-347" rx="37.8943" ry="18"/>
<text text-anchor="middle" x="195.7996" y="-343.3" font-family="Times,serif" font-size="14.00" fill="#000000">RteGen</text>
</a>
</g>
</g>
<!-- Generator -->
<g id="node2" class="node">
<title>Generator</title>
<g id="a_node2"><a xlink:href="Generator.html" xlink:title="Generator">
<ellipse fill="#00ced1" stroke="#00ced1" cx="319.7996" cy="-193" rx="46.2923" ry="18"/>
<text text-anchor="middle" x="319.7996" y="-189.3" font-family="Times,serif" font-size="14.00" fill="#000000">Generator</text>
</a>
</g>
</g>
<!-- RteGen&#45;&gt;Generator -->
<g id="edge1" class="edge">
<title>RteGen&#45;&gt;Generator</title>
<path fill="none" stroke="#000000" d="M209.5436,-329.9309C231.3079,-302.901 273.8346,-250.0856 299.2395,-218.5343"/>
<polygon fill="#000000" stroke="#000000" points="302.0675,-220.6029 305.613,-210.6188 296.6152,-216.2127 302.0675,-220.6029"/>
</g>
<!-- Flags -->
<g id="node3" class="node">
<title>Flags</title>
<g id="a_node3"><a xlink:href="Flags.html" xlink:title="Flags">
<ellipse fill="#00ced1" stroke="#00ced1" cx="76.7996" cy="-193" rx="29.795" ry="18"/>
<text text-anchor="middle" x="76.7996" y="-189.3" font-family="Times,serif" font-size="14.00" fill="#000000">Flags</text>
</a>
</g>
</g>
<!-- RteGen&#45;&gt;Flags -->
<g id="edge2" class="edge">
<title>RteGen&#45;&gt;Flags</title>
<path fill="none" stroke="#000000" d="M182.6098,-329.9309C161.5907,-302.7297 120.3931,-249.4151 96.0691,-217.937"/>
<polygon fill="#000000" stroke="#000000" points="98.5707,-215.4502 89.6867,-209.6774 93.0317,-219.7304 98.5707,-215.4502"/>
</g>
<!-- Options -->
<g id="node4" class="node">
<title>Options</title>
<g id="a_node4"><a xlink:href="Options.html" xlink:title="Options">
<ellipse fill="#00ced1" stroke="#00ced1" cx="510.7996" cy="-39" rx="38.1938" ry="18"/>
<text text-anchor="middle" x="510.7996" y="-35.3" font-family="Times,serif" font-size="14.00" fill="#000000">Options</text>
</a>
</g>
</g>
<!-- Generator&#45;&gt;Options -->
<g id="edge3" class="edge">
<title>Generator&#45;&gt;Options</title>
<path fill="none" stroke="#000000" d="M340.24,-176.5193C374.6856,-148.7463 444.3257,-92.5968 483.1185,-61.3188"/>
<polygon fill="#000000" stroke="#000000" points="485.7744,-63.6734 491.3624,-54.6719 481.3807,-58.224 485.7744,-63.6734"/>
</g>
<!-- Flags&#45;&gt;Options -->
<g id="edge5" class="edge">
<title>Flags&#45;&gt;Options</title>
<path fill="none" stroke="#000000" d="M102.6486,-183.8278C175.3937,-158.015 382.2824,-84.6029 470.3317,-53.3596"/>
<polygon fill="#000000" stroke="#000000" points="471.714,-56.583 479.9679,-49.9403 469.3731,-49.986 471.714,-56.583"/>
</g>
<!-- Rte -->
<g id="node5" class="node">
<title>Rte</title>
<g id="a_node5"><a xlink:href="Rte.html" xlink:title="Rte">
<ellipse fill="#00ced1" stroke="#00ced1" cx="652.7996" cy="-193" rx="27" ry="18"/>
<text text-anchor="middle" x="652.7996" y="-189.3" font-family="Times,serif" font-size="14.00" fill="#000000">Rte</text>
</a>
</g>
</g>
<!-- Rte&#45;&gt;Options -->
<g id="edge4" class="edge">
<title>Rte&#45;&gt;Options</title>
<path fill="none" stroke="#000000" d="M638.4024,-177.3862C613.5723,-150.4577 562.5329,-95.1052 533.0846,-63.1682"/>
<polygon fill="#000000" stroke="#000000" points="535.4439,-60.5638 526.092,-55.5847 530.2977,-65.309 535.4439,-60.5638"/>
</g>
<!-- Visit -->
<g id="node6" class="node">
<title>Visit</title>
<g id="a_node6"><a xlink:href="Visit.html" xlink:title="Visit">
<ellipse fill="#00ced1" stroke="#00ced1" cx="510.7996" cy="-347" rx="27.8951" ry="18"/>
<text text-anchor="middle" x="510.7996" y="-343.3" font-family="Times,serif" font-size="14.00" fill="#000000">Visit</text>
</a>
</g>
</g>
<!-- Visit&#45;&gt;Generator -->
<g id="edge6" class="edge">
<title>Visit&#45;&gt;Generator</title>
<path fill="none" stroke="#000000" d="M493.1731,-332.7881C459.9791,-306.0243 387.947,-247.9461 347.966,-215.7101"/>
<polygon fill="#000000" stroke="#000000" points="349.9281,-212.7961 339.9464,-209.244 345.5344,-218.2455 349.9281,-212.7961"/>
</g>
<!-- Visit&#45;&gt;Flags -->
<g id="edge9" class="edge">
<title>Visit&#45;&gt;Flags</title>
<path fill="none" stroke="#000000" d="M486.2224,-338.2791C413.2604,-312.3893 197.6908,-235.8969 112.2557,-205.5812"/>
<polygon fill="#000000" stroke="#000000" points="113.3313,-202.2491 102.7365,-202.2034 110.9904,-208.8461 113.3313,-202.2491"/>
</g>
<!-- Visit&#45;&gt;Options -->
<g id="edge7" class="edge">
<title>Visit&#45;&gt;Options</title>
<path fill="none" stroke="#000000" d="M510.7996,-328.6556C510.7996,-276.9777 510.7996,-129.9079 510.7996,-67.5293"/>
<polygon fill="#000000" stroke="#000000" points="514.2997,-67.2483 510.7996,-57.2483 507.2997,-67.2483 514.2997,-67.2483"/>
</g>
<!-- Visit&#45;&gt;Rte -->
<g id="edge8" class="edge">
<title>Visit&#45;&gt;Rte</title>
<path fill="none" stroke="#000000" d="M525.1968,-331.3862C550.2869,-304.1758 602.138,-247.9428 631.4326,-216.1727"/>
<polygon fill="#000000" stroke="#000000" points="634.1586,-218.3795 638.3643,-208.6552 629.0124,-213.6343 634.1586,-218.3795"/>
</g>
<!-- Register -->
<g id="node7" class="node">
<title>Register</title>
<g id="a_node7"><a xlink:href="Register.html" xlink:title="Register">
<ellipse fill="#00ced1" stroke="#00ced1" cx="438.7996" cy="-501" rx="40.0939" ry="18"/>
<text text-anchor="middle" x="438.7996" y="-497.3" font-family="Times,serif" font-size="14.00" fill="#000000">Register</text>
</a>
</g>
</g>
<!-- Register&#45;&gt;Generator -->
<g id="edge12" class="edge">
<title>Register&#45;&gt;Generator</title>
<path fill="none" stroke="#000000" d="M431.8873,-483.1093C411.9641,-431.5434 354.3233,-282.3555 330.4005,-220.4377"/>
<polygon fill="#000000" stroke="#000000" points="333.5998,-219.0066 326.731,-210.9401 327.0703,-221.5295 333.5998,-219.0066"/>
</g>
<!-- Register&#45;&gt;Flags -->
<g id="edge13" class="edge">
<title>Register&#45;&gt;Flags</title>
<path fill="none" stroke="#000000" d="M402.6382,-493.0449C342.3343,-478.0302 220.7675,-440.0612 148.7996,-365 109.4451,-323.9539 90.1986,-258.254 81.9944,-221.0596"/>
<polygon fill="#000000" stroke="#000000" points="85.3492,-220.0028 79.8789,-210.9294 78.4971,-221.4338 85.3492,-220.0028"/>
</g>
<!-- Register&#45;&gt;Options -->
<g id="edge11" class="edge">
<title>Register&#45;&gt;Options</title>
<path fill="none" stroke="#000000" d="M460.0857,-485.4118C511.5012,-446.2604 641.6877,-337.8033 688.7996,-211 716.502,-136.4381 611.0892,-79.7796 550.5734,-54.1145"/>
<polygon fill="#000000" stroke="#000000" points="551.852,-50.8558 541.2738,-50.2635 549.1738,-57.3232 551.852,-50.8558"/>
</g>
<!-- Register&#45;&gt;Visit -->
<g id="edge10" class="edge">
<title>Register&#45;&gt;Visit</title>
<path fill="none" stroke="#000000" d="M447.0589,-483.3342C459.5912,-456.5292 483.5038,-405.3827 498.2111,-373.9255"/>
<polygon fill="#000000" stroke="#000000" points="501.5719,-375.0009 502.6366,-364.4597 495.2307,-372.0362 501.5719,-375.0009"/>
</g>
</g>
</svg>
