<?xml version="1.0" encoding="UTF-8" standalone="no"?>
<!DOCTYPE svg PUBLIC "-//W3C//DTD SVG 1.1//EN"
 "http://www.w3.org/Graphics/SVG/1.1/DTD/svg11.dtd">
<!-- Generated by graphviz version 2.40.1 (20161225.0304)
 -->
<!-- Title: Plugin architecture (server) Pages: 1 -->
<svg width="718pt" height="540pt"
 viewBox="0.00 0.00 717.71 540.00" xmlns="http://www.w3.org/2000/svg" xmlns:xlink="http://www.w3.org/1999/xlink">
<g id="graph0" class="graph" transform="scale(.8699 .8699) rotate(0) translate(4 616.75)">
<title>Plugin architecture (server)</title>
<polygon fill="#ffffff" stroke="transparent" points="-4,4 -4,-616.75 821.0386,-616.75 821.0386,4 -4,4"/>
<!-- Server -->
<g id="node1" class="node">
<title>Server</title>
<g id="a_node1"><a xlink:href="Server.html" xlink:title="Server">
<ellipse fill="#00ced1" stroke="#00ced1" cx="318.3431" cy="-592" rx="33.5952" ry="18"/>
<text text-anchor="middle" x="318.3431" y="-588.3" font-family="Times,serif" font-size="14.00" fill="#000000">Server</text>
</a>
</g>
</g>
<!-- Server_parameters -->
<g id="node2" class="node">
<title>Server_parameters</title>
<g id="a_node2"><a xlink:href="Server_parameters.html" xlink:title="Server_parameters">
<ellipse fill="#00ced1" stroke="#00ced1" cx="77.3431" cy="-20" rx="77.1866" ry="18"/>
<text text-anchor="middle" x="77.3431" y="-16.3" font-family="Times,serif" font-size="14.00" fill="#000000">Server_parameters</text>
</a>
</g>
</g>
<!-- Jbuffer -->
<g id="node3" class="node">
<title>Jbuffer</title>
<g id="a_node3"><a xlink:href="Jbuffer.html" xlink:title="Jbuffer">
<ellipse fill="#00ced1" stroke="#00ced1" cx="465.3431" cy="-429" rx="35.9954" ry="18"/>
<text text-anchor="middle" x="465.3431" y="-425.3" font-family="Times,serif" font-size="14.00" fill="#000000">Jbuffer</text>
</a>
</g>
</g>
<!-- Package -->
<g id="node4" class="node">
<title>Package</title>
<g id="a_node4"><a xlink:href="Package.html" xlink:title="Package">
<ellipse fill="#00ced1" stroke="#00ced1" cx="541.3431" cy="-102" rx="40.0939" ry="18"/>
<text text-anchor="middle" x="541.3431" y="-98.3" font-family="Times,serif" font-size="14.00" fill="#000000">Package</text>
</a>
</g>
</g>
<!-- Package&#45;&gt;Server_parameters -->
<g id="edge1" class="edge">
<title>Package&#45;&gt;Server_parameters</title>
<path fill="none" stroke="#000000" d="M503.7651,-95.3591C426.5892,-81.7202 249.1044,-50.3544 149.1464,-32.6894"/>
<polygon fill="#000000" stroke="#000000" points="149.5858,-29.2129 139.1292,-30.9191 148.3675,-36.106 149.5858,-29.2129"/>
</g>
<!-- Data -->
<g id="node5" class="node">
<title>Data</title>
<g id="a_node5"><a xlink:href="Data.html" xlink:title="Data">
<ellipse fill="#00ced1" stroke="#00ced1" cx="389.3431" cy="-184" rx="27.0966" ry="18"/>
<text text-anchor="middle" x="389.3431" y="-180.3" font-family="Times,serif" font-size="14.00" fill="#000000">Data</text>
</a>
</g>
</g>
<!-- Data&#45;&gt;Package -->
<g id="edge2" class="edge">
<title>Data&#45;&gt;Package</title>
<path fill="none" stroke="#000000" d="M410.4781,-172.5983C435.2836,-159.2163 476.7862,-136.8268 506.4021,-120.8498"/>
<polygon fill="#000000" stroke="#000000" points="508.4246,-123.7356 515.5638,-115.9073 505.101,-117.5749 508.4246,-123.7356"/>
</g>
<!-- Main -->
<g id="node6" class="node">
<title>Main</title>
<g id="a_node6"><a xlink:href="Main.html" xlink:title="Main">
<ellipse fill="#00ced1" stroke="#00ced1" cx="249.3431" cy="-266" rx="29.795" ry="18"/>
<text text-anchor="middle" x="249.3431" y="-262.3" font-family="Times,serif" font-size="14.00" fill="#000000">Main</text>
</a>
</g>
</g>
<!-- Main&#45;&gt;Server_parameters -->
<g id="edge4" class="edge">
<title>Main&#45;&gt;Server_parameters</title>
<path fill="none" stroke="#000000" d="M237.5209,-249.0914C208.0937,-207.0037 131.3805,-97.2861 95.8727,-46.5016"/>
<polygon fill="#000000" stroke="#000000" points="98.5403,-44.2088 89.9417,-38.0189 92.8035,-48.2199 98.5403,-44.2088"/>
</g>
<!-- Main&#45;&gt;Data -->
<g id="edge3" class="edge">
<title>Main&#45;&gt;Data</title>
<path fill="none" stroke="#000000" d="M270.9113,-253.3672C294.7882,-239.3822 333.411,-216.7603 360.0221,-201.1738"/>
<polygon fill="#000000" stroke="#000000" points="362.03,-204.0539 368.8899,-195.9797 358.4922,-198.0137 362.03,-204.0539"/>
</g>
<!-- Request -->
<g id="node7" class="node">
<title>Request</title>
<g id="a_node7"><a xlink:href="Request.html" xlink:title="Request">
<ellipse fill="#00ced1" stroke="#00ced1" cx="246.3431" cy="-347" rx="38.9931" ry="18"/>
<text text-anchor="middle" x="246.3431" y="-343.3" font-family="Times,serif" font-size="14.00" fill="#000000">Request</text>
</a>
</g>
</g>
<!-- Request&#45;&gt;Server_parameters -->
<g id="edge6" class="edge">
<title>Request&#45;&gt;Server_parameters</title>
<path fill="none" stroke="#000000" d="M232.9523,-329.8614C223.5619,-317.4728 211.0099,-300.1448 201.3431,-284 152.0621,-201.6942 107.8119,-96.6273 88.1352,-47.5618"/>
<polygon fill="#000000" stroke="#000000" points="91.376,-46.2396 84.4247,-38.244 84.8727,-48.8294 91.376,-46.2396"/>
</g>
<!-- Request&#45;&gt;Package -->
<g id="edge7" class="edge">
<title>Request&#45;&gt;Package</title>
<path fill="none" stroke="#000000" d="M231.6081,-330.097C215.7472,-309.7319 194.7582,-274.9023 210.3431,-248 268.3451,-147.8787 414.2858,-116.2492 491.5579,-106.3837"/>
<polygon fill="#000000" stroke="#000000" points="492.0267,-109.8526 501.5366,-105.1822 491.1899,-102.9028 492.0267,-109.8526"/>
</g>
<!-- Request&#45;&gt;Data -->
<g id="edge8" class="edge">
<title>Request&#45;&gt;Data</title>
<path fill="none" stroke="#000000" d="M261.108,-330.1701C286.6326,-301.0757 339.0794,-241.2936 368.3749,-207.9008"/>
<polygon fill="#000000" stroke="#000000" points="371.3298,-209.8399 375.2936,-200.0145 366.0678,-205.2235 371.3298,-209.8399"/>
</g>
<!-- Request&#45;&gt;Main -->
<g id="edge5" class="edge">
<title>Request&#45;&gt;Main</title>
<path fill="none" stroke="#000000" d="M247.0239,-328.6198C247.3986,-318.5034 247.8716,-305.7309 248.2926,-294.3637"/>
<polygon fill="#000000" stroke="#000000" points="251.8028,-294.1511 248.6754,-284.0284 244.8076,-293.892 251.8028,-294.1511"/>
</g>
<!-- States -->
<g id="node8" class="node">
<title>States</title>
<g id="a_node8"><a xlink:href="States.html" xlink:title="States">
<ellipse fill="#00ced1" stroke="#00ced1" cx="589.3431" cy="-429" rx="31.6951" ry="18"/>
<text text-anchor="middle" x="589.3431" y="-425.3" font-family="Times,serif" font-size="14.00" fill="#000000">States</text>
</a>
</g>
</g>
<!-- States&#45;&gt;Package -->
<g id="edge10" class="edge">
<title>States&#45;&gt;Package</title>
<path fill="none" stroke="#000000" d="M587.5348,-410.7435C583.1665,-367.8565 571.2175,-257.4017 555.3431,-166 553.2931,-154.196 550.5598,-141.2703 548.0526,-130.1445"/>
<polygon fill="#000000" stroke="#000000" points="551.4005,-129.0853 545.7478,-120.1244 544.5786,-130.6545 551.4005,-129.0853"/>
</g>
<!-- States&#45;&gt;Data -->
<g id="edge11" class="edge">
<title>States&#45;&gt;Data</title>
<path fill="none" stroke="#000000" d="M581.6629,-411.4829C566.0512,-377.2421 527.9362,-300.227 479.3431,-248 461.8344,-229.1819 437.9819,-212.5217 419.2314,-200.92"/>
<polygon fill="#000000" stroke="#000000" points="420.857,-197.8131 410.4867,-195.6437 417.2407,-203.8066 420.857,-197.8131"/>
</g>
<!-- States&#45;&gt;Request -->
<g id="edge9" class="edge">
<title>States&#45;&gt;Request</title>
<path fill="none" stroke="#000000" d="M559.8023,-421.9378C499.5533,-407.5342 362.1866,-374.6943 290.9862,-357.6727"/>
<polygon fill="#000000" stroke="#000000" points="291.5182,-354.2013 280.9784,-355.2802 289.8905,-361.0095 291.5182,-354.2013"/>
</g>
<!-- Server_doc -->
<g id="node9" class="node">
<title>Server_doc</title>
<g id="a_node9"><a xlink:href="Server_doc.html" xlink:title="Server_doc">
<ellipse fill="#00ced1" stroke="#00ced1" cx="766.3431" cy="-184" rx="50.8918" ry="18"/>
<text text-anchor="middle" x="766.3431" y="-180.3" font-family="Times,serif" font-size="14.00" fill="#000000">Server_doc</text>
</a>
</g>
</g>
<!-- Server_doc&#45;&gt;Server_parameters -->
<g id="edge12" class="edge">
<title>Server_doc&#45;&gt;Server_parameters</title>
<path fill="none" stroke="#000000" d="M744.3582,-167.6788C712.3071,-144.8091 650.0482,-103.8125 590.3431,-84 512.7693,-58.258 285.9176,-36.7502 161.4582,-26.4812"/>
<polygon fill="#000000" stroke="#000000" points="161.4624,-22.9699 151.21,-25.6419 160.891,-29.9465 161.4624,-22.9699"/>
</g>
<!-- Server_doc&#45;&gt;Package -->
<g id="edge13" class="edge">
<title>Server_doc&#45;&gt;Package</title>
<path fill="none" stroke="#000000" d="M730.6912,-171.0069C690.3406,-156.3013 624.7245,-132.3879 582.3029,-116.9276"/>
<polygon fill="#000000" stroke="#000000" points="583.4287,-113.6127 572.8348,-113.4769 581.0318,-120.1896 583.4287,-113.6127"/>
</g>
<!-- Kernel_main -->
<g id="node10" class="node">
<title>Kernel_main</title>
<g id="a_node10"><a xlink:href="Kernel_main.html" xlink:title="Kernel_main">
<ellipse fill="#00ced1" stroke="#00ced1" cx="94.3431" cy="-429" rx="57.3905" ry="18"/>
<text text-anchor="middle" x="94.3431" y="-425.3" font-family="Times,serif" font-size="14.00" fill="#000000">Kernel_main</text>
</a>
</g>
</g>
<!-- Kernel_main&#45;&gt;Server_parameters -->
<g id="edge17" class="edge">
<title>Kernel_main&#45;&gt;Server_parameters</title>
<path fill="none" stroke="#000000" d="M76.4118,-411.798C49.3871,-383.927 1.3431,-325.9484 1.3431,-266 1.3431,-266 1.3431,-266 1.3431,-184 1.3431,-131.2213 34.1467,-77.0053 56.6511,-46.0212"/>
<polygon fill="#000000" stroke="#000000" points="59.5203,-48.0284 62.6896,-37.9187 53.9075,-43.8454 59.5203,-48.0284"/>
</g>
<!-- Kernel_main&#45;&gt;Package -->
<g id="edge15" class="edge">
<title>Kernel_main&#45;&gt;Package</title>
<path fill="none" stroke="#000000" d="M96.5976,-410.9038C99.6735,-390.2699 106.3549,-355.9154 119.3431,-329 159.0196,-246.7784 167.2085,-214.8351 244.3431,-166 285.0975,-140.1978 419.216,-118.5965 492.4896,-108.3638"/>
<polygon fill="#000000" stroke="#000000" points="492.9808,-111.8292 502.409,-106.9961 492.0246,-104.8948 492.9808,-111.8292"/>
</g>
<!-- Kernel_main&#45;&gt;Data -->
<g id="edge18" class="edge">
<title>Kernel_main&#45;&gt;Data</title>
<path fill="none" stroke="#000000" d="M101.0501,-410.9356C115.4226,-374.6718 152.6479,-292.6701 210.3431,-248 252.8016,-215.1269 313.5947,-198.1875 352.2666,-190.2068"/>
<polygon fill="#000000" stroke="#000000" points="353.4152,-193.5483 362.5538,-188.1876 352.0669,-186.6793 353.4152,-193.5483"/>
</g>
<!-- Kernel_main&#45;&gt;Main -->
<g id="edge14" class="edge">
<title>Kernel_main&#45;&gt;Main</title>
<path fill="none" stroke="#000000" d="M110.9218,-411.6239C123.1948,-398.7562 140.32,-380.7921 155.3431,-365 180.0038,-339.0771 208.2673,-309.3014 227.3091,-289.2311"/>
<polygon fill="#000000" stroke="#000000" points="230.0313,-291.447 234.3746,-281.7833 224.953,-286.6292 230.0313,-291.447"/>
</g>
<!-- Kernel_main&#45;&gt;Request -->
<g id="edge16" class="edge">
<title>Kernel_main&#45;&gt;Request</title>
<path fill="none" stroke="#000000" d="M123.291,-413.3834C148.4096,-399.8326 184.8335,-380.1829 211.5359,-365.7776"/>
<polygon fill="#000000" stroke="#000000" points="213.4017,-368.7479 220.5409,-360.9196 210.0781,-362.5872 213.4017,-368.7479"/>
</g>
<!-- Kernel_project -->
<g id="node11" class="node">
<title>Kernel_project</title>
<g id="a_node11"><a xlink:href="Kernel_project.html" xlink:title="Kernel_project">
<ellipse fill="#00ced1" stroke="#00ced1" cx="309.3431" cy="-429" rx="63.8893" ry="18"/>
<text text-anchor="middle" x="309.3431" y="-425.3" font-family="Times,serif" font-size="14.00" fill="#000000">Kernel_project</text>
</a>
</g>
</g>
<!-- Kernel_project&#45;&gt;Package -->
<g id="edge20" class="edge">
<title>Kernel_project&#45;&gt;Package</title>
<path fill="none" stroke="#000000" d="M322.1469,-410.9533C361.0681,-356.0945 478.0695,-191.1831 523.2584,-127.4902"/>
<polygon fill="#000000" stroke="#000000" points="526.2106,-129.3777 529.1425,-119.1966 520.5015,-125.3272 526.2106,-129.3777"/>
</g>
<!-- Kernel_project&#45;&gt;Data -->
<g id="edge22" class="edge">
<title>Kernel_project&#45;&gt;Data</title>
<path fill="none" stroke="#000000" d="M315.2257,-410.9846C329.1004,-368.4934 363.9372,-261.8056 380.426,-211.3087"/>
<polygon fill="#000000" stroke="#000000" points="383.7829,-212.3039 383.5598,-201.7114 377.1286,-210.131 383.7829,-212.3039"/>
</g>
<!-- Kernel_project&#45;&gt;Main -->
<g id="edge19" class="edge">
<title>Kernel_project&#45;&gt;Main</title>
<path fill="none" stroke="#000000" d="M309.1529,-410.9983C308.374,-390.4511 305.3419,-356.1761 294.3431,-329 288.6371,-314.9014 279.1834,-300.9576 270.4099,-289.7863"/>
<polygon fill="#000000" stroke="#000000" points="272.9443,-287.3564 263.9066,-281.8273 267.5237,-291.7856 272.9443,-287.3564"/>
</g>
<!-- Kernel_project&#45;&gt;Request -->
<g id="edge21" class="edge">
<title>Kernel_project&#45;&gt;Request</title>
<path fill="none" stroke="#000000" d="M295.6731,-411.2072C286.9696,-399.8789 275.5583,-385.0261 265.9035,-372.4595"/>
<polygon fill="#000000" stroke="#000000" points="268.4227,-369.9936 259.5548,-364.1961 262.8718,-374.2583 268.4227,-369.9936"/>
</g>
<!-- Kernel_ast -->
<g id="node12" class="node">
<title>Kernel_ast</title>
<g id="a_node12"><a xlink:href="Kernel_ast.html" xlink:title="Kernel_ast">
<ellipse fill="#00ced1" stroke="#00ced1" cx="487.3431" cy="-511" rx="48.9926" ry="18"/>
<text text-anchor="middle" x="487.3431" y="-507.3" font-family="Times,serif" font-size="14.00" fill="#000000">Kernel_ast</text>
</a>
</g>
</g>
<!-- Kernel_ast&#45;&gt;Jbuffer -->
<g id="edge23" class="edge">
<title>Kernel_ast&#45;&gt;Jbuffer</title>
<path fill="none" stroke="#000000" d="M482.4606,-492.8015C479.6213,-482.2185 475.9846,-468.6635 472.794,-456.7714"/>
<polygon fill="#000000" stroke="#000000" points="476.1081,-455.6169 470.1363,-446.8655 469.3472,-457.4309 476.1081,-455.6169"/>
</g>
<!-- Kernel_ast&#45;&gt;Package -->
<g id="edge26" class="edge">
<title>Kernel_ast&#45;&gt;Package</title>
<path fill="none" stroke="#000000" d="M530.8892,-502.7885C563.2583,-494.3638 605.8869,-477.9409 630.3431,-447 658.3962,-411.5086 649.3431,-392.2396 649.3431,-347 649.3431,-347 649.3431,-347 649.3431,-266 649.3431,-207.5437 600.8909,-153.8199 568.893,-124.7142"/>
<polygon fill="#000000" stroke="#000000" points="570.9583,-121.8679 561.152,-117.857 566.3167,-127.1077 570.9583,-121.8679"/>
</g>
<!-- Kernel_ast&#45;&gt;Data -->
<g id="edge27" class="edge">
<title>Kernel_ast&#45;&gt;Data</title>
<path fill="none" stroke="#000000" d="M495.5992,-493.2462C500.9875,-480.6467 507.5262,-463.1679 510.3431,-447 513.0895,-431.2375 513.5253,-426.6804 510.3431,-411 494.6972,-333.9036 481.8821,-315.4183 441.3431,-248 432.5916,-233.4458 420.7852,-218.6377 410.6342,-206.9362"/>
<polygon fill="#000000" stroke="#000000" points="413.1817,-204.5337 403.9289,-199.3727 407.9437,-209.1774 413.1817,-204.5337"/>
</g>
<!-- Kernel_ast&#45;&gt;Request -->
<g id="edge24" class="edge">
<title>Kernel_ast&#45;&gt;Request</title>
<path fill="none" stroke="#000000" d="M440.4053,-505.8431C374.8619,-497.5649 261.1418,-478.9153 236.3431,-447 220.3755,-426.45 226.4094,-395.8995 234.2274,-373.978"/>
<polygon fill="#000000" stroke="#000000" points="237.5194,-375.169 237.8723,-364.5801 230.9931,-372.6378 237.5194,-375.169"/>
</g>
<!-- Kernel_ast&#45;&gt;States -->
<g id="edge25" class="edge">
<title>Kernel_ast&#45;&gt;States</title>
<path fill="none" stroke="#000000" d="M507.9844,-494.4061C523.7926,-481.6975 545.7194,-464.07 562.8271,-450.3168"/>
<polygon fill="#000000" stroke="#000000" points="565.1896,-452.9084 570.7904,-443.915 560.8036,-447.4527 565.1896,-452.9084"/>
</g>
<!-- Kernel_properties -->
<g id="node13" class="node">
<title>Kernel_properties</title>
<g id="a_node13"><a xlink:href="Kernel_properties.html" xlink:title="Kernel_properties">
<ellipse fill="#00ced1" stroke="#00ced1" cx="444.3431" cy="-592" rx="74.187" ry="18"/>
<text text-anchor="middle" x="444.3431" y="-588.3" font-family="Times,serif" font-size="14.00" fill="#000000">Kernel_properties</text>
</a>
</g>
</g>
<!-- Kernel_properties&#45;&gt;Package -->
<g id="edge31" class="edge">
<title>Kernel_properties&#45;&gt;Package</title>
<path fill="none" stroke="#000000" d="M501.0092,-580.3095C572.8137,-561.7988 687.3431,-518.2802 687.3431,-429 687.3431,-429 687.3431,-429 687.3431,-266 687.3431,-199.449 619.4428,-147.3968 576.2529,-121.019"/>
<polygon fill="#000000" stroke="#000000" points="577.8295,-117.8846 567.445,-115.784 574.253,-123.902 577.8295,-117.8846"/>
</g>
<!-- Kernel_properties&#45;&gt;Data -->
<g id="edge28" class="edge">
<title>Kernel_properties&#45;&gt;Data</title>
<path fill="none" stroke="#000000" d="M439.4381,-573.9231C436.1865,-561.3932 432.0382,-544.2798 429.3431,-529 408.736,-412.1666 396.1769,-271.1311 391.4675,-212.1089"/>
<polygon fill="#000000" stroke="#000000" points="394.9512,-211.7624 390.6794,-202.0669 387.9727,-212.3102 394.9512,-211.7624"/>
</g>
<!-- Kernel_properties&#45;&gt;Request -->
<g id="edge32" class="edge">
<title>Kernel_properties&#45;&gt;Request</title>
<path fill="none" stroke="#000000" d="M399.3706,-577.6148C345.8505,-557.7883 259.0033,-516.4089 221.3431,-447 208.7615,-423.8116 218.9611,-394.1678 229.8764,-373.1933"/>
<polygon fill="#000000" stroke="#000000" points="233.0644,-374.6619 234.8626,-364.2208 226.9457,-371.2616 233.0644,-374.6619"/>
</g>
<!-- Kernel_properties&#45;&gt;States -->
<g id="edge33" class="edge">
<title>Kernel_properties&#45;&gt;States</title>
<path fill="none" stroke="#000000" d="M480.3903,-576.2441C501.5863,-565.4812 527.6183,-549.4638 545.3431,-529 563.4852,-508.0544 575.2503,-478.4478 582.0085,-456.8869"/>
<polygon fill="#000000" stroke="#000000" points="585.4463,-457.6043 584.93,-447.022 578.7344,-455.6166 585.4463,-457.6043"/>
</g>
<!-- Kernel_properties&#45;&gt;Kernel_main -->
<g id="edge30" class="edge">
<title>Kernel_properties&#45;&gt;Kernel_main</title>
<path fill="none" stroke="#000000" d="M388.7317,-579.9644C308.6946,-562.5691 170.0373,-532.1277 165.3431,-529 138.3658,-511.0255 118.364,-479.0608 106.5826,-456.1042"/>
<polygon fill="#000000" stroke="#000000" points="109.5994,-454.308 102.0404,-446.8843 103.3201,-457.4015 109.5994,-454.308"/>
</g>
<!-- Kernel_properties&#45;&gt;Kernel_ast -->
<g id="edge29" class="edge">
<title>Kernel_properties&#45;&gt;Kernel_ast</title>
<path fill="none" stroke="#000000" d="M453.8862,-574.0235C459.509,-563.4318 466.7315,-549.8267 473.0259,-537.9696"/>
<polygon fill="#000000" stroke="#000000" points="476.2292,-539.4 477.8267,-528.9263 470.0464,-536.1177 476.2292,-539.4"/>
</g>
</g>
</svg>
