<?xml version="1.0" encoding="UTF-8" standalone="no"?>
<!DOCTYPE svg PUBLIC "-//W3C//DTD SVG 1.1//EN"
 "http://www.w3.org/Graphics/SVG/1.1/DTD/svg11.dtd">
<!-- Generated by graphviz version 2.40.1 (20161225.0304)
 -->
<!-- Title: Plugin architecture (studia) Pages: 1 -->
<svg width="719pt" height="540pt"
 viewBox="0.00 0.00 719.40 540.00" xmlns="http://www.w3.org/2000/svg" xmlns:xlink="http://www.w3.org/1999/xlink">
<g id="graph0" class="graph" transform="scale(.9854 .9854) rotate(0) translate(4 544)">
<title>Plugin architecture (studia)</title>
<polygon fill="#ffffff" stroke="transparent" points="-4,4 -4,-544 726.0614,-544 726.0614,4 -4,4"/>
<!-- Studia -->
<g id="node1" class="node">
<title>Studia</title>
<g id="a_node1"><a xlink:href="Studia.html" xlink:title="Studia">
<ellipse fill="#00ced1" stroke="#00ced1" cx="105.6706" cy="-486" rx="33.2948" ry="18"/>
<text text-anchor="middle" x="105.6706" y="-482.3" font-family="Times,serif" font-size="14.00" fill="#000000">Studia</text>
</a>
</g>
</g>
<!-- Options -->
<g id="node2" class="node">
<title>Options</title>
<g id="a_node2"><a xlink:href="Options.html" xlink:title="Options">
<ellipse fill="#00ced1" stroke="#00ced1" cx="214.6706" cy="-270" rx="38.1938" ry="18"/>
<text text-anchor="middle" x="214.6706" y="-266.3" font-family="Times,serif" font-size="14.00" fill="#000000">Options</text>
</a>
</g>
</g>
<!-- Writes -->
<g id="node3" class="node">
<title>Writes</title>
<g id="a_node3"><a xlink:href="Writes.html" xlink:title="Writes">
<ellipse fill="#00ced1" stroke="#00ced1" cx="521.6706" cy="-54" rx="34.394" ry="18"/>
<text text-anchor="middle" x="521.6706" y="-50.3" font-family="Times,serif" font-size="14.00" fill="#000000">Writes</text>
</a>
</g>
</g>
<!-- Reads -->
<g id="node4" class="node">
<title>Reads</title>
<g id="a_node4"><a xlink:href="Reads.html" xlink:title="Reads">
<ellipse fill="#00ced1" stroke="#00ced1" cx="617.6706" cy="-270" rx="32.4942" ry="18"/>
<text text-anchor="middle" x="617.6706" y="-266.3" font-family="Times,serif" font-size="14.00" fill="#000000">Reads</text>
</a>
</g>
</g>
<!-- Reads&#45;&gt;Writes -->
<g id="edge1" class="edge">
<title>Reads&#45;&gt;Writes</title>
<path fill="none" stroke="#000000" d="M609.8145,-252.3238C593.0369,-214.5741 553.6144,-125.8736 533.6727,-81.0047"/>
<polygon fill="#000000" stroke="#000000" points="536.7604,-79.3341 529.5006,-71.6175 530.3637,-82.1771 536.7604,-79.3341"/>
</g>
<!-- Studia_gui -->
<g id="node5" class="node">
<title>Studia_gui</title>
<g id="a_node5"><a xlink:href="Studia_gui.html" xlink:title="Studia_gui">
<ellipse fill="#00ced1" stroke="#00ced1" cx="425.6706" cy="-486" rx="48.9926" ry="18"/>
<text text-anchor="middle" x="425.6706" y="-482.3" font-family="Times,serif" font-size="14.00" fill="#000000">Studia_gui</text>
</a>
</g>
</g>
<!-- Studia_gui&#45;&gt;Options -->
<g id="edge2" class="edge">
<title>Studia_gui&#45;&gt;Options</title>
<path fill="none" stroke="#000000" d="M409.1138,-469.0508C371.8129,-430.8661 281.1114,-338.0153 238.0752,-293.9592"/>
<polygon fill="#000000" stroke="#000000" points="240.3522,-291.2814 230.8607,-286.5738 235.3448,-296.1729 240.3522,-291.2814"/>
</g>
<!-- Studia_gui&#45;&gt;Writes -->
<g id="edge4" class="edge">
<title>Studia_gui&#45;&gt;Writes</title>
<path fill="none" stroke="#000000" d="M429.6734,-467.9875C444.6162,-400.7447 497.2085,-164.0792 515.4132,-82.1585"/>
<polygon fill="#000000" stroke="#000000" points="518.898,-82.6106 517.6507,-72.0894 512.0647,-81.092 518.898,-82.6106"/>
</g>
<!-- Studia_gui&#45;&gt;Reads -->
<g id="edge3" class="edge">
<title>Studia_gui&#45;&gt;Reads</title>
<path fill="none" stroke="#000000" d="M441.0582,-468.6889C475.2372,-430.2376 557.5282,-337.6602 596.5105,-293.8052"/>
<polygon fill="#000000" stroke="#000000" points="599.2362,-296.0069 603.2639,-286.2075 594.0043,-291.3563 599.2362,-296.0069"/>
</g>
</g>
</svg>
