<?xml version="1.0" encoding="UTF-8" standalone="no"?>
<!DOCTYPE svg PUBLIC "-//W3C//DTD SVG 1.1//EN"
 "http://www.w3.org/Graphics/SVG/1.1/DTD/svg11.dtd">
<!-- Generated by graphviz version 2.40.1 (20161225.0304)
 -->
<!-- Title: Plugin architecture (dive) Pages: 1 -->
<svg width="719pt" height="540pt"
 viewBox="0.00 0.00 719.00 540.00" xmlns="http://www.w3.org/2000/svg" xmlns:xlink="http://www.w3.org/1999/xlink">
<g id="graph0" class="graph" transform="scale(.9854 .9854) rotate(0) translate(4 544)">
<title>Plugin architecture (dive)</title>
<polygon fill="#ffffff" stroke="transparent" points="-4,4 -4,-544 725.6558,-544 725.6558,4 -4,4"/>
<!-- Dive -->
<g id="node1" class="node">
<title>Dive</title>
<g id="a_node1"><a xlink:href="Dive.html" xlink:title="Dive">
<ellipse fill="#00ced1" stroke="#00ced1" cx="120.4672" cy="-519" rx="27.8951" ry="18"/>
<text text-anchor="middle" x="120.4672" y="-515.3" font-family="Times,serif" font-size="14.00" fill="#000000">Dive</text>
</a>
</g>
</g>
<!-- Self -->
<g id="node2" class="node">
<title>Self</title>
<g id="a_node2"><a xlink:href="Self.html" xlink:title="Self">
<ellipse fill="#00ced1" stroke="#00ced1" cx="47.4672" cy="-270" rx="27" ry="18"/>
<text text-anchor="middle" x="47.4672" y="-266.3" font-family="Times,serif" font-size="14.00" fill="#000000">Self</text>
</a>
</g>
</g>
<!-- Callstack -->
<g id="node3" class="node">
<title>Callstack</title>
<g id="a_node3"><a xlink:href="Callstack.html" xlink:title="Callstack">
<ellipse fill="#00ced1" stroke="#00ced1" cx="555.4672" cy="-21" rx="43.5923" ry="18"/>
<text text-anchor="middle" x="555.4672" y="-17.3" font-family="Times,serif" font-size="14.00" fill="#000000">Callstack</text>
</a>
</g>
</g>
<!-- Node_kind -->
<g id="node4" class="node">
<title>Node_kind</title>
<g id="a_node4"><a xlink:href="Node_kind.html" xlink:title="Node_kind">
<ellipse fill="#00ced1" stroke="#00ced1" cx="346.4672" cy="-187" rx="50.0912" ry="18"/>
<text text-anchor="middle" x="346.4672" y="-183.3" font-family="Times,serif" font-size="14.00" fill="#000000">Node_kind</text>
</a>
</g>
</g>
<!-- Dive_types -->
<g id="node5" class="node">
<title>Dive_types</title>
<g id="a_node5"><a xlink:href="Dive_types.html" xlink:title="Dive_types">
<ellipse fill="#00ced1" stroke="#00ced1" cx="555.4672" cy="-104" rx="50.8918" ry="18"/>
<text text-anchor="middle" x="555.4672" y="-100.3" font-family="Times,serif" font-size="14.00" fill="#000000">Dive_types</text>
</a>
</g>
</g>
<!-- Node_kind&#45;&gt;Dive_types -->
<g id="edge1" class="edge">
<title>Node_kind&#45;&gt;Dive_types</title>
<path fill="none" stroke="#000000" d="M380.5118,-173.4799C416.3403,-159.2513 472.8516,-136.809 511.9071,-121.299"/>
<polygon fill="#000000" stroke="#000000" points="513.435,-124.4582 521.4371,-117.5143 510.8513,-117.9524 513.435,-124.4582"/>
</g>
<!-- Dive_types&#45;&gt;Callstack -->
<g id="edge26" class="edge">
<title>Dive_types&#45;&gt;Callstack</title>
<path fill="none" stroke="#000000" d="M555.4672,-85.9902C555.4672,-75.2963 555.4672,-61.4994 555.4672,-49.3706"/>
<polygon fill="#000000" stroke="#000000" points="558.9673,-49.2612 555.4672,-39.2612 551.9673,-49.2613 558.9673,-49.2612"/>
</g>
<!-- Node_range -->
<g id="node6" class="node">
<title>Node_range</title>
<g id="a_node6"><a xlink:href="Node_range.html" xlink:title="Node_range">
<ellipse fill="#00ced1" stroke="#00ced1" cx="627.4672" cy="-187" rx="53.8905" ry="18"/>
<text text-anchor="middle" x="627.4672" y="-183.3" font-family="Times,serif" font-size="14.00" fill="#000000">Node_range</text>
</a>
</g>
</g>
<!-- Node_range&#45;&gt;Dive_types -->
<g id="edge2" class="edge">
<title>Node_range&#45;&gt;Dive_types</title>
<path fill="none" stroke="#000000" d="M612.1978,-169.3978C602.0109,-157.6546 588.4644,-142.0385 577.1636,-129.0112"/>
<polygon fill="#000000" stroke="#000000" points="579.6643,-126.5526 570.4676,-121.2922 574.3765,-131.1396 579.6643,-126.5526"/>
</g>
<!-- Dive_graph -->
<g id="node7" class="node">
<title>Dive_graph</title>
<g id="a_node7"><a xlink:href="Dive_graph.html" xlink:title="Dive_graph">
<ellipse fill="#00ced1" stroke="#00ced1" cx="487.4672" cy="-270" rx="51.9908" ry="18"/>
<text text-anchor="middle" x="487.4672" y="-266.3" font-family="Times,serif" font-size="14.00" fill="#000000">Dive_graph</text>
</a>
</g>
</g>
<!-- Dive_graph&#45;&gt;Node_kind -->
<g id="edge3" class="edge">
<title>Dive_graph&#45;&gt;Node_kind</title>
<path fill="none" stroke="#000000" d="M460.9461,-254.3883C438.4948,-241.1723 406.1357,-222.124 381.5448,-207.6486"/>
<polygon fill="#000000" stroke="#000000" points="383.2626,-204.5984 372.8693,-202.5417 379.7115,-210.6308 383.2626,-204.5984"/>
</g>
<!-- Dive_graph&#45;&gt;Dive_types -->
<g id="edge5" class="edge">
<title>Dive_graph&#45;&gt;Dive_types</title>
<path fill="none" stroke="#000000" d="M494.8738,-251.9191C506.779,-222.8564 530.2494,-165.5609 544.2278,-131.4371"/>
<polygon fill="#000000" stroke="#000000" points="547.5177,-132.6391 548.0696,-122.0586 541.0401,-129.9856 547.5177,-132.6391"/>
</g>
<!-- Dive_graph&#45;&gt;Node_range -->
<g id="edge4" class="edge">
<title>Dive_graph&#45;&gt;Node_range</title>
<path fill="none" stroke="#000000" d="M513.8001,-254.3883C535.9511,-241.2559 567.8155,-222.3649 592.1737,-207.924"/>
<polygon fill="#000000" stroke="#000000" points="593.9593,-210.9343 600.7763,-202.8239 590.3895,-204.9129 593.9593,-210.9343"/>
</g>
<!-- Context -->
<g id="node8" class="node">
<title>Context</title>
<g id="a_node8"><a xlink:href="Context.html" xlink:title="Context">
<ellipse fill="#00ced1" stroke="#00ced1" cx="231.4672" cy="-353" rx="38.1938" ry="18"/>
<text text-anchor="middle" x="231.4672" y="-349.3" font-family="Times,serif" font-size="14.00" fill="#000000">Context</text>
</a>
</g>
</g>
<!-- Context&#45;&gt;Self -->
<g id="edge8" class="edge">
<title>Context&#45;&gt;Self</title>
<path fill="none" stroke="#000000" d="M203.5215,-340.3941C170.072,-325.3054 114.1954,-300.1003 79.1654,-284.2987"/>
<polygon fill="#000000" stroke="#000000" points="80.4286,-281.0289 69.8739,-280.1074 77.5502,-287.4098 80.4286,-281.0289"/>
</g>
<!-- Context&#45;&gt;Callstack -->
<g id="edge6" class="edge">
<title>Context&#45;&gt;Callstack</title>
<path fill="none" stroke="#000000" d="M228.1356,-334.8142C222.6192,-298.6372 215.8794,-217.0054 256.4672,-169 322.8946,-90.4326 441.0939,-49.6408 507.2369,-32.0286"/>
<polygon fill="#000000" stroke="#000000" points="508.1963,-35.3957 516.9976,-29.4976 506.4392,-28.6198 508.1963,-35.3957"/>
</g>
<!-- Context&#45;&gt;Node_kind -->
<g id="edge7" class="edge">
<title>Context&#45;&gt;Node_kind</title>
<path fill="none" stroke="#000000" d="M243.341,-335.8603C263.5174,-306.7362 304.6117,-247.4174 328.3821,-213.1054"/>
<polygon fill="#000000" stroke="#000000" points="331.4946,-214.7586 334.3123,-204.5453 325.7405,-210.7723 331.4946,-214.7586"/>
</g>
<!-- Context&#45;&gt;Dive_types -->
<g id="edge9" class="edge">
<title>Context&#45;&gt;Dive_types</title>
<path fill="none" stroke="#000000" d="M231.4113,-334.8196C232.3337,-297.9176 239.8782,-213.9284 287.4672,-169 317.4132,-140.7281 428.1446,-121.0998 497.557,-111.2659"/>
<polygon fill="#000000" stroke="#000000" points="498.061,-114.7296 507.4839,-109.8861 497.0972,-107.7962 498.061,-114.7296"/>
</g>
<!-- Context&#45;&gt;Dive_graph -->
<g id="edge10" class="edge">
<title>Context&#45;&gt;Dive_graph</title>
<path fill="none" stroke="#000000" d="M263.1145,-342.7393C307.3524,-328.3966 388.0355,-302.2376 439.6318,-285.5091"/>
<polygon fill="#000000" stroke="#000000" points="440.7948,-288.8115 449.2278,-282.3979 438.6358,-282.1527 440.7948,-288.8115"/>
</g>
<!-- Build -->
<g id="node9" class="node">
<title>Build</title>
<g id="a_node9"><a xlink:href="Build.html" xlink:title="Build">
<ellipse fill="#00ced1" stroke="#00ced1" cx="480.4672" cy="-436" rx="30.5947" ry="18"/>
<text text-anchor="middle" x="480.4672" y="-432.3" font-family="Times,serif" font-size="14.00" fill="#000000">Build</text>
</a>
</g>
</g>
<!-- Build&#45;&gt;Self -->
<g id="edge14" class="edge">
<title>Build&#45;&gt;Self</title>
<path fill="none" stroke="#000000" d="M450.178,-433.541C395.0866,-428.1745 275.7493,-412.392 184.4672,-371 140.2704,-350.959 96.3987,-315.0659 70.6234,-291.9069"/>
<polygon fill="#000000" stroke="#000000" points="72.6594,-289.0265 62.9133,-284.8714 67.941,-294.1974 72.6594,-289.0265"/>
</g>
<!-- Build&#45;&gt;Callstack -->
<g id="edge11" class="edge">
<title>Build&#45;&gt;Callstack</title>
<path fill="none" stroke="#000000" d="M505.3414,-425.3585C530.1724,-414.0349 568.6784,-394.5257 597.4672,-371 665.8109,-315.1506 687.665,-291.2352 706.4672,-205 722.379,-132.0211 640.5461,-70.3699 591.0624,-40.4315"/>
<polygon fill="#000000" stroke="#000000" points="592.6203,-37.2868 582.2301,-35.2148 589.0604,-43.314 592.6203,-37.2868"/>
</g>
<!-- Build&#45;&gt;Node_kind -->
<g id="edge13" class="edge">
<title>Build&#45;&gt;Node_kind</title>
<path fill="none" stroke="#000000" d="M471.0445,-418.4908C447.9387,-375.5553 388.3495,-264.8262 360.8116,-213.655"/>
<polygon fill="#000000" stroke="#000000" points="363.8797,-211.9704 356.0587,-204.8231 357.7156,-215.2876 363.8797,-211.9704"/>
</g>
<!-- Build&#45;&gt;Dive_types -->
<g id="edge15" class="edge">
<title>Build&#45;&gt;Dive_types</title>
<path fill="none" stroke="#000000" d="M500.606,-422.189C545.1923,-390.2249 651.379,-306.1056 690.4672,-205 696.2367,-190.0765 698.9802,-182.5473 690.4672,-169 672.8098,-140.9008 639.2237,-124.6652 609.9704,-115.4471"/>
<polygon fill="#000000" stroke="#000000" points="610.8265,-112.0507 600.2451,-112.5831 608.849,-118.7656 610.8265,-112.0507"/>
</g>
<!-- Build&#45;&gt;Dive_graph -->
<g id="edge12" class="edge">
<title>Build&#45;&gt;Dive_graph</title>
<path fill="none" stroke="#000000" d="M481.2296,-417.9191C482.4446,-389.1059 484.8298,-332.5425 486.2729,-298.321"/>
<polygon fill="#000000" stroke="#000000" points="489.7811,-298.1972 486.7056,-288.0586 482.7873,-297.9022 489.7811,-298.1972"/>
</g>
<!-- Build&#45;&gt;Context -->
<g id="edge16" class="edge">
<title>Build&#45;&gt;Context</title>
<path fill="none" stroke="#000000" d="M453.8198,-427.1175C410.4187,-412.6505 324.1589,-383.8972 272.7694,-366.7674"/>
<polygon fill="#000000" stroke="#000000" points="273.5732,-363.3461 262.9795,-363.5041 271.3595,-369.9869 273.5732,-363.3461"/>
</g>
<!-- Main -->
<g id="node10" class="node">
<title>Main</title>
<g id="a_node10"><a xlink:href="Main.html" xlink:title="Main">
<ellipse fill="#00ced1" stroke="#00ced1" cx="254.4672" cy="-519" rx="29.795" ry="18"/>
<text text-anchor="middle" x="254.4672" y="-515.3" font-family="Times,serif" font-size="14.00" fill="#000000">Main</text>
</a>
</g>
</g>
<!-- Main&#45;&gt;Self -->
<g id="edge17" class="edge">
<title>Main&#45;&gt;Self</title>
<path fill="none" stroke="#000000" d="M226.3638,-512.6287C169.9135,-499.5545 47.1201,-469.614 35.4672,-454 1.0179,-407.8407 20.9193,-335.6769 35.7904,-296.8622"/>
<polygon fill="#000000" stroke="#000000" points="39.1518,-297.8826 39.6142,-287.2978 32.652,-295.2839 39.1518,-297.8826"/>
</g>
<!-- Main&#45;&gt;Dive_graph -->
<g id="edge18" class="edge">
<title>Main&#45;&gt;Dive_graph</title>
<path fill="none" stroke="#000000" d="M269.3968,-503.0451C308.9629,-460.762 416.7337,-345.5907 464.3363,-294.7193"/>
<polygon fill="#000000" stroke="#000000" points="467.1629,-296.821 471.4399,-287.1278 462.0517,-292.0382 467.1629,-296.821"/>
</g>
<!-- Main&#45;&gt;Context -->
<g id="edge19" class="edge">
<title>Main&#45;&gt;Context</title>
<path fill="none" stroke="#000000" d="M251.962,-500.9191C247.9698,-472.1059 240.1327,-415.5425 235.3911,-381.321"/>
<polygon fill="#000000" stroke="#000000" points="238.8086,-380.4836 233.9693,-371.0586 231.8749,-381.4444 238.8086,-380.4836"/>
</g>
<!-- Main&#45;&gt;Build -->
<g id="edge20" class="edge">
<title>Main&#45;&gt;Build</title>
<path fill="none" stroke="#000000" d="M280.3922,-509.4788C320.8987,-494.6026 399.282,-465.8158 444.9911,-449.0288"/>
<polygon fill="#000000" stroke="#000000" points="446.3169,-452.2705 454.4973,-445.5376 443.9037,-445.6997 446.3169,-452.2705"/>
</g>
<!-- Server_interface -->
<g id="node11" class="node">
<title>Server_interface</title>
<g id="a_node11"><a xlink:href="Server_interface.html" xlink:title="Server_interface">
<ellipse fill="#00ced1" stroke="#00ced1" cx="480.4672" cy="-519" rx="68.7879" ry="18"/>
<text text-anchor="middle" x="480.4672" y="-515.3" font-family="Times,serif" font-size="14.00" fill="#000000">Server_interface</text>
</a>
</g>
</g>
<!-- Server_interface&#45;&gt;Self -->
<g id="edge25" class="edge">
<title>Server_interface&#45;&gt;Self</title>
<path fill="none" stroke="#000000" d="M428.3473,-507.0895C354.1199,-488.1378 216.4451,-445.4387 121.4672,-371 95.4188,-350.5847 74.18,-318.7288 61.2433,-296.2612"/>
<polygon fill="#000000" stroke="#000000" points="64.1511,-294.2897 56.2174,-287.2678 58.0405,-297.7046 64.1511,-294.2897"/>
</g>
<!-- Server_interface&#45;&gt;Dive_types -->
<g id="edge24" class="edge">
<title>Server_interface&#45;&gt;Dive_types</title>
<path fill="none" stroke="#000000" d="M501.4096,-501.6483C551.715,-458.1911 677.3499,-338.5449 706.4672,-205 709.8756,-189.3673 715.2643,-182.3645 706.4672,-169 685.7751,-137.5651 646.3383,-121.2682 612.9563,-112.8547"/>
<polygon fill="#000000" stroke="#000000" points="613.352,-109.353 602.8182,-110.4886 611.761,-116.1699 613.352,-109.353"/>
</g>
<!-- Server_interface&#45;&gt;Dive_graph -->
<g id="edge23" class="edge">
<title>Server_interface&#45;&gt;Dive_graph</title>
<path fill="none" stroke="#000000" d="M495.1565,-501.2447C504.4153,-488.8541 515.5233,-471.4667 520.4672,-454 535.9386,-399.3387 514.824,-333.4025 499.9223,-297.1659"/>
<polygon fill="#000000" stroke="#000000" points="503.0579,-295.5959 495.9195,-287.7669 496.6176,-298.3387 503.0579,-295.5959"/>
</g>
<!-- Server_interface&#45;&gt;Context -->
<g id="edge22" class="edge">
<title>Server_interface&#45;&gt;Context</title>
<path fill="none" stroke="#000000" d="M455.2214,-502.1695C409.2669,-471.5332 312.1158,-406.7658 262.3176,-373.567"/>
<polygon fill="#000000" stroke="#000000" points="264.1432,-370.5776 253.8812,-367.9427 260.2603,-376.402 264.1432,-370.5776"/>
</g>
<!-- Server_interface&#45;&gt;Build -->
<g id="edge21" class="edge">
<title>Server_interface&#45;&gt;Build</title>
<path fill="none" stroke="#000000" d="M480.4672,-500.9902C480.4672,-490.2963 480.4672,-476.4994 480.4672,-464.3706"/>
<polygon fill="#000000" stroke="#000000" points="483.9673,-464.2612 480.4672,-454.2612 476.9673,-464.2613 483.9673,-464.2612"/>
</g>
</g>
</svg>
