<?xml version="1.0" encoding="UTF-8" standalone="no"?>
<!DOCTYPE svg PUBLIC "-//W3C//DTD SVG 1.1//EN"
 "http://www.w3.org/Graphics/SVG/1.1/DTD/svg11.dtd">
<!-- Generated by graphviz version 2.40.1 (20161225.0304)
 -->
<!-- Title: Plugin architecture (instantiate) Pages: 1 -->
<svg width="720pt" height="504pt"
 viewBox="0.00 0.00 720.00 503.99" xmlns="http://www.w3.org/2000/svg" xmlns:xlink="http://www.w3.org/1999/xlink">
<g id="graph0" class="graph" transform="scale(.7091 .7091) rotate(0) translate(4 706.75)">
<title>Plugin architecture (instantiate)</title>
<polygon fill="#ffffff" stroke="transparent" points="-4,4 -4,-706.75 1011.3769,-706.75 1011.3769,4 -4,4"/>
<!-- Instantiate -->
<g id="node1" class="node">
<title>Instantiate</title>
<g id="a_node1"><a xlink:href="Instantiate.html" xlink:title="Instantiate">
<ellipse fill="#00ced1" stroke="#00ced1" cx="47.4458" cy="-664" rx="47.3916" ry="18"/>
<text text-anchor="middle" x="47.4458" y="-660.3" font-family="Times,serif" font-size="14.00" fill="#000000">Instantiate</text>
</a>
</g>
</g>
<!-- Options -->
<g id="node2" class="node">
<title>Options</title>
<g id="a_node2"><a xlink:href="Options.html" xlink:title="Options">
<ellipse fill="#00ced1" stroke="#00ced1" cx="637.4458" cy="-39" rx="38.1938" ry="18"/>
<text text-anchor="middle" x="637.4458" y="-35.3" font-family="Times,serif" font-size="14.00" fill="#000000">Options</text>
</a>
</g>
</g>
<!-- Basic_blocks -->
<g id="node3" class="node">
<title>Basic_blocks</title>
<g id="a_node3"><a xlink:href="Basic_blocks.html" xlink:title="Basic_blocks">
<ellipse fill="#00ced1" stroke="#00ced1" cx="383.4458" cy="-195" rx="57.6901" ry="18"/>
<text text-anchor="middle" x="383.4458" y="-191.3" font-family="Times,serif" font-size="14.00" fill="#000000">Basic_blocks</text>
</a>
</g>
</g>
<!-- Basic_blocks&#45;&gt;Options -->
<g id="edge1" class="edge">
<title>Basic_blocks&#45;&gt;Options</title>
<path fill="none" stroke="#000000" d="M409.6716,-178.8928C456.5437,-150.1052 554.5286,-89.9255 605.3416,-58.7175"/>
<polygon fill="#000000" stroke="#000000" points="607.2734,-61.6386 613.9628,-53.4226 603.6099,-55.6737 607.2734,-61.6386"/>
</g>
<!-- Global_context -->
<g id="node4" class="node">
<title>Global_context</title>
<g id="a_node4"><a xlink:href="Global_context.html" xlink:title="Global_context">
<ellipse fill="#00ced1" stroke="#00ced1" cx="768.4458" cy="-351" rx="64.9885" ry="18"/>
<text text-anchor="middle" x="768.4458" y="-347.3" font-family="Times,serif" font-size="14.00" fill="#000000">Global_context</text>
</a>
</g>
</g>
<!-- Global_context&#45;&gt;Options -->
<g id="edge2" class="edge">
<title>Global_context&#45;&gt;Options</title>
<path fill="none" stroke="#000000" d="M760.8364,-332.877C738.8525,-280.5182 675.1514,-128.8026 648.93,-66.3517"/>
<polygon fill="#000000" stroke="#000000" points="652.0114,-64.6495 644.9129,-56.7842 645.5572,-67.3595 652.0114,-64.6495"/>
</g>
<!-- Instantiator_builder -->
<g id="node5" class="node">
<title>Instantiator_builder</title>
<g id="a_node5"><a xlink:href="Instantiator_builder.html" xlink:title="Instantiator_builder">
<ellipse fill="#00ced1" stroke="#00ced1" cx="491.4458" cy="-351" rx="79.8859" ry="18"/>
<text text-anchor="middle" x="491.4458" y="-347.3" font-family="Times,serif" font-size="14.00" fill="#000000">Instantiator_builder</text>
</a>
</g>
</g>
<!-- Instantiator_builder&#45;&gt;Options -->
<g id="edge4" class="edge">
<title>Instantiator_builder&#45;&gt;Options</title>
<path fill="none" stroke="#000000" d="M499.9264,-332.877C524.4782,-280.4102 595.7157,-128.1765 624.8268,-65.9666"/>
<polygon fill="#000000" stroke="#000000" points="628.0553,-67.3251 629.1237,-56.7842 621.7151,-64.3582 628.0553,-67.3251"/>
</g>
<!-- Instantiator_builder&#45;&gt;Basic_blocks -->
<g id="edge3" class="edge">
<title>Instantiator_builder&#45;&gt;Basic_blocks</title>
<path fill="none" stroke="#000000" d="M479.0568,-333.1048C460.0143,-305.599 423.455,-252.791 401.4761,-221.0438"/>
<polygon fill="#000000" stroke="#000000" points="404.2601,-218.9162 395.6903,-212.6865 398.5047,-222.9007 404.2601,-218.9162"/>
</g>
<!-- Transform -->
<g id="node6" class="node">
<title>Transform</title>
<g id="a_node6"><a xlink:href="Transform.html" xlink:title="Transform">
<ellipse fill="#00ced1" stroke="#00ced1" cx="561.4458" cy="-508" rx="48.1917" ry="18"/>
<text text-anchor="middle" x="561.4458" y="-504.3" font-family="Times,serif" font-size="14.00" fill="#000000">Transform</text>
</a>
</g>
</g>
<!-- Transform&#45;&gt;Options -->
<g id="edge6" class="edge">
<title>Transform&#45;&gt;Options</title>
<path fill="none" stroke="#000000" d="M564.3785,-489.902C575.9925,-418.2314 618.8134,-153.9815 632.9119,-66.9786"/>
<polygon fill="#000000" stroke="#000000" points="636.3771,-67.4752 634.5218,-57.044 629.4672,-66.3554 636.3771,-67.4752"/>
</g>
<!-- Transform&#45;&gt;Global_context -->
<g id="edge5" class="edge">
<title>Transform&#45;&gt;Global_context</title>
<path fill="none" stroke="#000000" d="M582.8188,-491.7896C619.7152,-463.8053 695.4742,-406.3456 737.9152,-374.1561"/>
<polygon fill="#000000" stroke="#000000" points="740.0852,-376.9031 745.9377,-368.0713 735.8551,-371.3258 740.0852,-376.9031"/>
</g>
<!-- Transform&#45;&gt;Instantiator_builder -->
<g id="edge7" class="edge">
<title>Transform&#45;&gt;Instantiator_builder</title>
<path fill="none" stroke="#000000" d="M553.4159,-489.9901C541.2441,-462.6905 518.0305,-410.6257 503.7281,-378.5475"/>
<polygon fill="#000000" stroke="#000000" points="506.8665,-376.9915 499.5976,-369.2835 500.4732,-379.8421 506.8665,-376.9915"/>
</g>
<!-- Register -->
<g id="node7" class="node">
<title>Register</title>
<g id="a_node7"><a xlink:href="Register.html" xlink:title="Register">
<ellipse fill="#00ced1" stroke="#00ced1" cx="594.4458" cy="-664" rx="40.0939" ry="18"/>
<text text-anchor="middle" x="594.4458" y="-660.3" font-family="Times,serif" font-size="14.00" fill="#000000">Register</text>
</a>
</g>
</g>
<!-- Register&#45;&gt;Options -->
<g id="edge9" class="edge">
<title>Register&#45;&gt;Options</title>
<path fill="none" stroke="#000000" d="M598.4083,-645.8044C603.9522,-619.5088 613.858,-569.2867 618.4458,-526 636.848,-352.3724 637.9286,-142.2331 637.6555,-67.2552"/>
<polygon fill="#000000" stroke="#000000" points="641.1553,-67.1771 637.6073,-57.1941 634.1554,-67.2108 641.1553,-67.1771"/>
</g>
<!-- Register&#45;&gt;Transform -->
<g id="edge8" class="edge">
<title>Register&#45;&gt;Transform</title>
<path fill="none" stroke="#000000" d="M590.5957,-645.7995C584.8827,-618.7929 574.1134,-567.8833 567.3851,-536.0767"/>
<polygon fill="#000000" stroke="#000000" points="570.7653,-535.1437 565.2714,-526.0846 563.9168,-536.5924 570.7653,-535.1437"/>
</g>
<!-- Mem_utils -->
<g id="node8" class="node">
<title>Mem_utils</title>
<g id="a_node8"><a xlink:href="Mem_utils.html" xlink:title="Mem_utils">
<ellipse fill="#eead0e" stroke="#eead0e" cx="269.4458" cy="-508" rx="50.0912" ry="18"/>
<text text-anchor="middle" x="269.4458" y="-504.3" font-family="Times,serif" font-size="14.00" fill="#000000">Mem_utils</text>
</a>
</g>
</g>
<!-- Mem_utils&#45;&gt;Options -->
<g id="edge11" class="edge">
<title>Mem_utils&#45;&gt;Options</title>
<path fill="none" stroke="#000000" d="M266.0538,-489.9919C256.9101,-435.6013 237.473,-270.9834 316.4458,-177 387.5814,-92.3435 520.1651,-58.2782 590.6215,-45.6793"/>
<polygon fill="#000000" stroke="#000000" points="591.2886,-49.1161 600.5512,-43.9728 590.1029,-42.2172 591.2886,-49.1161"/>
</g>
<!-- Mem_utils&#45;&gt;Basic_blocks -->
<g id="edge10" class="edge">
<title>Mem_utils&#45;&gt;Basic_blocks</title>
<path fill="none" stroke="#000000" d="M269.3476,-489.9877C269.7237,-457.5455 273.0785,-387.5903 293.4458,-333 309.4147,-290.1984 340.4891,-247.0892 361.6052,-220.716"/>
<polygon fill="#000000" stroke="#000000" points="364.4805,-222.7279 368.0793,-212.763 359.0518,-218.3086 364.4805,-222.7279"/>
</g>
<!-- Memcmp -->
<g id="node9" class="node">
<title>Memcmp</title>
<g id="a_node9"><a xlink:href="Memcmp.html" xlink:title="Memcmp">
<ellipse fill="#eead0e" stroke="#eead0e" cx="479.4458" cy="-664" rx="46.2923" ry="18"/>
<text text-anchor="middle" x="479.4458" y="-660.3" font-family="Times,serif" font-size="14.00" fill="#000000">Memcmp</text>
</a>
</g>
</g>
<!-- Memcmp&#45;&gt;Basic_blocks -->
<g id="edge12" class="edge">
<title>Memcmp&#45;&gt;Basic_blocks</title>
<path fill="none" stroke="#000000" d="M470.2908,-646.3431C447.623,-601.5069 389.2878,-479.0044 369.4458,-369 366.6056,-353.2541 368.6373,-348.9796 369.4458,-333 371.3687,-294.9945 376.2521,-251.3264 379.7084,-223.4678"/>
<polygon fill="#000000" stroke="#000000" points="383.217,-223.6198 380.9992,-213.2597 376.2723,-222.7416 383.217,-223.6198"/>
</g>
<!-- Memcmp&#45;&gt;Transform -->
<g id="edge14" class="edge">
<title>Memcmp&#45;&gt;Transform</title>
<path fill="none" stroke="#000000" d="M488.8522,-646.1048C503.1869,-618.8341 530.5949,-566.6919 547.3258,-534.8624"/>
<polygon fill="#000000" stroke="#000000" points="550.5943,-536.1666 552.1491,-525.6865 544.3981,-532.9096 550.5943,-536.1666"/>
</g>
<!-- Memcmp&#45;&gt;Mem_utils -->
<g id="edge13" class="edge">
<title>Memcmp&#45;&gt;Mem_utils</title>
<path fill="none" stroke="#000000" d="M457.7631,-647.8928C420.0371,-619.8679 342.2621,-562.0921 299.4081,-530.2577"/>
<polygon fill="#000000" stroke="#000000" points="301.4398,-527.4069 291.3252,-524.2533 297.2655,-533.0262 301.4398,-527.4069"/>
</g>
<!-- Memcpy -->
<g id="node10" class="node">
<title>Memcpy</title>
<g id="a_node10"><a xlink:href="Memcpy.html" xlink:title="Memcpy">
<ellipse fill="#eead0e" stroke="#eead0e" cx="254.4458" cy="-664" rx="42.7926" ry="18"/>
<text text-anchor="middle" x="254.4458" y="-660.3" font-family="Times,serif" font-size="14.00" fill="#000000">Memcpy</text>
</a>
</g>
</g>
<!-- Memcpy&#45;&gt;Basic_blocks -->
<g id="edge15" class="edge">
<title>Memcpy&#45;&gt;Basic_blocks</title>
<path fill="none" stroke="#000000" d="M244.4942,-646.3263C228.0917,-615.0077 198.3399,-547.6332 210.4458,-490 233.8667,-378.4984 319.3844,-268.3987 360.7427,-220.2525"/>
<polygon fill="#000000" stroke="#000000" points="363.5366,-222.3733 367.4566,-212.5303 358.254,-217.7805 363.5366,-222.3733"/>
</g>
<!-- Memcpy&#45;&gt;Transform -->
<g id="edge17" class="edge">
<title>Memcpy&#45;&gt;Transform</title>
<path fill="none" stroke="#000000" d="M281.9602,-650.0188C336.9756,-622.063 460.6358,-559.2259 523.3802,-527.3428"/>
<polygon fill="#000000" stroke="#000000" points="525.2145,-530.3367 532.544,-522.6862 522.0434,-524.0962 525.2145,-530.3367"/>
</g>
<!-- Memcpy&#45;&gt;Mem_utils -->
<g id="edge16" class="edge">
<title>Memcpy&#45;&gt;Mem_utils</title>
<path fill="none" stroke="#000000" d="M256.1958,-645.7995C258.7926,-618.7929 263.6878,-567.8833 266.7461,-536.0767"/>
<polygon fill="#000000" stroke="#000000" points="270.2336,-536.3737 267.7069,-526.0846 263.2657,-535.7036 270.2336,-536.3737"/>
</g>
<!-- Memmove -->
<g id="node11" class="node">
<title>Memmove</title>
<g id="a_node11"><a xlink:href="Memmove.html" xlink:title="Memmove">
<ellipse fill="#eead0e" stroke="#eead0e" cx="365.4458" cy="-664" rx="50.0912" ry="18"/>
<text text-anchor="middle" x="365.4458" y="-660.3" font-family="Times,serif" font-size="14.00" fill="#000000">Memmove</text>
</a>
</g>
</g>
<!-- Memmove&#45;&gt;Basic_blocks -->
<g id="edge18" class="edge">
<title>Memmove&#45;&gt;Basic_blocks</title>
<path fill="none" stroke="#000000" d="M360.0371,-645.9212C345.8163,-595.8411 309.913,-451.2116 331.4458,-333 338.7195,-293.0686 356.9258,-249.6722 369.7351,-222.4154"/>
<polygon fill="#000000" stroke="#000000" points="373.0147,-223.6705 374.1798,-213.1399 366.702,-220.6455 373.0147,-223.6705"/>
</g>
<!-- Memmove&#45;&gt;Transform -->
<g id="edge20" class="edge">
<title>Memmove&#45;&gt;Transform</title>
<path fill="none" stroke="#000000" d="M386.4212,-647.3053C421.7328,-619.2002 493.0867,-562.4083 532.9188,-530.7052"/>
<polygon fill="#000000" stroke="#000000" points="535.2711,-533.3062 540.9157,-524.3403 530.9118,-527.8293 535.2711,-533.3062"/>
</g>
<!-- Memmove&#45;&gt;Mem_utils -->
<g id="edge19" class="edge">
<title>Memmove&#45;&gt;Mem_utils</title>
<path fill="none" stroke="#000000" d="M354.62,-646.4081C337.8389,-619.1389 305.4388,-566.4887 285.7961,-534.5692"/>
<polygon fill="#000000" stroke="#000000" points="288.6012,-532.4492 280.3793,-525.767 282.6395,-536.118 288.6012,-532.4492"/>
</g>
<!-- Memset -->
<g id="node12" class="node">
<title>Memset</title>
<g id="a_node12"><a xlink:href="Memset.html" xlink:title="Memset">
<ellipse fill="#eead0e" stroke="#eead0e" cx="153.4458" cy="-664" rx="40.0939" ry="18"/>
<text text-anchor="middle" x="153.4458" y="-660.3" font-family="Times,serif" font-size="14.00" fill="#000000">Memset</text>
</a>
</g>
</g>
<!-- Memset&#45;&gt;Options -->
<g id="edge23" class="edge">
<title>Memset&#45;&gt;Options</title>
<path fill="none" stroke="#000000" d="M152.8035,-645.5458C151.3711,-574.4119 155.9366,-315.1101 290.4458,-177 373.7175,-91.4991 516.6654,-57.6049 590.4014,-45.3098"/>
<polygon fill="#000000" stroke="#000000" points="591.0145,-48.7563 600.3331,-43.7151 589.9047,-41.8448 591.0145,-48.7563"/>
</g>
<!-- Memset&#45;&gt;Basic_blocks -->
<g id="edge21" class="edge">
<title>Memset&#45;&gt;Basic_blocks</title>
<path fill="none" stroke="#000000" d="M155.8315,-645.9331C163.3017,-594.0496 189.6579,-441.3868 253.4458,-333 280.4556,-287.1056 325.2489,-244.1021 354.5597,-218.6662"/>
<polygon fill="#000000" stroke="#000000" points="357.0642,-221.1298 362.3887,-211.97 352.5143,-215.8101 357.0642,-221.1298"/>
</g>
<!-- Memset&#45;&gt;Transform -->
<g id="edge24" class="edge">
<title>Memset&#45;&gt;Transform</title>
<path fill="none" stroke="#000000" d="M184.1121,-652.2746C255.9526,-624.8062 435.3135,-556.227 518.1982,-524.5358"/>
<polygon fill="#000000" stroke="#000000" points="519.4865,-527.7904 527.577,-520.9498 516.9865,-521.2521 519.4865,-527.7904"/>
</g>
<!-- Memset&#45;&gt;Mem_utils -->
<g id="edge22" class="edge">
<title>Memset&#45;&gt;Mem_utils</title>
<path fill="none" stroke="#000000" d="M166.303,-646.7092C186.5766,-619.4448 226.108,-566.2818 249.9079,-534.2751"/>
<polygon fill="#000000" stroke="#000000" points="253.016,-535.9608 256.1744,-525.8477 247.3988,-531.7838 253.016,-535.9608"/>
</g>
<!-- Basic_alloc -->
<g id="node13" class="node">
<title>Basic_alloc</title>
<g id="a_node13"><a xlink:href="Basic_alloc.html" xlink:title="Basic_alloc">
<ellipse fill="#00ffff" stroke="#00ffff" cx="844.4458" cy="-508" rx="51.9908" ry="18"/>
<text text-anchor="middle" x="844.4458" y="-504.3" font-family="Times,serif" font-size="14.00" fill="#000000">Basic_alloc</text>
</a>
</g>
</g>
<!-- Basic_alloc&#45;&gt;Options -->
<g id="edge27" class="edge">
<title>Basic_alloc&#45;&gt;Options</title>
<path fill="none" stroke="#000000" d="M856.3663,-490.3096C889.8854,-438.1594 978.4076,-282.1104 913.4458,-177 863.0513,-95.46 748.2725,-60.4879 683.7289,-46.8209"/>
<polygon fill="#000000" stroke="#000000" points="684.3157,-43.3687 673.8189,-44.8065 682.9213,-50.2284 684.3157,-43.3687"/>
</g>
<!-- Basic_alloc&#45;&gt;Basic_blocks -->
<g id="edge25" class="edge">
<title>Basic_alloc&#45;&gt;Basic_blocks</title>
<path fill="none" stroke="#000000" d="M850.5481,-489.9346C860.9365,-455.528 877.7046,-379.857 842.4458,-333 794.3652,-269.1035 559.7568,-223.365 445.804,-204.5357"/>
<polygon fill="#000000" stroke="#000000" points="446.2582,-201.0636 435.8246,-202.9046 445.129,-207.9719 446.2582,-201.0636"/>
</g>
<!-- Basic_alloc&#45;&gt;Global_context -->
<g id="edge26" class="edge">
<title>Basic_alloc&#45;&gt;Global_context</title>
<path fill="none" stroke="#000000" d="M835.7276,-489.9901C822.5125,-462.6905 797.3092,-410.6257 781.7809,-378.5475"/>
<polygon fill="#000000" stroke="#000000" points="784.8038,-376.7593 777.2964,-369.2835 778.5032,-379.8093 784.8038,-376.7593"/>
</g>
<!-- Calloc -->
<g id="node14" class="node">
<title>Calloc</title>
<g id="a_node14"><a xlink:href="Calloc.html" xlink:title="Calloc">
<ellipse fill="#00ffff" stroke="#00ffff" cx="815.4458" cy="-664" rx="33.5952" ry="18"/>
<text text-anchor="middle" x="815.4458" y="-660.3" font-family="Times,serif" font-size="14.00" fill="#000000">Calloc</text>
</a>
</g>
</g>
<!-- Calloc&#45;&gt;Options -->
<g id="edge30" class="edge">
<title>Calloc&#45;&gt;Options</title>
<path fill="none" stroke="#000000" d="M829.4407,-647.3587C849.5171,-622.5759 886.1884,-573.7487 905.4458,-526 963.6625,-381.6518 1018.5839,-307.9441 934.4458,-177 878.827,-90.4405 753.4361,-57.2997 684.7049,-45.3083"/>
<polygon fill="#000000" stroke="#000000" points="685.024,-41.8133 674.5851,-43.6244 683.8749,-48.7184 685.024,-41.8133"/>
</g>
<!-- Calloc&#45;&gt;Basic_blocks -->
<g id="edge29" class="edge">
<title>Calloc&#45;&gt;Basic_blocks</title>
<path fill="none" stroke="#000000" d="M805.9925,-646.629C777.1729,-594.7099 685.9265,-437.8162 580.4458,-333 531.1874,-284.0519 462.7953,-240.4639 420.9141,-215.9272"/>
<polygon fill="#000000" stroke="#000000" points="422.5476,-212.8286 412.1412,-210.8392 419.0357,-218.8839 422.5476,-212.8286"/>
</g>
<!-- Calloc&#45;&gt;Transform -->
<g id="edge31" class="edge">
<title>Calloc&#45;&gt;Transform</title>
<path fill="none" stroke="#000000" d="M792.905,-650.156C748.1435,-622.6647 647.8349,-561.0579 595.1824,-528.7201"/>
<polygon fill="#000000" stroke="#000000" points="596.8957,-525.665 586.5428,-523.4139 593.2322,-531.6298 596.8957,-525.665"/>
</g>
<!-- Calloc&#45;&gt;Basic_alloc -->
<g id="edge28" class="edge">
<title>Calloc&#45;&gt;Basic_alloc</title>
<path fill="none" stroke="#000000" d="M818.8292,-645.7995C823.8497,-618.7929 833.3136,-567.8833 839.2264,-536.0767"/>
<polygon fill="#000000" stroke="#000000" points="842.6972,-536.5558 841.0839,-526.0846 835.8151,-535.2764 842.6972,-536.5558"/>
</g>
<!-- Free -->
<g id="node15" class="node">
<title>Free</title>
<g id="a_node15"><a xlink:href="Free.html" xlink:title="Free">
<ellipse fill="#00ffff" stroke="#00ffff" cx="910.4458" cy="-664" rx="27" ry="18"/>
<text text-anchor="middle" x="910.4458" y="-660.3" font-family="Times,serif" font-size="14.00" fill="#000000">Free</text>
</a>
</g>
</g>
<!-- Free&#45;&gt;Options -->
<g id="edge34" class="edge">
<title>Free&#45;&gt;Options</title>
<path fill="none" stroke="#000000" d="M919.6216,-646.9675C954.8597,-578.9944 1073.8449,-323.7344 957.4458,-177 888.9067,-90.5986 755.7288,-57.2733 684.7149,-45.2453"/>
<polygon fill="#000000" stroke="#000000" points="685.135,-41.7678 674.7036,-43.6214 684.0142,-48.6775 685.135,-41.7678"/>
</g>
<!-- Free&#45;&gt;Basic_blocks -->
<g id="edge33" class="edge">
<title>Free&#45;&gt;Basic_blocks</title>
<path fill="none" stroke="#000000" d="M914.3969,-645.8091C925.3083,-590.1821 949.6432,-420.8118 863.4458,-333 804.7791,-273.2345 561.3482,-225.0896 445.3916,-205.0573"/>
<polygon fill="#000000" stroke="#000000" points="445.6967,-201.5587 435.2494,-203.3208 444.5153,-208.4583 445.6967,-201.5587"/>
</g>
<!-- Free&#45;&gt;Transform -->
<g id="edge35" class="edge">
<title>Free&#45;&gt;Transform</title>
<path fill="none" stroke="#000000" d="M887.8158,-653.8846C829.9205,-628.0059 675.802,-559.1162 601.9745,-526.116"/>
<polygon fill="#000000" stroke="#000000" points="603.0897,-522.7808 592.5319,-521.8952 600.2331,-529.1714 603.0897,-522.7808"/>
</g>
<!-- Free&#45;&gt;Basic_alloc -->
<g id="edge32" class="edge">
<title>Free&#45;&gt;Basic_alloc</title>
<path fill="none" stroke="#000000" d="M903.003,-646.4081C891.5767,-619.4003 869.6172,-567.496 856.0774,-535.493"/>
<polygon fill="#000000" stroke="#000000" points="859.2866,-534.0955 852.1668,-526.2496 852.8398,-536.823 859.2866,-534.0955"/>
</g>
<!-- Malloc -->
<g id="node16" class="node">
<title>Malloc</title>
<g id="a_node16"><a xlink:href="Malloc.html" xlink:title="Malloc">
<ellipse fill="#00ffff" stroke="#00ffff" cx="709.4458" cy="-664" rx="36.2938" ry="18"/>
<text text-anchor="middle" x="709.4458" y="-660.3" font-family="Times,serif" font-size="14.00" fill="#000000">Malloc</text>
</a>
</g>
</g>
<!-- Malloc&#45;&gt;Options -->
<g id="edge38" class="edge">
<title>Malloc&#45;&gt;Options</title>
<path fill="none" stroke="#000000" d="M716.6062,-646.3337C729.487,-614.7473 757.6326,-546.5981 783.4458,-490 808.2729,-435.5641 828.99,-427.2975 842.4458,-369 846.0442,-353.4099 847.2421,-348.2642 842.4458,-333 806.3121,-218.0041 707.4806,-108.6996 661.5286,-62.3196"/>
<polygon fill="#000000" stroke="#000000" points="663.9155,-59.7568 654.3657,-55.1685 658.9698,-64.7107 663.9155,-59.7568"/>
</g>
<!-- Malloc&#45;&gt;Basic_blocks -->
<g id="edge37" class="edge">
<title>Malloc&#45;&gt;Basic_blocks</title>
<path fill="none" stroke="#000000" d="M703.9551,-646.1465C692.7345,-612.1223 664.2954,-537.1876 618.4458,-490 541.7651,-411.0816 463.1589,-460.7713 402.4458,-369 373.1461,-324.7119 374.994,-259.8093 379.1184,-223.0726"/>
<polygon fill="#000000" stroke="#000000" points="382.6019,-223.4227 380.3785,-213.0638 375.6567,-222.5482 382.6019,-223.4227"/>
</g>
<!-- Malloc&#45;&gt;Transform -->
<g id="edge39" class="edge">
<title>Malloc&#45;&gt;Transform</title>
<path fill="none" stroke="#000000" d="M693.8869,-647.6001C667.8882,-620.1961 615.466,-564.9402 584.9493,-532.774"/>
<polygon fill="#000000" stroke="#000000" points="587.114,-529.9704 577.6922,-525.1246 582.0357,-534.7882 587.114,-529.9704"/>
</g>
<!-- Malloc&#45;&gt;Basic_alloc -->
<g id="edge36" class="edge">
<title>Malloc&#45;&gt;Basic_alloc</title>
<path fill="none" stroke="#000000" d="M723.8932,-647.3053C747.5961,-619.9153 794.8769,-565.2796 822.6615,-533.1729"/>
<polygon fill="#000000" stroke="#000000" points="825.382,-535.3779 829.2792,-525.5259 820.0888,-530.7973 825.382,-535.3779"/>
</g>
</g>
</svg>
