<?xml version="1.0" encoding="UTF-8" standalone="no"?>
<!DOCTYPE svg PUBLIC "-//W3C//DTD SVG 1.1//EN"
 "http://www.w3.org/Graphics/SVG/1.1/DTD/svg11.dtd">
<!-- Generated by graphviz version 2.40.1 (20161225.0304)
 -->
<!-- Title: Plugin architecture (inout) Pages: 1 -->
<svg width="718pt" height="540pt"
 viewBox="0.00 0.00 717.82 540.00" xmlns="http://www.w3.org/2000/svg" xmlns:xlink="http://www.w3.org/1999/xlink">
<g id="graph0" class="graph" transform="scale(.9854 .9854) rotate(0) translate(4 544)">
<title>Plugin architecture (inout)</title>
<polygon fill="#ffffff" stroke="transparent" points="-4,4 -4,-544 724.4593,-544 724.4593,4 -4,4"/>
<!-- Inout -->
<g id="node1" class="node">
<title>Inout</title>
<g id="a_node1"><a xlink:href="Inout.html" xlink:title="Inout">
<ellipse fill="#00ced1" stroke="#00ced1" cx="55.5441" cy="-510" rx="29.4969" ry="18"/>
<text text-anchor="middle" x="55.5441" y="-506.3" font-family="Times,serif" font-size="14.00" fill="#000000">Inout</text>
</a>
</g>
</g>
<!-- Inout_parameters -->
<g id="node2" class="node">
<title>Inout_parameters</title>
<g id="a_node2"><a xlink:href="Inout_parameters.html" xlink:title="Inout_parameters">
<ellipse fill="#00ced1" stroke="#00ced1" cx="216.5441" cy="-30" rx="72.5877" ry="18"/>
<text text-anchor="middle" x="216.5441" y="-26.3" font-family="Times,serif" font-size="14.00" fill="#000000">Inout_parameters</text>
</a>
</g>
</g>
<!-- Cumulative_analysis -->
<g id="node3" class="node">
<title>Cumulative_analysis</title>
<g id="a_node3"><a xlink:href="Cumulative_analysis.html" xlink:title="Cumulative_analysis">
<ellipse fill="#00ced1" stroke="#00ced1" cx="216.5441" cy="-150" rx="85.2851" ry="18"/>
<text text-anchor="middle" x="216.5441" y="-146.3" font-family="Times,serif" font-size="14.00" fill="#000000">Cumulative_analysis</text>
</a>
</g>
</g>
<!-- Cumulative_analysis&#45;&gt;Inout_parameters -->
<g id="edge1" class="edge">
<title>Cumulative_analysis&#45;&gt;Inout_parameters</title>
<path fill="none" stroke="#000000" d="M216.5441,-131.7746C216.5441,-112.1904 216.5441,-80.8184 216.5441,-58.0776"/>
<polygon fill="#000000" stroke="#000000" points="220.0442,-58.0037 216.5441,-48.0037 213.0442,-58.0038 220.0442,-58.0037"/>
</g>
<!-- Operational_inputs -->
<g id="node4" class="node">
<title>Operational_inputs</title>
<g id="a_node4"><a xlink:href="Operational_inputs.html" xlink:title="Operational_inputs">
<ellipse fill="#00ced1" stroke="#00ced1" cx="571.5441" cy="-270" rx="77.9862" ry="18"/>
<text text-anchor="middle" x="571.5441" y="-266.3" font-family="Times,serif" font-size="14.00" fill="#000000">Operational_inputs</text>
</a>
</g>
</g>
<!-- Operational_inputs&#45;&gt;Inout_parameters -->
<g id="edge3" class="edge">
<title>Operational_inputs&#45;&gt;Inout_parameters</title>
<path fill="none" stroke="#000000" d="M576.6841,-251.6143C583.5432,-222.7804 591.8914,-166.6477 564.5441,-132 530.4249,-88.7725 380.425,-56.9925 288.8557,-41.2011"/>
<polygon fill="#000000" stroke="#000000" points="289.2586,-37.7194 278.8132,-39.4928 288.0846,-44.6203 289.2586,-37.7194"/>
</g>
<!-- Operational_inputs&#45;&gt;Cumulative_analysis -->
<g id="edge4" class="edge">
<title>Operational_inputs&#45;&gt;Cumulative_analysis</title>
<path fill="none" stroke="#000000" d="M527.3009,-255.0445C462.5069,-233.1424 341.8848,-192.3687 271.4946,-168.5748"/>
<polygon fill="#000000" stroke="#000000" points="272.5008,-165.2205 261.9066,-165.3338 270.2592,-171.8518 272.5008,-165.2205"/>
</g>
<!-- Inout_type -->
<g id="node5" class="node">
<title>Inout_type</title>
<g id="a_node5"><a xlink:href="Inout_type.html" xlink:title="Inout_type">
<ellipse fill="#eead0e" stroke="#eead0e" cx="506.5441" cy="-150" rx="48.9926" ry="18"/>
<text text-anchor="middle" x="506.5441" y="-146.3" font-family="Times,serif" font-size="14.00" fill="#000000">Inout_type</text>
</a>
</g>
</g>
<!-- Operational_inputs&#45;&gt;Inout_type -->
<g id="edge2" class="edge">
<title>Operational_inputs&#45;&gt;Inout_type</title>
<path fill="none" stroke="#000000" d="M561.813,-252.0348C550.9807,-232.0369 533.367,-199.5191 520.9396,-176.5763"/>
<polygon fill="#000000" stroke="#000000" points="523.97,-174.8223 516.1296,-167.6963 517.815,-178.1563 523.97,-174.8223"/>
</g>
<!-- Outputs -->
<g id="node6" class="node">
<title>Outputs</title>
<g id="a_node6"><a xlink:href="Outputs.html" xlink:title="Outputs">
<ellipse fill="#00ced1" stroke="#00ced1" cx="397.5441" cy="-390" rx="38.1938" ry="18"/>
<text text-anchor="middle" x="397.5441" y="-386.3" font-family="Times,serif" font-size="14.00" fill="#000000">Outputs</text>
</a>
</g>
</g>
<!-- Outputs&#45;&gt;Cumulative_analysis -->
<g id="edge5" class="edge">
<title>Outputs&#45;&gt;Cumulative_analysis</title>
<path fill="none" stroke="#000000" d="M384.527,-372.7398C353.2521,-331.2703 273.7185,-225.8114 236.4206,-176.3555"/>
<polygon fill="#000000" stroke="#000000" points="238.9944,-173.9555 230.1787,-168.0789 233.4056,-178.1704 238.9944,-173.9555"/>
</g>
<!-- Outputs&#45;&gt;Operational_inputs -->
<g id="edge7" class="edge">
<title>Outputs&#45;&gt;Operational_inputs</title>
<path fill="none" stroke="#000000" d="M419.2295,-375.0445C449.1278,-354.4251 503.2784,-317.0798 538.3061,-292.9228"/>
<polygon fill="#000000" stroke="#000000" points="540.5279,-295.6422 546.773,-287.0835 536.5538,-289.8797 540.5279,-295.6422"/>
</g>
<!-- Outputs&#45;&gt;Inout_type -->
<g id="edge6" class="edge">
<title>Outputs&#45;&gt;Inout_type</title>
<path fill="none" stroke="#000000" d="M405.5591,-372.3522C424.4106,-330.8443 471.6641,-226.8001 494.206,-177.1665"/>
<polygon fill="#000000" stroke="#000000" points="497.4207,-178.5522 498.3692,-167.9999 491.0472,-175.6575 497.4207,-178.5522"/>
</g>
<!-- Inputs -->
<g id="node7" class="node">
<title>Inputs</title>
<g id="a_node7"><a xlink:href="Inputs.html" xlink:title="Inputs">
<ellipse fill="#00ced1" stroke="#00ced1" cx="109.5441" cy="-270" rx="32.4942" ry="18"/>
<text text-anchor="middle" x="109.5441" y="-266.3" font-family="Times,serif" font-size="14.00" fill="#000000">Inputs</text>
</a>
</g>
</g>
<!-- Inputs&#45;&gt;Cumulative_analysis -->
<g id="edge8" class="edge">
<title>Inputs&#45;&gt;Cumulative_analysis</title>
<path fill="none" stroke="#000000" d="M123.9746,-253.8163C141.9122,-233.6993 172.7337,-199.1332 193.8473,-175.4543"/>
<polygon fill="#000000" stroke="#000000" points="196.5599,-177.6713 200.6028,-167.8781 191.3352,-173.0126 196.5599,-177.6713"/>
</g>
<!-- Derefs -->
<g id="node8" class="node">
<title>Derefs</title>
<g id="a_node8"><a xlink:href="Derefs.html" xlink:title="Derefs">
<ellipse fill="#00ced1" stroke="#00ced1" cx="223.5441" cy="-390" rx="34.394" ry="18"/>
<text text-anchor="middle" x="223.5441" y="-386.3" font-family="Times,serif" font-size="14.00" fill="#000000">Derefs</text>
</a>
</g>
</g>
<!-- Derefs&#45;&gt;Cumulative_analysis -->
<g id="edge9" class="edge">
<title>Derefs&#45;&gt;Cumulative_analysis</title>
<path fill="none" stroke="#000000" d="M223.018,-371.961C221.8094,-330.5241 218.8272,-228.2769 217.371,-178.349"/>
<polygon fill="#000000" stroke="#000000" points="220.8665,-178.142 217.0764,-168.2483 213.8695,-178.3462 220.8665,-178.142"/>
</g>
<!-- Register -->
<g id="node9" class="node">
<title>Register</title>
<g id="a_node9"><a xlink:href="Register.html" xlink:title="Register">
<ellipse fill="#00ced1" stroke="#00ced1" cx="223.5441" cy="-510" rx="40.0939" ry="18"/>
<text text-anchor="middle" x="223.5441" y="-506.3" font-family="Times,serif" font-size="14.00" fill="#000000">Register</text>
</a>
</g>
</g>
<!-- Register&#45;&gt;Inout_parameters -->
<g id="edge13" class="edge">
<title>Register&#45;&gt;Inout_parameters</title>
<path fill="none" stroke="#000000" d="M206.5479,-493.6152C172.3611,-459.3293 96.1896,-375.8869 68.5441,-288 39.0549,-194.2518 135.2102,-97.3003 186.4923,-53.722"/>
<polygon fill="#000000" stroke="#000000" points="188.8775,-56.2902 194.3114,-47.1949 184.3916,-50.9164 188.8775,-56.2902"/>
</g>
<!-- Register&#45;&gt;Operational_inputs -->
<g id="edge11" class="edge">
<title>Register&#45;&gt;Operational_inputs</title>
<path fill="none" stroke="#000000" d="M256.4217,-499.4376C301.5861,-483.9438 384.0915,-452.0441 444.5441,-408 488.8548,-375.7165 529.8179,-326.2006 552.6678,-296.087"/>
<polygon fill="#000000" stroke="#000000" points="555.7013,-297.875 558.8908,-287.7717 550.0969,-293.6808 555.7013,-297.875"/>
</g>
<!-- Register&#45;&gt;Outputs -->
<g id="edge10" class="edge">
<title>Register&#45;&gt;Outputs</title>
<path fill="none" stroke="#000000" d="M245.5813,-494.8019C276.5205,-473.4646 332.9256,-434.5645 367.6314,-410.6295"/>
<polygon fill="#000000" stroke="#000000" points="369.7136,-413.4452 375.9586,-404.8865 365.7394,-407.6827 369.7136,-413.4452"/>
</g>
<!-- Register&#45;&gt;Inputs -->
<g id="edge12" class="edge">
<title>Register&#45;&gt;Inputs</title>
<path fill="none" stroke="#000000" d="M215.1614,-492.3522C195.397,-450.7429 145.7823,-346.291 122.2757,-296.8034"/>
<polygon fill="#000000" stroke="#000000" points="125.3912,-295.2047 117.9391,-287.6736 119.0682,-298.2081 125.3912,-295.2047"/>
</g>
<!-- Register&#45;&gt;Derefs -->
<g id="edge14" class="edge">
<title>Register&#45;&gt;Derefs</title>
<path fill="none" stroke="#000000" d="M223.5441,-491.7746C223.5441,-472.1904 223.5441,-440.8184 223.5441,-418.0776"/>
<polygon fill="#000000" stroke="#000000" points="227.0442,-418.0037 223.5441,-408.0037 220.0442,-418.0038 227.0442,-418.0037"/>
</g>
</g>
</svg>
