<?xml version="1.0" encoding="UTF-8" standalone="no"?>
<!DOCTYPE svg PUBLIC "-//W3C//DTD SVG 1.1//EN"
 "http://www.w3.org/Graphics/SVG/1.1/DTD/svg11.dtd">
<!-- Generated by graphviz version 2.40.1 (20161225.0304)
 -->
<!-- Title: Plugin architecture (postdominators) Pages: 1 -->
<svg width="719pt" height="540pt"
 viewBox="0.00 0.00 719.34 540.00" xmlns="http://www.w3.org/2000/svg" xmlns:xlink="http://www.w3.org/1999/xlink">
<g id="graph0" class="graph" transform="scale(.9854 .9854) rotate(0) translate(4 544)">
<title>Plugin architecture (postdominators)</title>
<polygon fill="#ffffff" stroke="transparent" points="-4,4 -4,-544 725.9961,-544 725.9961,4 -4,4"/>
<!-- Postdominators -->
<g id="node1" class="node">
<title>Postdominators</title>
<g id="a_node1"><a xlink:href="Postdominators.html" xlink:title="Postdominators">
<ellipse fill="#00ced1" stroke="#00ced1" cx="157.3947" cy="-486" rx="65.7887" ry="18"/>
<text text-anchor="middle" x="157.3947" y="-482.3" font-family="Times,serif" font-size="14.00" fill="#000000">Postdominators</text>
</a>
</g>
</g>
<!-- Postdominators_parameters -->
<g id="node2" class="node">
<title>Postdominators_parameters</title>
<g id="a_node2"><a xlink:href="Postdominators_parameters.html" xlink:title="Postdominators_parameters">
<ellipse fill="#00ced1" stroke="#00ced1" cx="460.3947" cy="-54" rx="109.381" ry="18"/>
<text text-anchor="middle" x="460.3947" y="-50.3" font-family="Times,serif" font-size="14.00" fill="#000000">Postdominators_parameters</text>
</a>
</g>
</g>
<!-- Print -->
<g id="node3" class="node">
<title>Print</title>
<g id="a_node3"><a xlink:href="Print.html" xlink:title="Print">
<ellipse fill="#00ced1" stroke="#00ced1" cx="527.3947" cy="-270" rx="27.8951" ry="18"/>
<text text-anchor="middle" x="527.3947" y="-266.3" font-family="Times,serif" font-size="14.00" fill="#000000">Print</text>
</a>
</g>
</g>
<!-- Print&#45;&gt;Postdominators_parameters -->
<g id="edge1" class="edge">
<title>Print&#45;&gt;Postdominators_parameters</title>
<path fill="none" stroke="#000000" d="M521.9118,-252.3238C510.285,-214.8404 483.0762,-127.1223 469.0677,-81.9606"/>
<polygon fill="#000000" stroke="#000000" points="472.3535,-80.7397 466.048,-72.2255 465.6678,-82.8135 472.3535,-80.7397"/>
</g>
<!-- Compute -->
<g id="node4" class="node">
<title>Compute</title>
<g id="a_node4"><a xlink:href="Compute.html" xlink:title="Compute">
<ellipse fill="#00ced1" stroke="#00ced1" cx="460.3947" cy="-486" rx="43.5923" ry="18"/>
<text text-anchor="middle" x="460.3947" y="-482.3" font-family="Times,serif" font-size="14.00" fill="#000000">Compute</text>
</a>
</g>
</g>
<!-- Compute&#45;&gt;Postdominators_parameters -->
<g id="edge3" class="edge">
<title>Compute&#45;&gt;Postdominators_parameters</title>
<path fill="none" stroke="#000000" d="M460.3947,-467.9875C460.3947,-400.7447 460.3947,-164.0792 460.3947,-82.1585"/>
<polygon fill="#000000" stroke="#000000" points="463.8948,-82.0894 460.3947,-72.0894 456.8948,-82.0894 463.8948,-82.0894"/>
</g>
<!-- Compute&#45;&gt;Print -->
<g id="edge2" class="edge">
<title>Compute&#45;&gt;Print</title>
<path fill="none" stroke="#000000" d="M465.9918,-467.9555C477.7214,-430.1409 504.9427,-342.3825 518.8633,-297.5042"/>
<polygon fill="#000000" stroke="#000000" points="522.2408,-298.4293 521.8606,-287.8413 515.5551,-296.3554 522.2408,-298.4293"/>
</g>
</g>
</svg>
