<?xml version="1.0" encoding="UTF-8" standalone="no"?>
<!DOCTYPE svg PUBLIC "-//W3C//DTD SVG 1.1//EN"
 "http://www.w3.org/Graphics/SVG/1.1/DTD/svg11.dtd">
<!-- Generated by graphviz version 2.40.1 (20161225.0304)
 -->
<!-- Title: Plugin architecture (metrics) Pages: 1 -->
<svg width="720pt" height="520pt"
 viewBox="0.00 0.00 720.00 519.73" xmlns="http://www.w3.org/2000/svg" xmlns:xlink="http://www.w3.org/1999/xlink">
<g id="graph0" class="graph" transform="scale(.9484 .9484) rotate(0) translate(4 544)">
<title>Plugin architecture (metrics)</title>
<polygon fill="#ffffff" stroke="transparent" points="-4,4 -4,-544 755.1621,-544 755.1621,4 -4,4"/>
<!-- Metrics -->
<g id="node1" class="node">
<title>Metrics</title>
<g id="a_node1"><a xlink:href="Metrics.html" xlink:title="Metrics">
<ellipse fill="#00ced1" stroke="#00ced1" cx="107.2665" cy="-501" rx="38.1938" ry="18"/>
<text text-anchor="middle" x="107.2665" y="-497.3" font-family="Times,serif" font-size="14.00" fill="#000000">Metrics</text>
</a>
</g>
</g>
<!-- Metrics_parameters -->
<g id="node2" class="node">
<title>Metrics_parameters</title>
<g id="a_node2"><a xlink:href="Metrics_parameters.html" xlink:title="Metrics_parameters">
<ellipse fill="#00ced1" stroke="#00ced1" cx="300.2665" cy="-39" rx="81.4863" ry="18"/>
<text text-anchor="middle" x="300.2665" y="-35.3" font-family="Times,serif" font-size="14.00" fill="#000000">Metrics_parameters</text>
</a>
</g>
</g>
<!-- Css_html -->
<g id="node3" class="node">
<title>Css_html</title>
<g id="a_node3"><a xlink:href="Css_html.html" xlink:title="Css_html">
<ellipse fill="#00ced1" stroke="#00ced1" cx="141.2665" cy="-193" rx="44.393" ry="18"/>
<text text-anchor="middle" x="141.2665" y="-189.3" font-family="Times,serif" font-size="14.00" fill="#000000">Css_html</text>
</a>
</g>
</g>
<!-- Metrics_base -->
<g id="node4" class="node">
<title>Metrics_base</title>
<g id="a_node4"><a xlink:href="Metrics_base.html" xlink:title="Metrics_base">
<ellipse fill="#00ced1" stroke="#00ced1" cx="300.2665" cy="-193" rx="57.6901" ry="18"/>
<text text-anchor="middle" x="300.2665" y="-189.3" font-family="Times,serif" font-size="14.00" fill="#000000">Metrics_base</text>
</a>
</g>
</g>
<!-- Metrics_base&#45;&gt;Metrics_parameters -->
<g id="edge1" class="edge">
<title>Metrics_base&#45;&gt;Metrics_parameters</title>
<path fill="none" stroke="#000000" d="M300.2665,-174.7294C300.2665,-148.2167 300.2665,-98.8331 300.2665,-67.507"/>
<polygon fill="#000000" stroke="#000000" points="303.7666,-67.2468 300.2665,-57.2468 296.7666,-67.2468 303.7666,-67.2468"/>
</g>
<!-- Metrics_acsl -->
<g id="node5" class="node">
<title>Metrics_acsl</title>
<g id="a_node5"><a xlink:href="Metrics_acsl.html" xlink:title="Metrics_acsl">
<ellipse fill="#00ced1" stroke="#00ced1" cx="69.2665" cy="-347" rx="55.7903" ry="18"/>
<text text-anchor="middle" x="69.2665" y="-343.3" font-family="Times,serif" font-size="14.00" fill="#000000">Metrics_acsl</text>
</a>
</g>
</g>
<!-- Metrics_acsl&#45;&gt;Metrics_parameters -->
<g id="edge4" class="edge">
<title>Metrics_acsl&#45;&gt;Metrics_parameters</title>
<path fill="none" stroke="#000000" d="M66.4692,-328.7961C62.33,-295.5068 58.0191,-223.7622 88.2665,-175 124.5379,-116.5265 196.3192,-78.5529 246.2514,-57.9705"/>
<polygon fill="#000000" stroke="#000000" points="247.644,-61.183 255.618,-54.2069 245.034,-54.6877 247.644,-61.183"/>
</g>
<!-- Metrics_acsl&#45;&gt;Css_html -->
<g id="edge2" class="edge">
<title>Metrics_acsl&#45;&gt;Css_html</title>
<path fill="none" stroke="#000000" d="M77.6667,-329.0328C90.1856,-302.2565 113.8326,-251.6781 128.499,-220.3082"/>
<polygon fill="#000000" stroke="#000000" points="131.855,-221.3939 132.9198,-210.8527 125.5139,-218.4292 131.855,-221.3939"/>
</g>
<!-- Metrics_acsl&#45;&gt;Metrics_base -->
<g id="edge3" class="edge">
<title>Metrics_acsl&#45;&gt;Metrics_base</title>
<path fill="none" stroke="#000000" d="M93.9876,-330.5193C135.7566,-302.6733 220.3147,-246.3012 267.1578,-215.0725"/>
<polygon fill="#000000" stroke="#000000" points="269.3442,-217.8214 275.7232,-209.3622 265.4612,-211.9971 269.3442,-217.8214"/>
</g>
<!-- Metrics_cabs -->
<g id="node6" class="node">
<title>Metrics_cabs</title>
<g id="a_node6"><a xlink:href="Metrics_cabs.html" xlink:title="Metrics_cabs">
<ellipse fill="#00ced1" stroke="#00ced1" cx="342.2665" cy="-347" rx="57.6901" ry="18"/>
<text text-anchor="middle" x="342.2665" y="-343.3" font-family="Times,serif" font-size="14.00" fill="#000000">Metrics_cabs</text>
</a>
</g>
</g>
<!-- Metrics_cabs&#45;&gt;Metrics_parameters -->
<g id="edge6" class="edge">
<title>Metrics_cabs&#45;&gt;Metrics_parameters</title>
<path fill="none" stroke="#000000" d="M349.3455,-328.7345C360.6214,-297.112 380.1372,-230.2494 367.2665,-175 357.8114,-134.4124 334.4229,-92.0073 317.953,-65.5585"/>
<polygon fill="#000000" stroke="#000000" points="320.7672,-63.4612 312.4501,-56.8979 314.859,-67.2153 320.7672,-63.4612"/>
</g>
<!-- Metrics_cabs&#45;&gt;Metrics_base -->
<g id="edge5" class="edge">
<title>Metrics_cabs&#45;&gt;Metrics_base</title>
<path fill="none" stroke="#000000" d="M337.3664,-329.0328C330.1342,-302.515 316.5353,-252.6524 307.9634,-221.2221"/>
<polygon fill="#000000" stroke="#000000" points="311.2735,-220.0568 305.2656,-211.3301 304.5202,-221.8986 311.2735,-220.0568"/>
</g>
<!-- Metrics_cilast -->
<g id="node7" class="node">
<title>Metrics_cilast</title>
<g id="a_node7"><a xlink:href="Metrics_cilast.html" xlink:title="Metrics_cilast">
<ellipse fill="#00ced1" stroke="#00ced1" cx="204.2665" cy="-347" rx="61.1893" ry="18"/>
<text text-anchor="middle" x="204.2665" y="-343.3" font-family="Times,serif" font-size="14.00" fill="#000000">Metrics_cilast</text>
</a>
</g>
</g>
<!-- Metrics_cilast&#45;&gt;Metrics_parameters -->
<g id="edge8" class="edge">
<title>Metrics_cilast&#45;&gt;Metrics_parameters</title>
<path fill="none" stroke="#000000" d="M205.5928,-328.7616C208.2919,-296.9001 215.723,-229.3199 233.2665,-175 246.0745,-135.3427 268.6684,-92.7171 284.0441,-65.9647"/>
<polygon fill="#000000" stroke="#000000" points="287.1435,-67.5974 289.1537,-57.195 281.0953,-64.0734 287.1435,-67.5974"/>
</g>
<!-- Metrics_cilast&#45;&gt;Css_html -->
<g id="edge7" class="edge">
<title>Metrics_cilast&#45;&gt;Css_html</title>
<path fill="none" stroke="#000000" d="M196.9163,-329.0328C185.9624,-302.2565 165.2712,-251.6781 152.4381,-220.3082"/>
<polygon fill="#000000" stroke="#000000" points="155.5957,-218.783 148.5699,-210.8527 149.1169,-221.4334 155.5957,-218.783"/>
</g>
<!-- Metrics_cilast&#45;&gt;Metrics_base -->
<g id="edge9" class="edge">
<title>Metrics_cilast&#45;&gt;Metrics_base</title>
<path fill="none" stroke="#000000" d="M215.4668,-329.0328C232.3031,-302.0247 264.2351,-250.8005 283.7484,-219.4978"/>
<polygon fill="#000000" stroke="#000000" points="286.8176,-221.1904 289.1376,-210.8527 280.8773,-217.4874 286.8176,-221.1904"/>
</g>
<!-- Metrics_coverage -->
<g id="node8" class="node">
<title>Metrics_coverage</title>
<g id="a_node8"><a xlink:href="Metrics_coverage.html" xlink:title="Metrics_coverage">
<ellipse fill="#00ced1" stroke="#00ced1" cx="532.2665" cy="-347" rx="74.187" ry="18"/>
<text text-anchor="middle" x="532.2665" y="-343.3" font-family="Times,serif" font-size="14.00" fill="#000000">Metrics_coverage</text>
</a>
</g>
</g>
<!-- Metrics_coverage&#45;&gt;Metrics_parameters -->
<g id="edge11" class="edge">
<title>Metrics_coverage&#45;&gt;Metrics_parameters</title>
<path fill="none" stroke="#000000" d="M518.7904,-329.1093C479.7083,-277.2245 366.1803,-126.5062 320.076,-65.2988"/>
<polygon fill="#000000" stroke="#000000" points="322.5921,-62.8218 313.7798,-56.9401 317.0008,-67.0334 322.5921,-62.8218"/>
</g>
<!-- Metrics_coverage&#45;&gt;Metrics_base -->
<g id="edge10" class="edge">
<title>Metrics_coverage&#45;&gt;Metrics_base</title>
<path fill="none" stroke="#000000" d="M506.552,-329.9309C464.3245,-301.9005 380.3223,-246.1405 333.5911,-215.1206"/>
<polygon fill="#000000" stroke="#000000" points="335.3085,-212.0598 325.0413,-209.4453 331.4372,-217.8918 335.3085,-212.0598"/>
</g>
<!-- Register -->
<g id="node9" class="node">
<title>Register</title>
<g id="a_node9"><a xlink:href="Register.html" xlink:title="Register">
<ellipse fill="#00ced1" stroke="#00ced1" cx="204.2665" cy="-501" rx="40.0939" ry="18"/>
<text text-anchor="middle" x="204.2665" y="-497.3" font-family="Times,serif" font-size="14.00" fill="#000000">Register</text>
</a>
</g>
</g>
<!-- Register&#45;&gt;Metrics_parameters -->
<g id="edge12" class="edge">
<title>Register&#45;&gt;Metrics_parameters</title>
<path fill="none" stroke="#000000" d="M178.1086,-487.2671C128.3516,-460.5387 23.3203,-400.9982 4.2665,-365 -3.2184,-350.8587 1.0926,-344.682 4.2665,-329 19.0038,-256.185 20.3334,-230.8995 69.2665,-175 118.468,-118.7939 196.782,-79.6052 248.3599,-58.19"/>
<polygon fill="#000000" stroke="#000000" points="249.7263,-61.4127 257.6664,-54.3981 247.0849,-54.9302 249.7263,-61.4127"/>
</g>
<!-- Register&#45;&gt;Metrics_acsl -->
<g id="edge16" class="edge">
<title>Register&#45;&gt;Metrics_acsl</title>
<path fill="none" stroke="#000000" d="M189.5622,-484.2261C165.8745,-457.2047 119.1247,-403.8753 91.3958,-372.2438"/>
<polygon fill="#000000" stroke="#000000" points="94.0054,-369.9112 84.7815,-364.6986 88.7416,-374.5256 94.0054,-369.9112"/>
</g>
<!-- Register&#45;&gt;Metrics_cabs -->
<g id="edge15" class="edge">
<title>Register&#45;&gt;Metrics_cabs</title>
<path fill="none" stroke="#000000" d="M219.2976,-484.2261C243.5117,-457.2047 291.3003,-403.8753 319.6454,-372.2438"/>
<polygon fill="#000000" stroke="#000000" points="322.3397,-374.4818 326.4067,-364.6986 317.1265,-369.8102 322.3397,-374.4818"/>
</g>
<!-- Register&#45;&gt;Metrics_cilast -->
<g id="edge14" class="edge">
<title>Register&#45;&gt;Metrics_cilast</title>
<path fill="none" stroke="#000000" d="M204.2665,-482.7294C204.2665,-456.2167 204.2665,-406.8331 204.2665,-375.507"/>
<polygon fill="#000000" stroke="#000000" points="207.7666,-375.2468 204.2665,-365.2468 200.7666,-375.2468 207.7666,-375.2468"/>
</g>
<!-- Register&#45;&gt;Metrics_coverage -->
<g id="edge13" class="edge">
<title>Register&#45;&gt;Metrics_coverage</title>
<path fill="none" stroke="#000000" d="M232.2316,-487.87C289.4928,-460.9852 420.4419,-399.503 488.8461,-367.3864"/>
<polygon fill="#000000" stroke="#000000" points="490.5045,-370.4744 498.069,-363.0562 487.5295,-364.138 490.5045,-370.4744"/>
</g>
<!-- Metrics_gui -->
<g id="node10" class="node">
<title>Metrics_gui</title>
<g id="a_node10"><a xlink:href="Metrics_gui.html" xlink:title="Metrics_gui">
<ellipse fill="#00ced1" stroke="#00ced1" cx="679.2665" cy="-347" rx="53.8905" ry="18"/>
<text text-anchor="middle" x="679.2665" y="-343.3" font-family="Times,serif" font-size="14.00" fill="#000000">Metrics_gui</text>
</a>
</g>
</g>
<!-- Register_gui -->
<g id="node11" class="node">
<title>Register_gui</title>
<g id="a_node11"><a xlink:href="Register_gui.html" xlink:title="Register_gui">
<ellipse fill="#00ced1" stroke="#00ced1" cx="480.2665" cy="-501" rx="55.7903" ry="18"/>
<text text-anchor="middle" x="480.2665" y="-497.3" font-family="Times,serif" font-size="14.00" fill="#000000">Register_gui</text>
</a>
</g>
</g>
<!-- Register_gui&#45;&gt;Metrics_parameters -->
<g id="edge17" class="edge">
<title>Register_gui&#45;&gt;Metrics_parameters</title>
<path fill="none" stroke="#000000" d="M528.4351,-491.8163C617.0042,-472.505 792.2878,-421.6461 742.2665,-329 659.8748,-176.3994 458.3039,-91.0763 358.3783,-56.8526"/>
<polygon fill="#000000" stroke="#000000" points="359.3363,-53.482 348.7421,-53.603 357.0994,-60.115 359.3363,-53.482"/>
</g>
<!-- Register_gui&#45;&gt;Metrics_base -->
<g id="edge22" class="edge">
<title>Register_gui&#45;&gt;Metrics_base</title>
<path fill="none" stroke="#000000" d="M474.6857,-482.8812C464.3468,-450.6309 440.4023,-381.7091 409.2665,-329 384.4411,-286.9736 347.6225,-243.911 323.7823,-217.805"/>
<polygon fill="#000000" stroke="#000000" points="326.1814,-215.2438 316.828,-210.2675 321.0366,-219.9906 326.1814,-215.2438"/>
</g>
<!-- Register_gui&#45;&gt;Metrics_cabs -->
<g id="edge21" class="edge">
<title>Register_gui&#45;&gt;Metrics_cabs</title>
<path fill="none" stroke="#000000" d="M464.7044,-483.6336C440.2711,-456.3674 392.8034,-403.3962 364.6886,-372.0217"/>
<polygon fill="#000000" stroke="#000000" points="367.2637,-369.6508 357.9835,-364.5392 362.0505,-374.3224 367.2637,-369.6508"/>
</g>
<!-- Register_gui&#45;&gt;Metrics_cilast -->
<g id="edge20" class="edge">
<title>Register_gui&#45;&gt;Metrics_cilast</title>
<path fill="none" stroke="#000000" d="M452.2833,-485.3862C402.4331,-457.5712 298.2314,-399.4297 242.0675,-368.0919"/>
<polygon fill="#000000" stroke="#000000" points="243.5899,-364.9334 233.1519,-363.1172 240.1791,-371.0462 243.5899,-364.9334"/>
</g>
<!-- Register_gui&#45;&gt;Metrics_coverage -->
<g id="edge19" class="edge">
<title>Register_gui&#45;&gt;Metrics_coverage</title>
<path fill="none" stroke="#000000" d="M486.3334,-483.0328C495.3264,-456.3997 512.2707,-406.2183 522.8751,-374.8131"/>
<polygon fill="#000000" stroke="#000000" points="526.194,-375.9243 526.0771,-365.3301 519.5619,-373.6848 526.194,-375.9243"/>
</g>
<!-- Register_gui&#45;&gt;Metrics_gui -->
<g id="edge18" class="edge">
<title>Register_gui&#45;&gt;Metrics_gui</title>
<path fill="none" stroke="#000000" d="M501.9418,-484.2261C537.6792,-456.5701 609.0274,-401.3559 649.4789,-370.0517"/>
<polygon fill="#000000" stroke="#000000" points="651.8515,-372.6413 657.6179,-363.7532 647.5674,-367.1054 651.8515,-372.6413"/>
</g>
</g>
</svg>
